<?xml version="1.0" encoding="UTF-8"?>
<!DOCTYPE svg PUBLIC "-//W3C//DTD SVG 1.1//EN" "http://www.w3.org/Graphics/SVG/1.1/DTD/svg11.dtd">
<svg width="204mm" height="120mm" viewBox="0 0 20400 12000" version="1.1" xmlns="http://www.w3.org/2000/svg" stroke-width="28.222" stroke-linejoin="round" xml:space="preserve">
 <path fill="rgb(255,255,255)" stroke="none" d="M 10194,12001 L 5,12001 5,-4 20383,-4 20383,12001 10194,12001 Z"/>
 <path fill="none" stroke="rgb(179,179,179)" stroke-linejoin="round" d="M 8977,9936 L 2490,9936 2490,1785 15464,1785 15464,9936 8977,9936 Z"/>
 <path fill="none" stroke="rgb(179,179,179)" stroke-linejoin="round" d="M 15464,9935 L 2490,9935"/>
 <path fill="none" stroke="rgb(179,179,179)" stroke-linejoin="round" d="M 15464,8770 L 2490,8770"/>
 <path fill="none" stroke="rgb(179,179,179)" stroke-linejoin="round" d="M 15464,7605 L 2490,7605"/>
 <path fill="none" stroke="rgb(179,179,179)" stroke-linejoin="round" d="M 15464,6441 L 2490,6441"/>
 <path fill="none" stroke="rgb(179,179,179)" stroke-linejoin="round" d="M 15464,5277 L 2490,5277"/>
 <path fill="none" stroke="rgb(179,179,179)" stroke-linejoin="round" d="M 15464,4113 L 2490,4113"/>
 <path fill="none" stroke="rgb(179,179,179)" stroke-linejoin="round" d="M 15464,2948 L 2490,2948"/>
 <path fill="none" stroke="rgb(179,179,179)" stroke-linejoin="round" d="M 15464,1783 L 2490,1783"/>
 <path fill="none" stroke="rgb(221,221,221)" stroke-linejoin="round" d="M 15464,9352 L 2490,9352"/>
 <path fill="none" stroke="rgb(221,221,221)" stroke-linejoin="round" d="M 15464,8188 L 2490,8188"/>
 <path fill="none" stroke="rgb(221,221,221)" stroke-linejoin="round" d="M 15464,7023 L 2490,7023"/>
 <path fill="none" stroke="rgb(221,221,221)" stroke-linejoin="round" d="M 15464,5860 L 2490,5860"/>
 <path fill="none" stroke="rgb(221,221,221)" stroke-linejoin="round" d="M 15464,4695 L 2490,4695"/>
 <path fill="none" stroke="rgb(221,221,221)" stroke-linejoin="round" d="M 15464,3530 L 2490,3530"/>
 <path fill="none" stroke="rgb(221,221,221)" stroke-linejoin="round" d="M 15464,2366 L 2490,2366"/>
 <path fill="none" stroke="rgb(179,179,179)" stroke-linejoin="round" d="M 2490,10085 L 2490,9935"/>
 <path fill="none" stroke="rgb(179,179,179)" stroke-linejoin="round" d="M 5733,10085 L 5733,9935"/>
 <path fill="none" stroke="rgb(179,179,179)" stroke-linejoin="round" d="M 8977,10085 L 8977,9935"/>
 <path fill="none" stroke="rgb(179,179,179)" stroke-linejoin="round" d="M 12220,10085 L 12220,9935"/>
 <path fill="none" stroke="rgb(179,179,179)" stroke-linejoin="round" d="M 15464,10085 L 15464,9935"/>
 <path fill="none" stroke="rgb(179,179,179)" stroke-linejoin="round" d="M 2490,9935 L 15464,9935"/>
 <path fill="none" stroke="rgb(179,179,179)" stroke-linejoin="round" d="M 2340,9935 L 2490,9935"/>
 <path fill="none" stroke="rgb(179,179,179)" stroke-linejoin="round" d="M 2340,8770 L 2490,8770"/>
 <path fill="none" stroke="rgb(179,179,179)" stroke-linejoin="round" d="M 2340,7605 L 2490,7605"/>
 <path fill="none" stroke="rgb(179,179,179)" stroke-linejoin="round" d="M 2340,6441 L 2490,6441"/>
 <path fill="none" stroke="rgb(179,179,179)" stroke-linejoin="round" d="M 2340,5277 L 2490,5277"/>
 <path fill="none" stroke="rgb(179,179,179)" stroke-linejoin="round" d="M 2340,4113 L 2490,4113"/>
 <path fill="none" stroke="rgb(179,179,179)" stroke-linejoin="round" d="M 2340,2948 L 2490,2948"/>
 <path fill="none" stroke="rgb(179,179,179)" stroke-linejoin="round" d="M 2340,1783 L 2490,1783"/>
 <path fill="none" stroke="rgb(179,179,179)" stroke-linejoin="round" d="M 2490,9935 L 2490,1783"/>
 <path fill="none" stroke="rgb(0,69,134)" stroke-width="80" stroke-linejoin="round" d="M 5733,8364 L 8977,8302 12220,8302"/>
 <path fill="rgb(0,69,134)" stroke="none" d="M 5592,8223 L 5592,8505 5874,8505 5874,8223 5592,8223 Z"/>
 <path fill="none" stroke="rgb(0,69,134)" stroke-linejoin="round" d="M 5592,8223 L 5592,8505 5874,8505 5874,8223 5592,8223 Z"/>
 <path fill="rgb(0,69,134)" stroke="none" d="M 8836,8161 L 8836,8443 9118,8443 9118,8161 8836,8161 Z"/>
 <path fill="none" stroke="rgb(0,69,134)" stroke-linejoin="round" d="M 8836,8161 L 8836,8443 9118,8443 9118,8161 8836,8161 Z"/>
 <path fill="rgb(0,69,134)" stroke="none" d="M 12079,8161 L 12079,8443 12361,8443 12361,8161 12079,8161 Z"/>
 <path fill="none" stroke="rgb(0,69,134)" stroke-linejoin="round" d="M 12079,8161 L 12079,8443 12361,8443 12361,8161 12079,8161 Z"/>
 <path fill="none" stroke="rgb(255,66,14)" stroke-width="80" stroke-linejoin="round" d="M 5733,7609 L 8977,7504 12220,4800"/>
 <path fill="rgb(255,66,14)" stroke="none" d="M 5592,7609 L 5733,7750 5874,7609 5733,7468 5592,7609 Z"/>
 <path fill="none" stroke="rgb(255,66,14)" stroke-linejoin="round" d="M 5592,7609 L 5733,7750 5874,7609 5733,7468 5592,7609 Z"/>
 <path fill="rgb(255,66,14)" stroke="none" d="M 8836,7504 L 8977,7645 9118,7504 8977,7363 8836,7504 Z"/>
 <path fill="none" stroke="rgb(255,66,14)" stroke-linejoin="round" d="M 8836,7504 L 8977,7645 9118,7504 8977,7363 8836,7504 Z"/>
 <path fill="rgb(255,66,14)" stroke="none" d="M 12079,4800 L 12220,4941 12361,4800 12220,4659 12079,4800 Z"/>
 <path fill="none" stroke="rgb(255,66,14)" stroke-linejoin="round" d="M 12079,4800 L 12220,4941 12361,4800 12220,4659 12079,4800 Z"/>
 <path fill="none" stroke="rgb(255,211,32)" stroke-width="80" stroke-linejoin="round" d="M 5733,5283 L 8977,5166 12220,2462"/>
 <path fill="rgb(255,211,32)" stroke="none" d="M 5592,5424 L 5874,5424 5733,5142 5592,5424 Z"/>
 <path fill="none" stroke="rgb(255,211,32)" stroke-linejoin="round" d="M 5592,5424 L 5874,5424 5733,5142 5592,5424 Z"/>
 <path fill="rgb(255,211,32)" stroke="none" d="M 8836,5307 L 9118,5307 8977,5025 8836,5307 Z"/>
 <path fill="none" stroke="rgb(255,211,32)" stroke-linejoin="round" d="M 8836,5307 L 9118,5307 8977,5025 8836,5307 Z"/>
 <path fill="rgb(255,211,32)" stroke="none" d="M 12079,2603 L 12361,2603 12220,2321 12079,2603 Z"/>
 <path fill="none" stroke="rgb(255,211,32)" stroke-linejoin="round" d="M 12079,2603 L 12361,2603 12220,2321 12079,2603 Z"/>
 <path fill="none" stroke="rgb(87,157,28)" stroke-width="80" stroke-linejoin="round" d="M 5733,7504 L 8977,7336 12220,3554"/>
 <path fill="rgb(87,157,28)" stroke="none" d="M 5592,7645 L 5874,7645 5733,7363 5592,7645 Z"/>
 <path fill="none" stroke="rgb(87,157,28)" stroke-linejoin="round" d="M 5592,7645 L 5874,7645 5733,7363 5592,7645 Z"/>
 <path fill="rgb(87,157,28)" stroke="none" d="M 8836,7477 L 9118,7477 8977,7195 8836,7477 Z"/>
 <path fill="none" stroke="rgb(87,157,28)" stroke-linejoin="round" d="M 8836,7477 L 9118,7477 8977,7195 8836,7477 Z"/>
 <path fill="rgb(87,157,28)" stroke="none" d="M 12079,3695 L 12361,3695 12220,3413 12079,3695 Z"/>
 <path fill="none" stroke="rgb(87,157,28)" stroke-linejoin="round" d="M 12079,3695 L 12361,3695 12220,3413 12079,3695 Z"/>
 <path fill="none" stroke="rgb(126,0,33)" stroke-width="80" stroke-linejoin="round" d="M 5733,7269 L 8977,7164 12220,7164"/>
 <path fill="rgb(126,0,33)" stroke="none" d="M 5592,7410 L 5874,7410 5733,7128 5592,7410 Z"/>
 <path fill="none" stroke="rgb(126,0,33)" stroke-linejoin="round" d="M 5592,7410 L 5874,7410 5733,7128 5592,7410 Z"/>
 <path fill="rgb(126,0,33)" stroke="none" d="M 8836,7305 L 9118,7305 8977,7023 8836,7305 Z"/>
 <path fill="none" stroke="rgb(126,0,33)" stroke-linejoin="round" d="M 8836,7305 L 9118,7305 8977,7023 8836,7305 Z"/>
 <path fill="rgb(126,0,33)" stroke="none" d="M 12079,7305 L 12361,7305 12220,7023 12079,7305 Z"/>
 <path fill="none" stroke="rgb(126,0,33)" stroke-linejoin="round" d="M 12079,7305 L 12361,7305 12220,7023 12079,7305 Z"/>
 <path fill="none" stroke="rgb(131,202,255)" stroke-width="80" stroke-linejoin="round" d="M 5733,6174 L 8977,6115 12220,6115"/>
 <path fill="rgb(131,202,255)" stroke="none" d="M 5592,6315 L 5874,6315 5733,6033 5592,6315 Z"/>
 <path fill="none" stroke="rgb(131,202,255)" stroke-linejoin="round" d="M 5592,6315 L 5874,6315 5733,6033 5592,6315 Z"/>
 <path fill="rgb(131,202,255)" stroke="none" d="M 8836,6256 L 9118,6256 8977,5975 8836,6256 Z"/>
 <path fill="none" stroke="rgb(131,202,255)" stroke-linejoin="round" d="M 8836,6256 L 9118,6256 8977,5975 8836,6256 Z"/>
 <path fill="rgb(131,202,255)" stroke="none" d="M 12079,6256 L 12361,6256 12220,5975 12079,6256 Z"/>
 <path fill="none" stroke="rgb(131,202,255)" stroke-linejoin="round" d="M 12079,6256 L 12361,6256 12220,5975 12079,6256 Z"/>
 <path fill="none" stroke="rgb(49,64,4)" stroke-width="80" stroke-linejoin="round" d="M 5733,9529 L 8977,9542 12220,9542"/>
 <path fill="rgb(49,64,4)" stroke="none" d="M 5592,9388 L 5592,9670 5874,9670 5874,9388 5592,9388 Z"/>
 <path fill="none" stroke="rgb(49,64,4)" stroke-linejoin="round" d="M 5592,9388 L 5592,9670 5874,9670 5874,9388 5592,9388 Z"/>
 <path fill="rgb(49,64,4)" stroke="none" d="M 8836,9401 L 8836,9683 9118,9683 9118,9401 8836,9401 Z"/>
 <path fill="none" stroke="rgb(49,64,4)" stroke-linejoin="round" d="M 8836,9401 L 8836,9683 9118,9683 9118,9401 8836,9401 Z"/>
 <path fill="rgb(49,64,4)" stroke="none" d="M 12079,9401 L 12079,9683 12361,9683 12361,9401 12079,9401 Z"/>
 <path fill="none" stroke="rgb(49,64,4)" stroke-linejoin="round" d="M 12079,9401 L 12079,9683 12361,9683 12361,9401 12079,9401 Z"/>
 <path fill="none" stroke="rgb(174,207,0)" stroke-width="80" stroke-linejoin="round" d="M 5733,8907 L 8977,8904 12220,8904"/>
 <path fill="rgb(174,207,0)" stroke="none" d="M 5592,8766 L 5592,9048 5874,9048 5874,8766 5592,8766 Z"/>
 <path fill="none" stroke="rgb(174,207,0)" stroke-linejoin="round" d="M 5592,8766 L 5592,9048 5874,9048 5874,8766 5592,8766 Z"/>
 <path fill="rgb(174,207,0)" stroke="none" d="M 8836,8763 L 8836,9045 9118,9045 9118,8763 8836,8763 Z"/>
 <path fill="none" stroke="rgb(174,207,0)" stroke-linejoin="round" d="M 8836,8763 L 8836,9045 9118,9045 9118,8763 8836,8763 Z"/>
 <path fill="rgb(174,207,0)" stroke="none" d="M 12079,8763 L 12079,9045 12361,9045 12361,8763 12079,8763 Z"/>
 <path fill="none" stroke="rgb(174,207,0)" stroke-linejoin="round" d="M 12079,8763 L 12079,9045 12361,9045 12361,8763 12079,8763 Z"/>
 <text class="TextShape"><tspan class="TextParagraph" font-family="Arial, sans-serif" font-size="423px" font-weight="400"><tspan class="TextPosition" x="4939" y="10555"><tspan fill="rgb(0,0,0)" stroke="none">no macs</tspan></tspan></tspan></text>
 <text class="TextShape"><tspan class="TextParagraph" font-family="Arial, sans-serif" font-size="423px" font-weight="400"><tspan class="TextPosition" x="7654" y="10555"><tspan fill="rgb(0,0,0)" stroke="none">ignoring macs</tspan></tspan></tspan></text>
 <text class="TextShape"><tspan class="TextParagraph" font-family="Arial, sans-serif" font-size="423px" font-weight="400"><tspan class="TextPosition" x="11281" y="10555"><tspan fill="rgb(0,0,0)" stroke="none">with macs</tspan></tspan></tspan></text>
 <text class="TextShape"><tspan class="TextParagraph" font-family="Arial, sans-serif" font-size="423px" font-weight="400"><tspan class="TextPosition" x="2002" y="10081"><tspan fill="rgb(0,0,0)" stroke="none">0</tspan></tspan></tspan></text>
 <text class="TextShape"><tspan class="TextParagraph" font-family="Arial, sans-serif" font-size="423px" font-weight="400"><tspan class="TextPosition" x="2002" y="8916"><tspan fill="rgb(0,0,0)" stroke="none">5</tspan></tspan></tspan></text>
 <text class="TextShape"><tspan class="TextParagraph" font-family="Arial, sans-serif" font-size="423px" font-weight="400"><tspan class="TextPosition" x="1764" y="7751"><tspan fill="rgb(0,0,0)" stroke="none">10</tspan></tspan></tspan></text>
 <text class="TextShape"><tspan class="TextParagraph" font-family="Arial, sans-serif" font-size="423px" font-weight="400"><tspan class="TextPosition" x="1764" y="6587"><tspan fill="rgb(0,0,0)" stroke="none">15</tspan></tspan></tspan></text>
 <text class="TextShape"><tspan class="TextParagraph" font-family="Arial, sans-serif" font-size="423px" font-weight="400"><tspan class="TextPosition" x="1764" y="5422"><tspan fill="rgb(0,0,0)" stroke="none">20</tspan></tspan></tspan></text>
 <text class="TextShape"><tspan class="TextParagraph" font-family="Arial, sans-serif" font-size="423px" font-weight="400"><tspan class="TextPosition" x="1764" y="4258"><tspan fill="rgb(0,0,0)" stroke="none">25</tspan></tspan></tspan></text>
 <text class="TextShape"><tspan class="TextParagraph" font-family="Arial, sans-serif" font-size="423px" font-weight="400"><tspan class="TextPosition" x="1764" y="3093"><tspan fill="rgb(0,0,0)" stroke="none">30</tspan></tspan></tspan></text>
 <text class="TextShape"><tspan class="TextParagraph" font-family="Arial, sans-serif" font-size="423px" font-weight="400"><tspan class="TextPosition" x="1764" y="1928"><tspan fill="rgb(0,0,0)" stroke="none">35</tspan></tspan></tspan></text>
 <text class="TextShape"><tspan class="TextParagraph" font-family="Arial, sans-serif" font-size="564px" font-weight="400"><tspan class="TextPosition" x="8844" y="1044"><tspan fill="rgb(0,0,0)" stroke="none">Best ratios</tspan></tspan></tspan></text>
 <path fill="none" stroke="rgb(0,69,134)" stroke-width="80" stroke-linejoin="round" d="M 16010,4070 L 16810,4070"/>
 <path fill="rgb(0,69,134)" stroke="none" d="M 16283,3943 L 16283,4197 16537,4197 16537,3943 16283,3943 Z"/>
 <path fill="none" stroke="rgb(0,69,134)" stroke-linejoin="round" d="M 16283,3943 L 16283,4197 16537,4197 16537,3943 16283,3943 Z"/>
 <path fill="none" stroke="rgb(255,66,14)" stroke-width="80" stroke-linejoin="round" d="M 16010,4621 L 16810,4621"/>
 <path fill="rgb(255,66,14)" stroke="none" d="M 16283,4621 L 16410,4748 16537,4621 16410,4494 16283,4621 Z"/>
 <path fill="none" stroke="rgb(255,66,14)" stroke-linejoin="round" d="M 16283,4621 L 16410,4748 16537,4621 16410,4494 16283,4621 Z"/>
 <path fill="none" stroke="rgb(255,211,32)" stroke-width="80" stroke-linejoin="round" d="M 16010,5172 L 16810,5172"/>
 <path fill="rgb(255,211,32)" stroke="none" d="M 16283,5299 L 16537,5299 16410,5045 16283,5299 Z"/>
 <path fill="none" stroke="rgb(255,211,32)" stroke-linejoin="round" d="M 16283,5299 L 16537,5299 16410,5045 16283,5299 Z"/>
 <path fill="none" stroke="rgb(87,157,28)" stroke-width="80" stroke-linejoin="round" d="M 16010,5723 L 16810,5723"/>
 <path fill="rgb(87,157,28)" stroke="none" d="M 16283,5850 L 16537,5850 16410,5596 16283,5850 Z"/>
 <path fill="none" stroke="rgb(87,157,28)" stroke-linejoin="round" d="M 16283,5850 L 16537,5850 16410,5596 16283,5850 Z"/>
 <path fill="none" stroke="rgb(126,0,33)" stroke-width="80" stroke-linejoin="round" d="M 16010,6273 L 16810,6273"/>
 <path fill="rgb(126,0,33)" stroke="none" d="M 16283,6400 L 16537,6400 16410,6146 16283,6400 Z"/>
 <path fill="none" stroke="rgb(126,0,33)" stroke-linejoin="round" d="M 16283,6400 L 16537,6400 16410,6146 16283,6400 Z"/>
 <path fill="none" stroke="rgb(131,202,255)" stroke-width="80" stroke-linejoin="round" d="M 16010,6824 L 16810,6824"/>
 <path fill="rgb(131,202,255)" stroke="none" d="M 16283,6951 L 16537,6951 16410,6697 16283,6951 Z"/>
 <path fill="none" stroke="rgb(131,202,255)" stroke-linejoin="round" d="M 16283,6951 L 16537,6951 16410,6697 16283,6951 Z"/>
 <path fill="none" stroke="rgb(49,64,4)" stroke-width="80" stroke-linejoin="round" d="M 16010,7375 L 16810,7375"/>
 <path fill="rgb(49,64,4)" stroke="none" d="M 16283,7248 L 16283,7502 16537,7502 16537,7248 16283,7248 Z"/>
 <path fill="none" stroke="rgb(49,64,4)" stroke-linejoin="round" d="M 16283,7248 L 16283,7502 16537,7502 16537,7248 16283,7248 Z"/>
 <path fill="none" stroke="rgb(174,207,0)" stroke-width="80" stroke-linejoin="round" d="M 16010,7926 L 16810,7926"/>
 <path fill="rgb(174,207,0)" stroke="none" d="M 16283,7799 L 16283,8053 16537,8053 16537,7799 16283,7799 Z"/>
 <path fill="none" stroke="rgb(174,207,0)" stroke-linejoin="round" d="M 16283,7799 L 16283,8053 16537,8053 16537,7799 16283,7799 Z"/>
 <text class="TextShape"><tspan class="TextParagraph" font-family="Liberation Sans, sans-serif" font-size="423px" font-weight="400"><tspan class="TextPosition" x="16910" y="4215"><tspan fill="rgb(0,0,0)" stroke="none">Primes</tspan></tspan></tspan></text>
 <text class="TextShape"><tspan class="TextParagraph" font-family="Liberation Sans, sans-serif" font-size="423px" font-weight="400"><tspan class="TextPosition" x="16910" y="4766"><tspan fill="rgb(0,0,0)" stroke="none">Dijkstra</tspan></tspan></tspan></text>
 <text class="TextShape"><tspan class="TextParagraph" font-family="Liberation Sans, sans-serif" font-size="423px" font-weight="400"><tspan class="TextPosition" x="16910" y="5317"><tspan fill="rgb(0,0,0)" stroke="none">Dijkstra w.c.</tspan></tspan></tspan></text>
 <text class="TextShape"><tspan class="TextParagraph" font-family="Liberation Sans, sans-serif" font-size="423px" font-weight="400"><tspan class="TextPosition" x="16910" y="5868"><tspan fill="rgb(0,0,0)" stroke="none">Matrix Mult</tspan></tspan></tspan></text>
 <text class="TextShape"><tspan class="TextParagraph" font-family="Liberation Sans, sans-serif" font-size="423px" font-weight="400"><tspan class="TextPosition" x="16910" y="6418"><tspan fill="rgb(0,0,0)" stroke="none">Determinant</tspan></tspan></tspan></text>
 <text class="TextShape"><tspan class="TextParagraph" font-family="Liberation Sans, sans-serif" font-size="423px" font-weight="400"><tspan class="TextPosition" x="16910" y="6969"><tspan fill="rgb(0,0,0)" stroke="none">Determinant w.c.</tspan></tspan></tspan></text>
 <text class="TextShape"><tspan class="TextParagraph" font-family="Liberation Sans, sans-serif" font-size="423px" font-weight="400"><tspan class="TextPosition" x="16910" y="7520"><tspan fill="rgb(0,0,0)" stroke="none">Hanoi</tspan></tspan></tspan></text>
 <text class="TextShape"><tspan class="TextParagraph" font-family="Liberation Sans, sans-serif" font-size="423px" font-weight="400"><tspan class="TextPosition" x="16910" y="8071"><tspan fill="rgb(0,0,0)" stroke="none">Hanoi w.c.</tspan></tspan></tspan></text>
 <text class="TextShape"><tspan class="TextParagraph" font-family="Arial, sans-serif" font-size="423px" font-weight="400"><tspan class="TextPosition" x="7159" y="11374"><tspan fill="rgb(0,0,0)" stroke="none">Different worlds</tspan></tspan></tspan></text>
 <text class="TextShape" transform="translate(1091,6838) rotate(-90) translate(-1091,-6838)"><tspan class="TextParagraph" font-family="Arial, sans-serif" font-size="529px" font-weight="400"><tspan class="TextPosition" x="1091" y="6838"><tspan fill="rgb(0,0,0)" stroke="none">Ratios</tspan></tspan></tspan></text>
</svg>