<?xml version="1.0" encoding="UTF-8"?>
<!DOCTYPE svg PUBLIC "-//W3C//DTD SVG 1.1//EN" "http://www.w3.org/Graphics/SVG/1.1/DTD/svg11.dtd">
<svg width="191mm" height="119mm" viewBox="0 0 19100 11900" version="1.1" xmlns="http://www.w3.org/2000/svg" stroke-width="28.222" stroke-linejoin="round" xml:space="preserve">
 <path fill="rgb(255,255,255)" stroke="none" d="M 9504,11859 L -21,11859 -21,-11 19029,-11 19029,11859 9504,11859 Z"/>
 <path fill="none" stroke="rgb(179,179,179)" stroke-linejoin="round" d="M 8406,9797 L 2676,9797 2676,1772 14136,1772 14136,9797 8406,9797 Z"/>
 <path fill="none" stroke="rgb(179,179,179)" stroke-linejoin="round" d="M 14136,9796 L 2676,9796"/>
 <path fill="none" stroke="rgb(179,179,179)" stroke-linejoin="round" d="M 14136,8458 L 2676,8458"/>
 <path fill="none" stroke="rgb(179,179,179)" stroke-linejoin="round" d="M 14136,7120 L 2676,7120"/>
 <path fill="none" stroke="rgb(179,179,179)" stroke-linejoin="round" d="M 14136,5784 L 2676,5784"/>
 <path fill="none" stroke="rgb(179,179,179)" stroke-linejoin="round" d="M 14136,4446 L 2676,4446"/>
 <path fill="none" stroke="rgb(179,179,179)" stroke-linejoin="round" d="M 14136,3108 L 2676,3108"/>
 <path fill="none" stroke="rgb(179,179,179)" stroke-linejoin="round" d="M 14136,1771 L 2676,1771"/>
 <path fill="none" stroke="rgb(221,221,221)" stroke-linejoin="round" d="M 14136,9127 L 2676,9127"/>
 <path fill="none" stroke="rgb(221,221,221)" stroke-linejoin="round" d="M 14136,7789 L 2676,7789"/>
 <path fill="none" stroke="rgb(221,221,221)" stroke-linejoin="round" d="M 14136,6451 L 2676,6451"/>
 <path fill="none" stroke="rgb(221,221,221)" stroke-linejoin="round" d="M 14136,5115 L 2676,5115"/>
 <path fill="none" stroke="rgb(221,221,221)" stroke-linejoin="round" d="M 14136,3777 L 2676,3777"/>
 <path fill="none" stroke="rgb(221,221,221)" stroke-linejoin="round" d="M 14136,2439 L 2676,2439"/>
 <path fill="none" stroke="rgb(179,179,179)" stroke-linejoin="round" d="M 2676,9946 L 2676,9796"/>
 <path fill="none" stroke="rgb(179,179,179)" stroke-linejoin="round" d="M 3949,9946 L 3949,9796"/>
 <path fill="none" stroke="rgb(179,179,179)" stroke-linejoin="round" d="M 5222,9946 L 5222,9796"/>
 <path fill="none" stroke="rgb(179,179,179)" stroke-linejoin="round" d="M 6496,9946 L 6496,9796"/>
 <path fill="none" stroke="rgb(179,179,179)" stroke-linejoin="round" d="M 7769,9946 L 7769,9796"/>
 <path fill="none" stroke="rgb(179,179,179)" stroke-linejoin="round" d="M 9043,9946 L 9043,9796"/>
 <path fill="none" stroke="rgb(179,179,179)" stroke-linejoin="round" d="M 10315,9946 L 10315,9796"/>
 <path fill="none" stroke="rgb(179,179,179)" stroke-linejoin="round" d="M 11589,9946 L 11589,9796"/>
 <path fill="none" stroke="rgb(179,179,179)" stroke-linejoin="round" d="M 12862,9946 L 12862,9796"/>
 <path fill="none" stroke="rgb(179,179,179)" stroke-linejoin="round" d="M 14136,9946 L 14136,9796"/>
 <path fill="none" stroke="rgb(179,179,179)" stroke-linejoin="round" d="M 2676,9796 L 14136,9796"/>
 <path fill="none" stroke="rgb(179,179,179)" stroke-linejoin="round" d="M 2526,9796 L 2676,9796"/>
 <path fill="none" stroke="rgb(179,179,179)" stroke-linejoin="round" d="M 2526,8458 L 2676,8458"/>
 <path fill="none" stroke="rgb(179,179,179)" stroke-linejoin="round" d="M 2526,7120 L 2676,7120"/>
 <path fill="none" stroke="rgb(179,179,179)" stroke-linejoin="round" d="M 2526,5784 L 2676,5784"/>
 <path fill="none" stroke="rgb(179,179,179)" stroke-linejoin="round" d="M 2526,4446 L 2676,4446"/>
 <path fill="none" stroke="rgb(179,179,179)" stroke-linejoin="round" d="M 2526,3108 L 2676,3108"/>
 <path fill="none" stroke="rgb(179,179,179)" stroke-linejoin="round" d="M 2526,1771 L 2676,1771"/>
 <path fill="none" stroke="rgb(179,179,179)" stroke-linejoin="round" d="M 2676,9796 L 2676,1771"/>
 <path fill="none" stroke="rgb(0,69,134)" stroke-width="80" stroke-linejoin="round" d="M 3949,9315 L 5222,9315 6496,9315 7769,9315 9043,9315 10315,9315 11589,9315 12862,9315"/>
 <path fill="rgb(0,69,134)" stroke="none" d="M 3808,9174 L 3808,9456 4090,9456 4090,9174 3808,9174 Z"/>
 <path fill="none" stroke="rgb(0,69,134)" stroke-linejoin="round" d="M 3808,9174 L 3808,9456 4090,9456 4090,9174 3808,9174 Z"/>
 <path fill="rgb(0,69,134)" stroke="none" d="M 5081,9174 L 5081,9456 5363,9456 5363,9174 5081,9174 Z"/>
 <path fill="none" stroke="rgb(0,69,134)" stroke-linejoin="round" d="M 5081,9174 L 5081,9456 5363,9456 5363,9174 5081,9174 Z"/>
 <path fill="rgb(0,69,134)" stroke="none" d="M 6355,9174 L 6355,9456 6637,9456 6637,9174 6355,9174 Z"/>
 <path fill="none" stroke="rgb(0,69,134)" stroke-linejoin="round" d="M 6355,9174 L 6355,9456 6637,9456 6637,9174 6355,9174 Z"/>
 <path fill="rgb(0,69,134)" stroke="none" d="M 7628,9174 L 7628,9456 7910,9456 7910,9174 7628,9174 Z"/>
 <path fill="none" stroke="rgb(0,69,134)" stroke-linejoin="round" d="M 7628,9174 L 7628,9456 7910,9456 7910,9174 7628,9174 Z"/>
 <path fill="rgb(0,69,134)" stroke="none" d="M 8902,9174 L 8902,9456 9184,9456 9184,9174 8902,9174 Z"/>
 <path fill="none" stroke="rgb(0,69,134)" stroke-linejoin="round" d="M 8902,9174 L 8902,9456 9184,9456 9184,9174 8902,9174 Z"/>
 <path fill="rgb(0,69,134)" stroke="none" d="M 10174,9174 L 10174,9456 10456,9456 10456,9174 10174,9174 Z"/>
 <path fill="none" stroke="rgb(0,69,134)" stroke-linejoin="round" d="M 10174,9174 L 10174,9456 10456,9456 10456,9174 10174,9174 Z"/>
 <path fill="rgb(0,69,134)" stroke="none" d="M 11448,9174 L 11448,9456 11730,9456 11730,9174 11448,9174 Z"/>
 <path fill="none" stroke="rgb(0,69,134)" stroke-linejoin="round" d="M 11448,9174 L 11448,9456 11730,9456 11730,9174 11448,9174 Z"/>
 <path fill="rgb(0,69,134)" stroke="none" d="M 12721,9174 L 12721,9456 13003,9456 13003,9174 12721,9174 Z"/>
 <path fill="none" stroke="rgb(0,69,134)" stroke-linejoin="round" d="M 12721,9174 L 12721,9456 13003,9456 13003,9174 12721,9174 Z"/>
 <path fill="none" stroke="rgb(255,66,14)" stroke-width="80" stroke-linejoin="round" d="M 3949,4684 L 5222,6786 6496,7451 7769,7771 9043,7683 10315,8152 11589,7972 12862,8275"/>
 <path fill="rgb(255,66,14)" stroke="none" d="M 3808,4684 L 3949,4825 4090,4684 3949,4543 3808,4684 Z"/>
 <path fill="none" stroke="rgb(255,66,14)" stroke-linejoin="round" d="M 3808,4684 L 3949,4825 4090,4684 3949,4543 3808,4684 Z"/>
 <path fill="rgb(255,66,14)" stroke="none" d="M 5081,6786 L 5222,6927 5363,6786 5222,6645 5081,6786 Z"/>
 <path fill="none" stroke="rgb(255,66,14)" stroke-linejoin="round" d="M 5081,6786 L 5222,6927 5363,6786 5222,6645 5081,6786 Z"/>
 <path fill="rgb(255,66,14)" stroke="none" d="M 6355,7451 L 6496,7592 6637,7451 6496,7310 6355,7451 Z"/>
 <path fill="none" stroke="rgb(255,66,14)" stroke-linejoin="round" d="M 6355,7451 L 6496,7592 6637,7451 6496,7310 6355,7451 Z"/>
 <path fill="rgb(255,66,14)" stroke="none" d="M 7628,7771 L 7769,7912 7910,7771 7769,7630 7628,7771 Z"/>
 <path fill="none" stroke="rgb(255,66,14)" stroke-linejoin="round" d="M 7628,7771 L 7769,7912 7910,7771 7769,7630 7628,7771 Z"/>
 <path fill="rgb(255,66,14)" stroke="none" d="M 8902,7683 L 9043,7824 9184,7683 9043,7542 8902,7683 Z"/>
 <path fill="none" stroke="rgb(255,66,14)" stroke-linejoin="round" d="M 8902,7683 L 9043,7824 9184,7683 9043,7542 8902,7683 Z"/>
 <path fill="rgb(255,66,14)" stroke="none" d="M 10174,8152 L 10315,8293 10456,8152 10315,8011 10174,8152 Z"/>
 <path fill="none" stroke="rgb(255,66,14)" stroke-linejoin="round" d="M 10174,8152 L 10315,8293 10456,8152 10315,8011 10174,8152 Z"/>
 <path fill="rgb(255,66,14)" stroke="none" d="M 11448,7972 L 11589,8113 11730,7972 11589,7831 11448,7972 Z"/>
 <path fill="none" stroke="rgb(255,66,14)" stroke-linejoin="round" d="M 11448,7972 L 11589,8113 11730,7972 11589,7831 11448,7972 Z"/>
 <path fill="rgb(255,66,14)" stroke="none" d="M 12721,8275 L 12862,8416 13003,8275 12862,8134 12721,8275 Z"/>
 <path fill="none" stroke="rgb(255,66,14)" stroke-linejoin="round" d="M 12721,8275 L 12862,8416 13003,8275 12862,8134 12721,8275 Z"/>
 <path fill="none" stroke="rgb(255,211,32)" stroke-width="80" stroke-linejoin="round" d="M 3949,2318 L 5222,5566 6496,6315 7769,6973 9043,6970 10315,7182 11589,7035 12862,7598"/>
 <path fill="rgb(255,211,32)" stroke="none" d="M 3808,2459 L 4090,2459 3949,2177 3808,2459 Z"/>
 <path fill="none" stroke="rgb(255,211,32)" stroke-linejoin="round" d="M 3808,2459 L 4090,2459 3949,2177 3808,2459 Z"/>
 <path fill="rgb(255,211,32)" stroke="none" d="M 5081,5707 L 5363,5707 5222,5425 5081,5707 Z"/>
 <path fill="none" stroke="rgb(255,211,32)" stroke-linejoin="round" d="M 5081,5707 L 5363,5707 5222,5425 5081,5707 Z"/>
 <path fill="rgb(255,211,32)" stroke="none" d="M 6355,6456 L 6637,6456 6496,6174 6355,6456 Z"/>
 <path fill="none" stroke="rgb(255,211,32)" stroke-linejoin="round" d="M 6355,6456 L 6637,6456 6496,6174 6355,6456 Z"/>
 <path fill="rgb(255,211,32)" stroke="none" d="M 7628,7114 L 7910,7114 7769,6832 7628,7114 Z"/>
 <path fill="none" stroke="rgb(255,211,32)" stroke-linejoin="round" d="M 7628,7114 L 7910,7114 7769,6832 7628,7114 Z"/>
 <path fill="rgb(255,211,32)" stroke="none" d="M 8902,7111 L 9184,7111 9043,6829 8902,7111 Z"/>
 <path fill="none" stroke="rgb(255,211,32)" stroke-linejoin="round" d="M 8902,7111 L 9184,7111 9043,6829 8902,7111 Z"/>
 <path fill="rgb(255,211,32)" stroke="none" d="M 10174,7323 L 10456,7323 10315,7041 10174,7323 Z"/>
 <path fill="none" stroke="rgb(255,211,32)" stroke-linejoin="round" d="M 10174,7323 L 10456,7323 10315,7041 10174,7323 Z"/>
 <path fill="rgb(255,211,32)" stroke="none" d="M 11448,7176 L 11730,7176 11589,6894 11448,7176 Z"/>
 <path fill="none" stroke="rgb(255,211,32)" stroke-linejoin="round" d="M 11448,7176 L 11730,7176 11589,6894 11448,7176 Z"/>
 <path fill="rgb(255,211,32)" stroke="none" d="M 12721,7739 L 13003,7739 12862,7457 12721,7739 Z"/>
 <path fill="none" stroke="rgb(255,211,32)" stroke-linejoin="round" d="M 12721,7739 L 13003,7739 12862,7457 12721,7739 Z"/>
 <path fill="none" stroke="rgb(87,157,28)" stroke-width="80" stroke-linejoin="round" d="M 3949,7232 L 5222,7379 6496,7415 7769,7435 9043,7445 10315,7454 11589,7456 12862,7462"/>
 <path fill="rgb(87,157,28)" stroke="none" d="M 3808,7373 L 4090,7373 3949,7091 3808,7373 Z"/>
 <path fill="none" stroke="rgb(87,157,28)" stroke-linejoin="round" d="M 3808,7373 L 4090,7373 3949,7091 3808,7373 Z"/>
 <path fill="rgb(87,157,28)" stroke="none" d="M 5081,7520 L 5363,7520 5222,7238 5081,7520 Z"/>
 <path fill="none" stroke="rgb(87,157,28)" stroke-linejoin="round" d="M 5081,7520 L 5363,7520 5222,7238 5081,7520 Z"/>
 <path fill="rgb(87,157,28)" stroke="none" d="M 6355,7556 L 6637,7556 6496,7274 6355,7556 Z"/>
 <path fill="none" stroke="rgb(87,157,28)" stroke-linejoin="round" d="M 6355,7556 L 6637,7556 6496,7274 6355,7556 Z"/>
 <path fill="rgb(87,157,28)" stroke="none" d="M 7628,7576 L 7910,7576 7769,7294 7628,7576 Z"/>
 <path fill="none" stroke="rgb(87,157,28)" stroke-linejoin="round" d="M 7628,7576 L 7910,7576 7769,7294 7628,7576 Z"/>
 <path fill="rgb(87,157,28)" stroke="none" d="M 8902,7586 L 9184,7586 9043,7304 8902,7586 Z"/>
 <path fill="none" stroke="rgb(87,157,28)" stroke-linejoin="round" d="M 8902,7586 L 9184,7586 9043,7304 8902,7586 Z"/>
 <path fill="rgb(87,157,28)" stroke="none" d="M 10174,7595 L 10456,7595 10315,7313 10174,7595 Z"/>
 <path fill="none" stroke="rgb(87,157,28)" stroke-linejoin="round" d="M 10174,7595 L 10456,7595 10315,7313 10174,7595 Z"/>
 <path fill="rgb(87,157,28)" stroke="none" d="M 11448,7597 L 11730,7597 11589,7315 11448,7597 Z"/>
 <path fill="none" stroke="rgb(87,157,28)" stroke-linejoin="round" d="M 11448,7597 L 11730,7597 11589,7315 11448,7597 Z"/>
 <path fill="rgb(87,157,28)" stroke="none" d="M 12721,7603 L 13003,7603 12862,7321 12721,7603 Z"/>
 <path fill="none" stroke="rgb(87,157,28)" stroke-linejoin="round" d="M 12721,7603 L 13003,7603 12862,7321 12721,7603 Z"/>
 <path fill="none" stroke="rgb(126,0,33)" stroke-width="80" stroke-linejoin="round" d="M 3949,8472 L 5222,8472 6496,8999 7769,8973 9043,9000 10315,8999 11589,9000 12862,9000"/>
 <path fill="rgb(126,0,33)" stroke="none" d="M 3808,8613 L 4090,8613 3949,8331 3808,8613 Z"/>
 <path fill="none" stroke="rgb(126,0,33)" stroke-linejoin="round" d="M 3808,8613 L 4090,8613 3949,8331 3808,8613 Z"/>
 <path fill="rgb(126,0,33)" stroke="none" d="M 5081,8613 L 5363,8613 5222,8331 5081,8613 Z"/>
 <path fill="none" stroke="rgb(126,0,33)" stroke-linejoin="round" d="M 5081,8613 L 5363,8613 5222,8331 5081,8613 Z"/>
 <path fill="rgb(126,0,33)" stroke="none" d="M 6355,9140 L 6637,9140 6496,8858 6355,9140 Z"/>
 <path fill="none" stroke="rgb(126,0,33)" stroke-linejoin="round" d="M 6355,9140 L 6637,9140 6496,8858 6355,9140 Z"/>
 <path fill="rgb(126,0,33)" stroke="none" d="M 7628,9114 L 7910,9114 7769,8832 7628,9114 Z"/>
 <path fill="none" stroke="rgb(126,0,33)" stroke-linejoin="round" d="M 7628,9114 L 7910,9114 7769,8832 7628,9114 Z"/>
 <path fill="rgb(126,0,33)" stroke="none" d="M 8902,9141 L 9184,9141 9043,8859 8902,9141 Z"/>
 <path fill="none" stroke="rgb(126,0,33)" stroke-linejoin="round" d="M 8902,9141 L 9184,9141 9043,8859 8902,9141 Z"/>
 <path fill="rgb(126,0,33)" stroke="none" d="M 10174,9140 L 10456,9140 10315,8858 10174,9140 Z"/>
 <path fill="none" stroke="rgb(126,0,33)" stroke-linejoin="round" d="M 10174,9140 L 10456,9140 10315,8858 10174,9140 Z"/>
 <path fill="rgb(126,0,33)" stroke="none" d="M 11448,9141 L 11730,9141 11589,8859 11448,9141 Z"/>
 <path fill="none" stroke="rgb(126,0,33)" stroke-linejoin="round" d="M 11448,9141 L 11730,9141 11589,8859 11448,9141 Z"/>
 <path fill="rgb(126,0,33)" stroke="none" d="M 12721,9141 L 13003,9141 12862,8859 12721,9141 Z"/>
 <path fill="none" stroke="rgb(126,0,33)" stroke-linejoin="round" d="M 12721,9141 L 13003,9141 12862,8859 12721,9141 Z"/>
 <path fill="none" stroke="rgb(131,202,255)" stroke-width="80" stroke-linejoin="round" d="M 3949,7654 L 5222,8190 6496,8699 7769,8686 9043,8699 10315,8699 11589,8699 12862,8699"/>
 <path fill="rgb(131,202,255)" stroke="none" d="M 3808,7795 L 4090,7795 3949,7513 3808,7795 Z"/>
 <path fill="none" stroke="rgb(131,202,255)" stroke-linejoin="round" d="M 3808,7795 L 4090,7795 3949,7513 3808,7795 Z"/>
 <path fill="rgb(131,202,255)" stroke="none" d="M 5081,8331 L 5363,8331 5222,8049 5081,8331 Z"/>
 <path fill="none" stroke="rgb(131,202,255)" stroke-linejoin="round" d="M 5081,8331 L 5363,8331 5222,8049 5081,8331 Z"/>
 <path fill="rgb(131,202,255)" stroke="none" d="M 6355,8840 L 6637,8840 6496,8558 6355,8840 Z"/>
 <path fill="none" stroke="rgb(131,202,255)" stroke-linejoin="round" d="M 6355,8840 L 6637,8840 6496,8558 6355,8840 Z"/>
 <path fill="rgb(131,202,255)" stroke="none" d="M 7628,8827 L 7910,8827 7769,8545 7628,8827 Z"/>
 <path fill="none" stroke="rgb(131,202,255)" stroke-linejoin="round" d="M 7628,8827 L 7910,8827 7769,8545 7628,8827 Z"/>
 <path fill="rgb(131,202,255)" stroke="none" d="M 8902,8840 L 9184,8840 9043,8558 8902,8840 Z"/>
 <path fill="none" stroke="rgb(131,202,255)" stroke-linejoin="round" d="M 8902,8840 L 9184,8840 9043,8558 8902,8840 Z"/>
 <path fill="rgb(131,202,255)" stroke="none" d="M 10174,8840 L 10456,8840 10315,8558 10174,8840 Z"/>
 <path fill="none" stroke="rgb(131,202,255)" stroke-linejoin="round" d="M 10174,8840 L 10456,8840 10315,8558 10174,8840 Z"/>
 <path fill="rgb(131,202,255)" stroke="none" d="M 11448,8840 L 11730,8840 11589,8558 11448,8840 Z"/>
 <path fill="none" stroke="rgb(131,202,255)" stroke-linejoin="round" d="M 11448,8840 L 11730,8840 11589,8558 11448,8840 Z"/>
 <path fill="rgb(131,202,255)" stroke="none" d="M 12721,8840 L 13003,8840 12862,8558 12721,8840 Z"/>
 <path fill="none" stroke="rgb(131,202,255)" stroke-linejoin="round" d="M 12721,8840 L 13003,8840 12862,8558 12721,8840 Z"/>
 <path fill="none" stroke="rgb(49,64,4)" stroke-width="80" stroke-linejoin="round" d="M 3949,9683 L 5222,9683 6496,9683 7769,9683 9043,9683 10315,9683 11589,9683 12862,9683"/>
 <path fill="rgb(49,64,4)" stroke="none" d="M 3808,9542 L 3808,9824 4090,9824 4090,9542 3808,9542 Z"/>
 <path fill="none" stroke="rgb(49,64,4)" stroke-linejoin="round" d="M 3808,9542 L 3808,9824 4090,9824 4090,9542 3808,9542 Z"/>
 <path fill="rgb(49,64,4)" stroke="none" d="M 5081,9542 L 5081,9824 5363,9824 5363,9542 5081,9542 Z"/>
 <path fill="none" stroke="rgb(49,64,4)" stroke-linejoin="round" d="M 5081,9542 L 5081,9824 5363,9824 5363,9542 5081,9542 Z"/>
 <path fill="rgb(49,64,4)" stroke="none" d="M 6355,9542 L 6355,9824 6637,9824 6637,9542 6355,9542 Z"/>
 <path fill="none" stroke="rgb(49,64,4)" stroke-linejoin="round" d="M 6355,9542 L 6355,9824 6637,9824 6637,9542 6355,9542 Z"/>
 <path fill="rgb(49,64,4)" stroke="none" d="M 7628,9542 L 7628,9824 7910,9824 7910,9542 7628,9542 Z"/>
 <path fill="none" stroke="rgb(49,64,4)" stroke-linejoin="round" d="M 7628,9542 L 7628,9824 7910,9824 7910,9542 7628,9542 Z"/>
 <path fill="rgb(49,64,4)" stroke="none" d="M 8902,9542 L 8902,9824 9184,9824 9184,9542 8902,9542 Z"/>
 <path fill="none" stroke="rgb(49,64,4)" stroke-linejoin="round" d="M 8902,9542 L 8902,9824 9184,9824 9184,9542 8902,9542 Z"/>
 <path fill="rgb(49,64,4)" stroke="none" d="M 10174,9542 L 10174,9824 10456,9824 10456,9542 10174,9542 Z"/>
 <path fill="none" stroke="rgb(49,64,4)" stroke-linejoin="round" d="M 10174,9542 L 10174,9824 10456,9824 10456,9542 10174,9542 Z"/>
 <path fill="rgb(49,64,4)" stroke="none" d="M 11448,9542 L 11448,9824 11730,9824 11730,9542 11448,9542 Z"/>
 <path fill="none" stroke="rgb(49,64,4)" stroke-linejoin="round" d="M 11448,9542 L 11448,9824 11730,9824 11730,9542 11448,9542 Z"/>
 <path fill="rgb(49,64,4)" stroke="none" d="M 12721,9542 L 12721,9824 13003,9824 13003,9542 12721,9542 Z"/>
 <path fill="none" stroke="rgb(49,64,4)" stroke-linejoin="round" d="M 12721,9542 L 12721,9824 13003,9824 13003,9542 12721,9542 Z"/>
 <path fill="none" stroke="rgb(174,207,0)" stroke-width="80" stroke-linejoin="round" d="M 3949,9498 L 5222,9499 6496,9500 7769,9500 9043,9500 10315,9500 11589,9500 12862,9500"/>
 <path fill="rgb(174,207,0)" stroke="none" d="M 3808,9357 L 3808,9639 4090,9639 4090,9357 3808,9357 Z"/>
 <path fill="none" stroke="rgb(174,207,0)" stroke-linejoin="round" d="M 3808,9357 L 3808,9639 4090,9639 4090,9357 3808,9357 Z"/>
 <path fill="rgb(174,207,0)" stroke="none" d="M 5081,9358 L 5081,9640 5363,9640 5363,9358 5081,9358 Z"/>
 <path fill="none" stroke="rgb(174,207,0)" stroke-linejoin="round" d="M 5081,9358 L 5081,9640 5363,9640 5363,9358 5081,9358 Z"/>
 <path fill="rgb(174,207,0)" stroke="none" d="M 6355,9359 L 6355,9641 6637,9641 6637,9359 6355,9359 Z"/>
 <path fill="none" stroke="rgb(174,207,0)" stroke-linejoin="round" d="M 6355,9359 L 6355,9641 6637,9641 6637,9359 6355,9359 Z"/>
 <path fill="rgb(174,207,0)" stroke="none" d="M 7628,9359 L 7628,9641 7910,9641 7910,9359 7628,9359 Z"/>
 <path fill="none" stroke="rgb(174,207,0)" stroke-linejoin="round" d="M 7628,9359 L 7628,9641 7910,9641 7910,9359 7628,9359 Z"/>
 <path fill="rgb(174,207,0)" stroke="none" d="M 8902,9359 L 8902,9641 9184,9641 9184,9359 8902,9359 Z"/>
 <path fill="none" stroke="rgb(174,207,0)" stroke-linejoin="round" d="M 8902,9359 L 8902,9641 9184,9641 9184,9359 8902,9359 Z"/>
 <path fill="rgb(174,207,0)" stroke="none" d="M 10174,9359 L 10174,9641 10456,9641 10456,9359 10174,9359 Z"/>
 <path fill="none" stroke="rgb(174,207,0)" stroke-linejoin="round" d="M 10174,9359 L 10174,9641 10456,9641 10456,9359 10174,9359 Z"/>
 <path fill="rgb(174,207,0)" stroke="none" d="M 11448,9359 L 11448,9641 11730,9641 11730,9359 11448,9359 Z"/>
 <path fill="none" stroke="rgb(174,207,0)" stroke-linejoin="round" d="M 11448,9359 L 11448,9641 11730,9641 11730,9359 11448,9359 Z"/>
 <path fill="rgb(174,207,0)" stroke="none" d="M 12721,9359 L 12721,9641 13003,9641 13003,9359 12721,9359 Z"/>
 <path fill="none" stroke="rgb(174,207,0)" stroke-linejoin="round" d="M 12721,9359 L 12721,9641 13003,9641 13003,9359 12721,9359 Z"/>
 <text class="TextShape"><tspan class="TextParagraph" font-family="Arial" font-size="423px" font-weight="400"><tspan class="TextPosition" x="3711" y="10416"><tspan fill="rgb(0,0,0)" stroke="none">50</tspan></tspan></tspan></text>
 <text class="TextShape"><tspan class="TextParagraph" font-family="Arial" font-size="423px" font-weight="400"><tspan class="TextPosition" x="4865" y="10416"><tspan fill="rgb(0,0,0)" stroke="none">100</tspan></tspan></tspan></text>
 <text class="TextShape"><tspan class="TextParagraph" font-family="Arial" font-size="423px" font-weight="400"><tspan class="TextPosition" x="6139" y="10416"><tspan fill="rgb(0,0,0)" stroke="none">150</tspan></tspan></tspan></text>
 <text class="TextShape"><tspan class="TextParagraph" font-family="Arial" font-size="423px" font-weight="400"><tspan class="TextPosition" x="7412" y="10416"><tspan fill="rgb(0,0,0)" stroke="none">200</tspan></tspan></tspan></text>
 <text class="TextShape"><tspan class="TextParagraph" font-family="Arial" font-size="423px" font-weight="400"><tspan class="TextPosition" x="8686" y="10416"><tspan fill="rgb(0,0,0)" stroke="none">250</tspan></tspan></tspan></text>
 <text class="TextShape"><tspan class="TextParagraph" font-family="Arial" font-size="423px" font-weight="400"><tspan class="TextPosition" x="9959" y="10416"><tspan fill="rgb(0,0,0)" stroke="none">300</tspan></tspan></tspan></text>
 <text class="TextShape"><tspan class="TextParagraph" font-family="Arial" font-size="423px" font-weight="400"><tspan class="TextPosition" x="11233" y="10416"><tspan fill="rgb(0,0,0)" stroke="none">350</tspan></tspan></tspan></text>
 <text class="TextShape"><tspan class="TextParagraph" font-family="Arial" font-size="423px" font-weight="400"><tspan class="TextPosition" x="12506" y="10416"><tspan fill="rgb(0,0,0)" stroke="none">400</tspan></tspan></tspan></text>
 <text class="TextShape"><tspan class="TextParagraph" font-family="Arial" font-size="423px" font-weight="400"><tspan class="TextPosition" x="2188" y="9942"><tspan fill="rgb(0,0,0)" stroke="none">0</tspan></tspan></tspan></text>
 <text class="TextShape"><tspan class="TextParagraph" font-family="Arial" font-size="423px" font-weight="400"><tspan class="TextPosition" x="1950" y="8604"><tspan fill="rgb(0,0,0)" stroke="none">20</tspan></tspan></tspan></text>
 <text class="TextShape"><tspan class="TextParagraph" font-family="Arial" font-size="423px" font-weight="400"><tspan class="TextPosition" x="1950" y="7266"><tspan fill="rgb(0,0,0)" stroke="none">40</tspan></tspan></tspan></text>
 <text class="TextShape"><tspan class="TextParagraph" font-family="Arial" font-size="423px" font-weight="400"><tspan class="TextPosition" x="1950" y="5929"><tspan fill="rgb(0,0,0)" stroke="none">60</tspan></tspan></tspan></text>
 <text class="TextShape"><tspan class="TextParagraph" font-family="Arial" font-size="423px" font-weight="400"><tspan class="TextPosition" x="1950" y="4591"><tspan fill="rgb(0,0,0)" stroke="none">80</tspan></tspan></tspan></text>
 <text class="TextShape"><tspan class="TextParagraph" font-family="Arial" font-size="423px" font-weight="400"><tspan class="TextPosition" x="1712" y="3253"><tspan fill="rgb(0,0,0)" stroke="none">100</tspan></tspan></tspan></text>
 <text class="TextShape"><tspan class="TextParagraph" font-family="Arial" font-size="423px" font-weight="400"><tspan class="TextPosition" x="1712" y="1916"><tspan fill="rgb(0,0,0)" stroke="none">120</tspan></tspan></tspan></text>
 <text class="TextShape"><tspan class="TextParagraph" font-family="Arial" font-size="564px" font-weight="400"><tspan class="TextPosition" x="7361" y="1034"><tspan fill="rgb(0,0,0)" stroke="none">Blocks with n=64</tspan></tspan></tspan></text>
 <path fill="none" stroke="rgb(0,69,134)" stroke-width="80" stroke-linejoin="round" d="M 14656,3995 L 15456,3995"/>
 <path fill="rgb(0,69,134)" stroke="none" d="M 14929,3868 L 14929,4122 15183,4122 15183,3868 14929,3868 Z"/>
 <path fill="none" stroke="rgb(0,69,134)" stroke-linejoin="round" d="M 14929,3868 L 14929,4122 15183,4122 15183,3868 14929,3868 Z"/>
 <path fill="none" stroke="rgb(255,66,14)" stroke-width="80" stroke-linejoin="round" d="M 14656,4546 L 15456,4546"/>
 <path fill="rgb(255,66,14)" stroke="none" d="M 14929,4546 L 15056,4673 15183,4546 15056,4419 14929,4546 Z"/>
 <path fill="none" stroke="rgb(255,66,14)" stroke-linejoin="round" d="M 14929,4546 L 15056,4673 15183,4546 15056,4419 14929,4546 Z"/>
 <path fill="none" stroke="rgb(255,211,32)" stroke-width="80" stroke-linejoin="round" d="M 14656,5097 L 15456,5097"/>
 <path fill="rgb(255,211,32)" stroke="none" d="M 14929,5224 L 15183,5224 15056,4970 14929,5224 Z"/>
 <path fill="none" stroke="rgb(255,211,32)" stroke-linejoin="round" d="M 14929,5224 L 15183,5224 15056,4970 14929,5224 Z"/>
 <path fill="none" stroke="rgb(87,157,28)" stroke-width="80" stroke-linejoin="round" d="M 14656,5648 L 15456,5648"/>
 <path fill="rgb(87,157,28)" stroke="none" d="M 14929,5775 L 15183,5775 15056,5521 14929,5775 Z"/>
 <path fill="none" stroke="rgb(87,157,28)" stroke-linejoin="round" d="M 14929,5775 L 15183,5775 15056,5521 14929,5775 Z"/>
 <path fill="none" stroke="rgb(126,0,33)" stroke-width="80" stroke-linejoin="round" d="M 14656,6198 L 15456,6198"/>
 <path fill="rgb(126,0,33)" stroke="none" d="M 14929,6325 L 15183,6325 15056,6071 14929,6325 Z"/>
 <path fill="none" stroke="rgb(126,0,33)" stroke-linejoin="round" d="M 14929,6325 L 15183,6325 15056,6071 14929,6325 Z"/>
 <path fill="none" stroke="rgb(131,202,255)" stroke-width="80" stroke-linejoin="round" d="M 14656,6749 L 15456,6749"/>
 <path fill="rgb(131,202,255)" stroke="none" d="M 14929,6876 L 15183,6876 15056,6622 14929,6876 Z"/>
 <path fill="none" stroke="rgb(131,202,255)" stroke-linejoin="round" d="M 14929,6876 L 15183,6876 15056,6622 14929,6876 Z"/>
 <path fill="none" stroke="rgb(49,64,4)" stroke-width="80" stroke-linejoin="round" d="M 14656,7300 L 15456,7300"/>
 <path fill="rgb(49,64,4)" stroke="none" d="M 14929,7173 L 14929,7427 15183,7427 15183,7173 14929,7173 Z"/>
 <path fill="none" stroke="rgb(49,64,4)" stroke-linejoin="round" d="M 14929,7173 L 14929,7427 15183,7427 15183,7173 14929,7173 Z"/>
 <path fill="none" stroke="rgb(174,207,0)" stroke-width="80" stroke-linejoin="round" d="M 14656,7851 L 15456,7851"/>
 <path fill="rgb(174,207,0)" stroke="none" d="M 14929,7724 L 14929,7978 15183,7978 15183,7724 14929,7724 Z"/>
 <path fill="none" stroke="rgb(174,207,0)" stroke-linejoin="round" d="M 14929,7724 L 14929,7978 15183,7978 15183,7724 14929,7724 Z"/>
 <text class="TextShape"><tspan class="TextParagraph" font-family="Liberation Sans" font-size="423px" font-weight="400"><tspan class="TextPosition" x="15556" y="4140"><tspan fill="rgb(0,0,0)" stroke="none">Primes</tspan></tspan></tspan></text>
 <text class="TextShape"><tspan class="TextParagraph" font-family="Liberation Sans" font-size="423px" font-weight="400"><tspan class="TextPosition" x="15556" y="4691"><tspan fill="rgb(0,0,0)" stroke="none">Dijkstra</tspan></tspan></tspan></text>
 <text class="TextShape"><tspan class="TextParagraph" font-family="Liberation Sans" font-size="423px" font-weight="400"><tspan class="TextPosition" x="15556" y="5242"><tspan fill="rgb(0,0,0)" stroke="none">Dijkstra w.c.</tspan></tspan></tspan></text>
 <text class="TextShape"><tspan class="TextParagraph" font-family="Liberation Sans" font-size="423px" font-weight="400"><tspan class="TextPosition" x="15556" y="5793"><tspan fill="rgb(0,0,0)" stroke="none">Matrix Mult</tspan></tspan></tspan></text>
 <text class="TextShape"><tspan class="TextParagraph" font-family="Liberation Sans" font-size="423px" font-weight="400"><tspan class="TextPosition" x="15556" y="6343"><tspan fill="rgb(0,0,0)" stroke="none">Determinant</tspan></tspan></tspan></text>
 <text class="TextShape"><tspan class="TextParagraph" font-family="Liberation Sans" font-size="423px" font-weight="400"><tspan class="TextPosition" x="15556" y="6894"><tspan fill="rgb(0,0,0)" stroke="none">Determinant w.c.</tspan></tspan></tspan></text>
 <text class="TextShape"><tspan class="TextParagraph" font-family="Liberation Sans" font-size="423px" font-weight="400"><tspan class="TextPosition" x="15556" y="7445"><tspan fill="rgb(0,0,0)" stroke="none">Hanoi</tspan></tspan></tspan></text>
 <text class="TextShape"><tspan class="TextParagraph" font-family="Liberation Sans" font-size="423px" font-weight="400"><tspan class="TextPosition" x="15556" y="7996"><tspan fill="rgb(0,0,0)" stroke="none">Hanoi w.c.</tspan></tspan></tspan></text>
 <text class="TextShape"><tspan class="TextParagraph" font-family="Arial" font-size="423px" font-weight="400"><tspan class="TextPosition" x="2645" y="11232"><tspan fill="rgb(0,0,0)" stroke="none">Cache sizes (number of blocks in data/instruction cache)</tspan></tspan></tspan></text>
 <text class="TextShape" transform="translate(1065,6762) rotate(-90) translate(-1065,-6762)"><tspan class="TextParagraph" font-family="Arial" font-size="529px" font-weight="400"><tspan class="TextPosition" x="1065" y="6762"><tspan fill="rgb(0,0,0)" stroke="none">Ratios</tspan></tspan></tspan></text>
</svg>