<?xml version="1.0" encoding="UTF-8"?>
<!DOCTYPE svg PUBLIC "-//W3C//DTD SVG 1.1//EN" "http://www.w3.org/Graphics/SVG/1.1/DTD/svg11.dtd">
<svg width="190mm" height="119mm" viewBox="0 0 19000 11900" version="1.1" xmlns="http://www.w3.org/2000/svg" stroke-width="28.222" stroke-linejoin="round" xml:space="preserve">
 <path fill="rgb(255,255,255)" stroke="none" d="M 9557,11858 L 34,11858 34,-11 19080,-11 19080,11858 9557,11858 Z"/>
 <path fill="none" stroke="rgb(179,179,179)" stroke-linejoin="round" d="M 8459,9796 L 2730,9796 2730,1772 14188,1772 14188,9796 8459,9796 Z"/>
 <path fill="none" stroke="rgb(179,179,179)" stroke-linejoin="round" d="M 14188,9795 L 2730,9795"/>
 <path fill="none" stroke="rgb(179,179,179)" stroke-linejoin="round" d="M 14188,8992 L 2730,8992"/>
 <path fill="none" stroke="rgb(179,179,179)" stroke-linejoin="round" d="M 14188,8190 L 2730,8190"/>
 <path fill="none" stroke="rgb(179,179,179)" stroke-linejoin="round" d="M 14188,7387 L 2730,7387"/>
 <path fill="none" stroke="rgb(179,179,179)" stroke-linejoin="round" d="M 14188,6585 L 2730,6585"/>
 <path fill="none" stroke="rgb(179,179,179)" stroke-linejoin="round" d="M 14188,5783 L 2730,5783"/>
 <path fill="none" stroke="rgb(179,179,179)" stroke-linejoin="round" d="M 14188,4981 L 2730,4981"/>
 <path fill="none" stroke="rgb(179,179,179)" stroke-linejoin="round" d="M 14188,4178 L 2730,4178"/>
 <path fill="none" stroke="rgb(179,179,179)" stroke-linejoin="round" d="M 14188,3376 L 2730,3376"/>
 <path fill="none" stroke="rgb(179,179,179)" stroke-linejoin="round" d="M 14188,2573 L 2730,2573"/>
 <path fill="none" stroke="rgb(179,179,179)" stroke-linejoin="round" d="M 14188,1771 L 2730,1771"/>
 <path fill="none" stroke="rgb(221,221,221)" stroke-linejoin="round" d="M 14188,9393 L 2730,9393"/>
 <path fill="none" stroke="rgb(221,221,221)" stroke-linejoin="round" d="M 14188,8591 L 2730,8591"/>
 <path fill="none" stroke="rgb(221,221,221)" stroke-linejoin="round" d="M 14188,7788 L 2730,7788"/>
 <path fill="none" stroke="rgb(221,221,221)" stroke-linejoin="round" d="M 14188,6986 L 2730,6986"/>
 <path fill="none" stroke="rgb(221,221,221)" stroke-linejoin="round" d="M 14188,6183 L 2730,6183"/>
 <path fill="none" stroke="rgb(221,221,221)" stroke-linejoin="round" d="M 14188,5382 L 2730,5382"/>
 <path fill="none" stroke="rgb(221,221,221)" stroke-linejoin="round" d="M 14188,4579 L 2730,4579"/>
 <path fill="none" stroke="rgb(221,221,221)" stroke-linejoin="round" d="M 14188,3777 L 2730,3777"/>
 <path fill="none" stroke="rgb(221,221,221)" stroke-linejoin="round" d="M 14188,2974 L 2730,2974"/>
 <path fill="none" stroke="rgb(221,221,221)" stroke-linejoin="round" d="M 14188,2172 L 2730,2172"/>
 <path fill="none" stroke="rgb(179,179,179)" stroke-linejoin="round" d="M 2730,9945 L 2730,9795"/>
 <path fill="none" stroke="rgb(179,179,179)" stroke-linejoin="round" d="M 4003,9945 L 4003,9795"/>
 <path fill="none" stroke="rgb(179,179,179)" stroke-linejoin="round" d="M 5276,9945 L 5276,9795"/>
 <path fill="none" stroke="rgb(179,179,179)" stroke-linejoin="round" d="M 6549,9945 L 6549,9795"/>
 <path fill="none" stroke="rgb(179,179,179)" stroke-linejoin="round" d="M 7822,9945 L 7822,9795"/>
 <path fill="none" stroke="rgb(179,179,179)" stroke-linejoin="round" d="M 9096,9945 L 9096,9795"/>
 <path fill="none" stroke="rgb(179,179,179)" stroke-linejoin="round" d="M 10368,9945 L 10368,9795"/>
 <path fill="none" stroke="rgb(179,179,179)" stroke-linejoin="round" d="M 11641,9945 L 11641,9795"/>
 <path fill="none" stroke="rgb(179,179,179)" stroke-linejoin="round" d="M 12914,9945 L 12914,9795"/>
 <path fill="none" stroke="rgb(179,179,179)" stroke-linejoin="round" d="M 14188,9945 L 14188,9795"/>
 <path fill="none" stroke="rgb(179,179,179)" stroke-linejoin="round" d="M 2730,9795 L 14188,9795"/>
 <path fill="none" stroke="rgb(179,179,179)" stroke-linejoin="round" d="M 2580,9795 L 2730,9795"/>
 <path fill="none" stroke="rgb(179,179,179)" stroke-linejoin="round" d="M 2580,8992 L 2730,8992"/>
 <path fill="none" stroke="rgb(179,179,179)" stroke-linejoin="round" d="M 2580,8190 L 2730,8190"/>
 <path fill="none" stroke="rgb(179,179,179)" stroke-linejoin="round" d="M 2580,7387 L 2730,7387"/>
 <path fill="none" stroke="rgb(179,179,179)" stroke-linejoin="round" d="M 2580,6585 L 2730,6585"/>
 <path fill="none" stroke="rgb(179,179,179)" stroke-linejoin="round" d="M 2580,5783 L 2730,5783"/>
 <path fill="none" stroke="rgb(179,179,179)" stroke-linejoin="round" d="M 2580,4981 L 2730,4981"/>
 <path fill="none" stroke="rgb(179,179,179)" stroke-linejoin="round" d="M 2580,4178 L 2730,4178"/>
 <path fill="none" stroke="rgb(179,179,179)" stroke-linejoin="round" d="M 2580,3376 L 2730,3376"/>
 <path fill="none" stroke="rgb(179,179,179)" stroke-linejoin="round" d="M 2580,2573 L 2730,2573"/>
 <path fill="none" stroke="rgb(179,179,179)" stroke-linejoin="round" d="M 2580,1771 L 2730,1771"/>
 <path fill="none" stroke="rgb(179,179,179)" stroke-linejoin="round" d="M 2730,9795 L 2730,1771"/>
 <path fill="none" stroke="rgb(0,69,134)" stroke-width="80" stroke-linejoin="round" d="M 4003,9513 L 5276,9513 6549,9513 7822,9513 9096,9513 10368,9513 11641,9513 12914,9513"/>
 <path fill="rgb(0,69,134)" stroke="none" d="M 3862,9372 L 3862,9654 4144,9654 4144,9372 3862,9372 Z"/>
 <path fill="none" stroke="rgb(0,69,134)" stroke-linejoin="round" d="M 3862,9372 L 3862,9654 4144,9654 4144,9372 3862,9372 Z"/>
 <path fill="rgb(0,69,134)" stroke="none" d="M 5135,9372 L 5135,9654 5417,9654 5417,9372 5135,9372 Z"/>
 <path fill="none" stroke="rgb(0,69,134)" stroke-linejoin="round" d="M 5135,9372 L 5135,9654 5417,9654 5417,9372 5135,9372 Z"/>
 <path fill="rgb(0,69,134)" stroke="none" d="M 6408,9372 L 6408,9654 6690,9654 6690,9372 6408,9372 Z"/>
 <path fill="none" stroke="rgb(0,69,134)" stroke-linejoin="round" d="M 6408,9372 L 6408,9654 6690,9654 6690,9372 6408,9372 Z"/>
 <path fill="rgb(0,69,134)" stroke="none" d="M 7681,9372 L 7681,9654 7963,9654 7963,9372 7681,9372 Z"/>
 <path fill="none" stroke="rgb(0,69,134)" stroke-linejoin="round" d="M 7681,9372 L 7681,9654 7963,9654 7963,9372 7681,9372 Z"/>
 <path fill="rgb(0,69,134)" stroke="none" d="M 8955,9372 L 8955,9654 9237,9654 9237,9372 8955,9372 Z"/>
 <path fill="none" stroke="rgb(0,69,134)" stroke-linejoin="round" d="M 8955,9372 L 8955,9654 9237,9654 9237,9372 8955,9372 Z"/>
 <path fill="rgb(0,69,134)" stroke="none" d="M 10227,9372 L 10227,9654 10509,9654 10509,9372 10227,9372 Z"/>
 <path fill="none" stroke="rgb(0,69,134)" stroke-linejoin="round" d="M 10227,9372 L 10227,9654 10509,9654 10509,9372 10227,9372 Z"/>
 <path fill="rgb(0,69,134)" stroke="none" d="M 11500,9372 L 11500,9654 11782,9654 11782,9372 11500,9372 Z"/>
 <path fill="none" stroke="rgb(0,69,134)" stroke-linejoin="round" d="M 11500,9372 L 11500,9654 11782,9654 11782,9372 11500,9372 Z"/>
 <path fill="rgb(0,69,134)" stroke="none" d="M 12773,9372 L 12773,9654 13055,9654 13055,9372 12773,9372 Z"/>
 <path fill="none" stroke="rgb(0,69,134)" stroke-linejoin="round" d="M 12773,9372 L 12773,9654 13055,9654 13055,9372 12773,9372 Z"/>
 <path fill="none" stroke="rgb(255,66,14)" stroke-width="80" stroke-linejoin="round" d="M 4003,3859 L 5276,6968 6549,8127 7822,8398 9096,8681 10368,8716 11641,8849 12914,8910"/>
 <path fill="rgb(255,66,14)" stroke="none" d="M 3862,3859 L 4003,4000 4144,3859 4003,3718 3862,3859 Z"/>
 <path fill="none" stroke="rgb(255,66,14)" stroke-linejoin="round" d="M 3862,3859 L 4003,4000 4144,3859 4003,3718 3862,3859 Z"/>
 <path fill="rgb(255,66,14)" stroke="none" d="M 5135,6968 L 5276,7109 5417,6968 5276,6827 5135,6968 Z"/>
 <path fill="none" stroke="rgb(255,66,14)" stroke-linejoin="round" d="M 5135,6968 L 5276,7109 5417,6968 5276,6827 5135,6968 Z"/>
 <path fill="rgb(255,66,14)" stroke="none" d="M 6408,8127 L 6549,8268 6690,8127 6549,7986 6408,8127 Z"/>
 <path fill="none" stroke="rgb(255,66,14)" stroke-linejoin="round" d="M 6408,8127 L 6549,8268 6690,8127 6549,7986 6408,8127 Z"/>
 <path fill="rgb(255,66,14)" stroke="none" d="M 7681,8398 L 7822,8539 7963,8398 7822,8257 7681,8398 Z"/>
 <path fill="none" stroke="rgb(255,66,14)" stroke-linejoin="round" d="M 7681,8398 L 7822,8539 7963,8398 7822,8257 7681,8398 Z"/>
 <path fill="rgb(255,66,14)" stroke="none" d="M 8955,8681 L 9096,8822 9237,8681 9096,8540 8955,8681 Z"/>
 <path fill="none" stroke="rgb(255,66,14)" stroke-linejoin="round" d="M 8955,8681 L 9096,8822 9237,8681 9096,8540 8955,8681 Z"/>
 <path fill="rgb(255,66,14)" stroke="none" d="M 10227,8716 L 10368,8857 10509,8716 10368,8575 10227,8716 Z"/>
 <path fill="none" stroke="rgb(255,66,14)" stroke-linejoin="round" d="M 10227,8716 L 10368,8857 10509,8716 10368,8575 10227,8716 Z"/>
 <path fill="rgb(255,66,14)" stroke="none" d="M 11500,8849 L 11641,8990 11782,8849 11641,8708 11500,8849 Z"/>
 <path fill="none" stroke="rgb(255,66,14)" stroke-linejoin="round" d="M 11500,8849 L 11641,8990 11782,8849 11641,8708 11500,8849 Z"/>
 <path fill="rgb(255,66,14)" stroke="none" d="M 12773,8910 L 12914,9051 13055,8910 12914,8769 12773,8910 Z"/>
 <path fill="none" stroke="rgb(255,66,14)" stroke-linejoin="round" d="M 12773,8910 L 12914,9051 13055,8910 12914,8769 12773,8910 Z"/>
 <path fill="none" stroke="rgb(255,211,32)" stroke-width="80" stroke-linejoin="round" d="M 4003,2526 L 5276,5270 6549,7301 7822,7800 9096,8109 10368,8355 11641,8392 12914,8507"/>
 <path fill="rgb(255,211,32)" stroke="none" d="M 3862,2667 L 4144,2667 4003,2385 3862,2667 Z"/>
 <path fill="none" stroke="rgb(255,211,32)" stroke-linejoin="round" d="M 3862,2667 L 4144,2667 4003,2385 3862,2667 Z"/>
 <path fill="rgb(255,211,32)" stroke="none" d="M 5135,5411 L 5417,5411 5276,5129 5135,5411 Z"/>
 <path fill="none" stroke="rgb(255,211,32)" stroke-linejoin="round" d="M 5135,5411 L 5417,5411 5276,5129 5135,5411 Z"/>
 <path fill="rgb(255,211,32)" stroke="none" d="M 6408,7442 L 6690,7442 6549,7160 6408,7442 Z"/>
 <path fill="none" stroke="rgb(255,211,32)" stroke-linejoin="round" d="M 6408,7442 L 6690,7442 6549,7160 6408,7442 Z"/>
 <path fill="rgb(255,211,32)" stroke="none" d="M 7681,7941 L 7963,7941 7822,7659 7681,7941 Z"/>
 <path fill="none" stroke="rgb(255,211,32)" stroke-linejoin="round" d="M 7681,7941 L 7963,7941 7822,7659 7681,7941 Z"/>
 <path fill="rgb(255,211,32)" stroke="none" d="M 8955,8250 L 9237,8250 9096,7968 8955,8250 Z"/>
 <path fill="none" stroke="rgb(255,211,32)" stroke-linejoin="round" d="M 8955,8250 L 9237,8250 9096,7968 8955,8250 Z"/>
 <path fill="rgb(255,211,32)" stroke="none" d="M 10227,8496 L 10509,8496 10368,8214 10227,8496 Z"/>
 <path fill="none" stroke="rgb(255,211,32)" stroke-linejoin="round" d="M 10227,8496 L 10509,8496 10368,8214 10227,8496 Z"/>
 <path fill="rgb(255,211,32)" stroke="none" d="M 11500,8533 L 11782,8533 11641,8251 11500,8533 Z"/>
 <path fill="none" stroke="rgb(255,211,32)" stroke-linejoin="round" d="M 11500,8533 L 11782,8533 11641,8251 11500,8533 Z"/>
 <path fill="rgb(255,211,32)" stroke="none" d="M 12773,8648 L 13055,8648 12914,8366 12773,8648 Z"/>
 <path fill="none" stroke="rgb(255,211,32)" stroke-linejoin="round" d="M 12773,8648 L 13055,8648 12914,8366 12773,8648 Z"/>
 <path fill="none" stroke="rgb(87,157,28)" stroke-width="80" stroke-linejoin="round" d="M 4003,8530 L 5276,8649 6549,8670 7822,8684 9096,8687 10368,8691 11641,8692 12914,8695"/>
 <path fill="rgb(87,157,28)" stroke="none" d="M 3862,8671 L 4144,8671 4003,8389 3862,8671 Z"/>
 <path fill="none" stroke="rgb(87,157,28)" stroke-linejoin="round" d="M 3862,8671 L 4144,8671 4003,8389 3862,8671 Z"/>
 <path fill="rgb(87,157,28)" stroke="none" d="M 5135,8790 L 5417,8790 5276,8508 5135,8790 Z"/>
 <path fill="none" stroke="rgb(87,157,28)" stroke-linejoin="round" d="M 5135,8790 L 5417,8790 5276,8508 5135,8790 Z"/>
 <path fill="rgb(87,157,28)" stroke="none" d="M 6408,8811 L 6690,8811 6549,8529 6408,8811 Z"/>
 <path fill="none" stroke="rgb(87,157,28)" stroke-linejoin="round" d="M 6408,8811 L 6690,8811 6549,8529 6408,8811 Z"/>
 <path fill="rgb(87,157,28)" stroke="none" d="M 7681,8825 L 7963,8825 7822,8543 7681,8825 Z"/>
 <path fill="none" stroke="rgb(87,157,28)" stroke-linejoin="round" d="M 7681,8825 L 7963,8825 7822,8543 7681,8825 Z"/>
 <path fill="rgb(87,157,28)" stroke="none" d="M 8955,8828 L 9237,8828 9096,8546 8955,8828 Z"/>
 <path fill="none" stroke="rgb(87,157,28)" stroke-linejoin="round" d="M 8955,8828 L 9237,8828 9096,8546 8955,8828 Z"/>
 <path fill="rgb(87,157,28)" stroke="none" d="M 10227,8832 L 10509,8832 10368,8550 10227,8832 Z"/>
 <path fill="none" stroke="rgb(87,157,28)" stroke-linejoin="round" d="M 10227,8832 L 10509,8832 10368,8550 10227,8832 Z"/>
 <path fill="rgb(87,157,28)" stroke="none" d="M 11500,8833 L 11782,8833 11641,8551 11500,8833 Z"/>
 <path fill="none" stroke="rgb(87,157,28)" stroke-linejoin="round" d="M 11500,8833 L 11782,8833 11641,8551 11500,8833 Z"/>
 <path fill="rgb(87,157,28)" stroke="none" d="M 12773,8836 L 13055,8836 12914,8554 12773,8836 Z"/>
 <path fill="none" stroke="rgb(87,157,28)" stroke-linejoin="round" d="M 12773,8836 L 13055,8836 12914,8554 12773,8836 Z"/>
 <path fill="none" stroke="rgb(126,0,33)" stroke-width="80" stroke-linejoin="round" d="M 4003,7637 L 5276,9237 6549,9277 7822,9287 9096,9302 10368,9302 11641,9301 12914,9301"/>
 <path fill="rgb(126,0,33)" stroke="none" d="M 3862,7778 L 4144,7778 4003,7496 3862,7778 Z"/>
 <path fill="none" stroke="rgb(126,0,33)" stroke-linejoin="round" d="M 3862,7778 L 4144,7778 4003,7496 3862,7778 Z"/>
 <path fill="rgb(126,0,33)" stroke="none" d="M 5135,9378 L 5417,9378 5276,9096 5135,9378 Z"/>
 <path fill="none" stroke="rgb(126,0,33)" stroke-linejoin="round" d="M 5135,9378 L 5417,9378 5276,9096 5135,9378 Z"/>
 <path fill="rgb(126,0,33)" stroke="none" d="M 6408,9418 L 6690,9418 6549,9136 6408,9418 Z"/>
 <path fill="none" stroke="rgb(126,0,33)" stroke-linejoin="round" d="M 6408,9418 L 6690,9418 6549,9136 6408,9418 Z"/>
 <path fill="rgb(126,0,33)" stroke="none" d="M 7681,9428 L 7963,9428 7822,9146 7681,9428 Z"/>
 <path fill="none" stroke="rgb(126,0,33)" stroke-linejoin="round" d="M 7681,9428 L 7963,9428 7822,9146 7681,9428 Z"/>
 <path fill="rgb(126,0,33)" stroke="none" d="M 8955,9443 L 9237,9443 9096,9161 8955,9443 Z"/>
 <path fill="none" stroke="rgb(126,0,33)" stroke-linejoin="round" d="M 8955,9443 L 9237,9443 9096,9161 8955,9443 Z"/>
 <path fill="rgb(126,0,33)" stroke="none" d="M 10227,9443 L 10509,9443 10368,9161 10227,9443 Z"/>
 <path fill="none" stroke="rgb(126,0,33)" stroke-linejoin="round" d="M 10227,9443 L 10509,9443 10368,9161 10227,9443 Z"/>
 <path fill="rgb(126,0,33)" stroke="none" d="M 11500,9442 L 11782,9442 11641,9160 11500,9442 Z"/>
 <path fill="none" stroke="rgb(126,0,33)" stroke-linejoin="round" d="M 11500,9442 L 11782,9442 11641,9160 11500,9442 Z"/>
 <path fill="rgb(126,0,33)" stroke="none" d="M 12773,9442 L 13055,9442 12914,9160 12773,9442 Z"/>
 <path fill="none" stroke="rgb(126,0,33)" stroke-linejoin="round" d="M 12773,9442 L 13055,9442 12914,9160 12773,9442 Z"/>
 <path fill="none" stroke="rgb(131,202,255)" stroke-width="80" stroke-linejoin="round" d="M 4003,6932 L 5276,8531 6549,9119 7822,9102 9096,9120 10368,9120 11641,9120 12914,9120"/>
 <path fill="rgb(131,202,255)" stroke="none" d="M 3862,7073 L 4144,7073 4003,6791 3862,7073 Z"/>
 <path fill="none" stroke="rgb(131,202,255)" stroke-linejoin="round" d="M 3862,7073 L 4144,7073 4003,6791 3862,7073 Z"/>
 <path fill="rgb(131,202,255)" stroke="none" d="M 5135,8672 L 5417,8672 5276,8390 5135,8672 Z"/>
 <path fill="none" stroke="rgb(131,202,255)" stroke-linejoin="round" d="M 5135,8672 L 5417,8672 5276,8390 5135,8672 Z"/>
 <path fill="rgb(131,202,255)" stroke="none" d="M 6408,9260 L 6690,9260 6549,8978 6408,9260 Z"/>
 <path fill="none" stroke="rgb(131,202,255)" stroke-linejoin="round" d="M 6408,9260 L 6690,9260 6549,8978 6408,9260 Z"/>
 <path fill="rgb(131,202,255)" stroke="none" d="M 7681,9243 L 7963,9243 7822,8961 7681,9243 Z"/>
 <path fill="none" stroke="rgb(131,202,255)" stroke-linejoin="round" d="M 7681,9243 L 7963,9243 7822,8961 7681,9243 Z"/>
 <path fill="rgb(131,202,255)" stroke="none" d="M 8955,9261 L 9237,9261 9096,8979 8955,9261 Z"/>
 <path fill="none" stroke="rgb(131,202,255)" stroke-linejoin="round" d="M 8955,9261 L 9237,9261 9096,8979 8955,9261 Z"/>
 <path fill="rgb(131,202,255)" stroke="none" d="M 10227,9261 L 10509,9261 10368,8979 10227,9261 Z"/>
 <path fill="none" stroke="rgb(131,202,255)" stroke-linejoin="round" d="M 10227,9261 L 10509,9261 10368,8979 10227,9261 Z"/>
 <path fill="rgb(131,202,255)" stroke="none" d="M 11500,9261 L 11782,9261 11641,8979 11500,9261 Z"/>
 <path fill="none" stroke="rgb(131,202,255)" stroke-linejoin="round" d="M 11500,9261 L 11782,9261 11641,8979 11500,9261 Z"/>
 <path fill="rgb(131,202,255)" stroke="none" d="M 12773,9261 L 13055,9261 12914,8979 12773,9261 Z"/>
 <path fill="none" stroke="rgb(131,202,255)" stroke-linejoin="round" d="M 12773,9261 L 13055,9261 12914,8979 12773,9261 Z"/>
 <path fill="none" stroke="rgb(49,64,4)" stroke-width="80" stroke-linejoin="round" d="M 4003,9596 L 5276,9724 6549,9724 7822,9724 9096,9724 10368,9724 11641,9724 12914,9724"/>
 <path fill="rgb(49,64,4)" stroke="none" d="M 3862,9455 L 3862,9737 4144,9737 4144,9455 3862,9455 Z"/>
 <path fill="none" stroke="rgb(49,64,4)" stroke-linejoin="round" d="M 3862,9455 L 3862,9737 4144,9737 4144,9455 3862,9455 Z"/>
 <path fill="rgb(49,64,4)" stroke="none" d="M 5135,9583 L 5135,9865 5417,9865 5417,9583 5135,9583 Z"/>
 <path fill="none" stroke="rgb(49,64,4)" stroke-linejoin="round" d="M 5135,9583 L 5135,9865 5417,9865 5417,9583 5135,9583 Z"/>
 <path fill="rgb(49,64,4)" stroke="none" d="M 6408,9583 L 6408,9865 6690,9865 6690,9583 6408,9583 Z"/>
 <path fill="none" stroke="rgb(49,64,4)" stroke-linejoin="round" d="M 6408,9583 L 6408,9865 6690,9865 6690,9583 6408,9583 Z"/>
 <path fill="rgb(49,64,4)" stroke="none" d="M 7681,9583 L 7681,9865 7963,9865 7963,9583 7681,9583 Z"/>
 <path fill="none" stroke="rgb(49,64,4)" stroke-linejoin="round" d="M 7681,9583 L 7681,9865 7963,9865 7963,9583 7681,9583 Z"/>
 <path fill="rgb(49,64,4)" stroke="none" d="M 8955,9583 L 8955,9865 9237,9865 9237,9583 8955,9583 Z"/>
 <path fill="none" stroke="rgb(49,64,4)" stroke-linejoin="round" d="M 8955,9583 L 8955,9865 9237,9865 9237,9583 8955,9583 Z"/>
 <path fill="rgb(49,64,4)" stroke="none" d="M 10227,9583 L 10227,9865 10509,9865 10509,9583 10227,9583 Z"/>
 <path fill="none" stroke="rgb(49,64,4)" stroke-linejoin="round" d="M 10227,9583 L 10227,9865 10509,9865 10509,9583 10227,9583 Z"/>
 <path fill="rgb(49,64,4)" stroke="none" d="M 11500,9583 L 11500,9865 11782,9865 11782,9583 11500,9583 Z"/>
 <path fill="none" stroke="rgb(49,64,4)" stroke-linejoin="round" d="M 11500,9583 L 11500,9865 11782,9865 11782,9583 11500,9583 Z"/>
 <path fill="rgb(49,64,4)" stroke="none" d="M 12773,9583 L 12773,9865 13055,9865 13055,9583 12773,9583 Z"/>
 <path fill="none" stroke="rgb(49,64,4)" stroke-linejoin="round" d="M 12773,9583 L 12773,9865 13055,9865 13055,9583 12773,9583 Z"/>
 <path fill="none" stroke="rgb(174,207,0)" stroke-width="80" stroke-linejoin="round" d="M 4003,9352 L 5276,9551 6549,9614 7822,9614 9096,9614 10368,9614 11641,9614 12914,9614"/>
 <path fill="rgb(174,207,0)" stroke="none" d="M 3862,9211 L 3862,9493 4144,9493 4144,9211 3862,9211 Z"/>
 <path fill="none" stroke="rgb(174,207,0)" stroke-linejoin="round" d="M 3862,9211 L 3862,9493 4144,9493 4144,9211 3862,9211 Z"/>
 <path fill="rgb(174,207,0)" stroke="none" d="M 5135,9410 L 5135,9692 5417,9692 5417,9410 5135,9410 Z"/>
 <path fill="none" stroke="rgb(174,207,0)" stroke-linejoin="round" d="M 5135,9410 L 5135,9692 5417,9692 5417,9410 5135,9410 Z"/>
 <path fill="rgb(174,207,0)" stroke="none" d="M 6408,9473 L 6408,9755 6690,9755 6690,9473 6408,9473 Z"/>
 <path fill="none" stroke="rgb(174,207,0)" stroke-linejoin="round" d="M 6408,9473 L 6408,9755 6690,9755 6690,9473 6408,9473 Z"/>
 <path fill="rgb(174,207,0)" stroke="none" d="M 7681,9473 L 7681,9755 7963,9755 7963,9473 7681,9473 Z"/>
 <path fill="none" stroke="rgb(174,207,0)" stroke-linejoin="round" d="M 7681,9473 L 7681,9755 7963,9755 7963,9473 7681,9473 Z"/>
 <path fill="rgb(174,207,0)" stroke="none" d="M 8955,9473 L 8955,9755 9237,9755 9237,9473 8955,9473 Z"/>
 <path fill="none" stroke="rgb(174,207,0)" stroke-linejoin="round" d="M 8955,9473 L 8955,9755 9237,9755 9237,9473 8955,9473 Z"/>
 <path fill="rgb(174,207,0)" stroke="none" d="M 10227,9473 L 10227,9755 10509,9755 10509,9473 10227,9473 Z"/>
 <path fill="none" stroke="rgb(174,207,0)" stroke-linejoin="round" d="M 10227,9473 L 10227,9755 10509,9755 10509,9473 10227,9473 Z"/>
 <path fill="rgb(174,207,0)" stroke="none" d="M 11500,9473 L 11500,9755 11782,9755 11782,9473 11500,9473 Z"/>
 <path fill="none" stroke="rgb(174,207,0)" stroke-linejoin="round" d="M 11500,9473 L 11500,9755 11782,9755 11782,9473 11500,9473 Z"/>
 <path fill="rgb(174,207,0)" stroke="none" d="M 12773,9473 L 12773,9755 13055,9755 13055,9473 12773,9473 Z"/>
 <path fill="none" stroke="rgb(174,207,0)" stroke-linejoin="round" d="M 12773,9473 L 12773,9755 13055,9755 13055,9473 12773,9473 Z"/>
 <text class="TextShape"><tspan class="TextParagraph" font-family="Arial, sans-serif" font-size="423px" font-weight="400"><tspan class="TextPosition" x="3765" y="10415"><tspan fill="rgb(0,0,0)" stroke="none">50</tspan></tspan></tspan></text>
 <text class="TextShape"><tspan class="TextParagraph" font-family="Arial, sans-serif" font-size="423px" font-weight="400"><tspan class="TextPosition" x="4919" y="10415"><tspan fill="rgb(0,0,0)" stroke="none">100</tspan></tspan></tspan></text>
 <text class="TextShape"><tspan class="TextParagraph" font-family="Arial, sans-serif" font-size="423px" font-weight="400"><tspan class="TextPosition" x="6192" y="10415"><tspan fill="rgb(0,0,0)" stroke="none">150</tspan></tspan></tspan></text>
 <text class="TextShape"><tspan class="TextParagraph" font-family="Arial, sans-serif" font-size="423px" font-weight="400"><tspan class="TextPosition" x="7465" y="10415"><tspan fill="rgb(0,0,0)" stroke="none">200</tspan></tspan></tspan></text>
 <text class="TextShape"><tspan class="TextParagraph" font-family="Arial, sans-serif" font-size="423px" font-weight="400"><tspan class="TextPosition" x="8739" y="10415"><tspan fill="rgb(0,0,0)" stroke="none">250</tspan></tspan></tspan></text>
 <text class="TextShape"><tspan class="TextParagraph" font-family="Arial, sans-serif" font-size="423px" font-weight="400"><tspan class="TextPosition" x="10012" y="10415"><tspan fill="rgb(0,0,0)" stroke="none">300</tspan></tspan></tspan></text>
 <text class="TextShape"><tspan class="TextParagraph" font-family="Arial, sans-serif" font-size="423px" font-weight="400"><tspan class="TextPosition" x="11285" y="10415"><tspan fill="rgb(0,0,0)" stroke="none">350</tspan></tspan></tspan></text>
 <text class="TextShape"><tspan class="TextParagraph" font-family="Arial, sans-serif" font-size="423px" font-weight="400"><tspan class="TextPosition" x="12558" y="10415"><tspan fill="rgb(0,0,0)" stroke="none">400</tspan></tspan></tspan></text>
 <text class="TextShape"><tspan class="TextParagraph" font-family="Arial, sans-serif" font-size="423px" font-weight="400"><tspan class="TextPosition" x="2242" y="9941"><tspan fill="rgb(0,0,0)" stroke="none">0</tspan></tspan></tspan></text>
 <text class="TextShape"><tspan class="TextParagraph" font-family="Arial, sans-serif" font-size="423px" font-weight="400"><tspan class="TextPosition" x="2004" y="9138"><tspan fill="rgb(0,0,0)" stroke="none">20</tspan></tspan></tspan></text>
 <text class="TextShape"><tspan class="TextParagraph" font-family="Arial, sans-serif" font-size="423px" font-weight="400"><tspan class="TextPosition" x="2004" y="8336"><tspan fill="rgb(0,0,0)" stroke="none">40</tspan></tspan></tspan></text>
 <text class="TextShape"><tspan class="TextParagraph" font-family="Arial, sans-serif" font-size="423px" font-weight="400"><tspan class="TextPosition" x="2004" y="7533"><tspan fill="rgb(0,0,0)" stroke="none">60</tspan></tspan></tspan></text>
 <text class="TextShape"><tspan class="TextParagraph" font-family="Arial, sans-serif" font-size="423px" font-weight="400"><tspan class="TextPosition" x="2004" y="6731"><tspan fill="rgb(0,0,0)" stroke="none">80</tspan></tspan></tspan></text>
 <text class="TextShape"><tspan class="TextParagraph" font-family="Arial, sans-serif" font-size="423px" font-weight="400"><tspan class="TextPosition" x="1766" y="5928"><tspan fill="rgb(0,0,0)" stroke="none">100</tspan></tspan></tspan></text>
 <text class="TextShape"><tspan class="TextParagraph" font-family="Arial, sans-serif" font-size="423px" font-weight="400"><tspan class="TextPosition" x="1766" y="5126"><tspan fill="rgb(0,0,0)" stroke="none">120</tspan></tspan></tspan></text>
 <text class="TextShape"><tspan class="TextParagraph" font-family="Arial, sans-serif" font-size="423px" font-weight="400"><tspan class="TextPosition" x="1766" y="4323"><tspan fill="rgb(0,0,0)" stroke="none">140</tspan></tspan></tspan></text>
 <text class="TextShape"><tspan class="TextParagraph" font-family="Arial, sans-serif" font-size="423px" font-weight="400"><tspan class="TextPosition" x="1766" y="3521"><tspan fill="rgb(0,0,0)" stroke="none">160</tspan></tspan></tspan></text>
 <text class="TextShape"><tspan class="TextParagraph" font-family="Arial, sans-serif" font-size="423px" font-weight="400"><tspan class="TextPosition" x="1766" y="2718"><tspan fill="rgb(0,0,0)" stroke="none">180</tspan></tspan></tspan></text>
 <text class="TextShape"><tspan class="TextParagraph" font-family="Arial, sans-serif" font-size="423px" font-weight="400"><tspan class="TextPosition" x="1766" y="1916"><tspan fill="rgb(0,0,0)" stroke="none">200</tspan></tspan></tspan></text>
 <text class="TextShape"><tspan class="TextParagraph" font-family="Arial, sans-serif" font-size="564px" font-weight="400"><tspan class="TextPosition" x="7414" y="1034"><tspan fill="rgb(0,0,0)" stroke="none">Blocks with n=32</tspan></tspan></tspan></text>
 <path fill="none" stroke="rgb(0,69,134)" stroke-width="80" stroke-linejoin="round" d="M 14707,3995 L 15507,3995"/>
 <path fill="rgb(0,69,134)" stroke="none" d="M 14980,3868 L 14980,4122 15234,4122 15234,3868 14980,3868 Z"/>
 <path fill="none" stroke="rgb(0,69,134)" stroke-linejoin="round" d="M 14980,3868 L 14980,4122 15234,4122 15234,3868 14980,3868 Z"/>
 <path fill="none" stroke="rgb(255,66,14)" stroke-width="80" stroke-linejoin="round" d="M 14707,4546 L 15507,4546"/>
 <path fill="rgb(255,66,14)" stroke="none" d="M 14980,4546 L 15107,4673 15234,4546 15107,4419 14980,4546 Z"/>
 <path fill="none" stroke="rgb(255,66,14)" stroke-linejoin="round" d="M 14980,4546 L 15107,4673 15234,4546 15107,4419 14980,4546 Z"/>
 <path fill="none" stroke="rgb(255,211,32)" stroke-width="80" stroke-linejoin="round" d="M 14707,5097 L 15507,5097"/>
 <path fill="rgb(255,211,32)" stroke="none" d="M 14980,5224 L 15234,5224 15107,4970 14980,5224 Z"/>
 <path fill="none" stroke="rgb(255,211,32)" stroke-linejoin="round" d="M 14980,5224 L 15234,5224 15107,4970 14980,5224 Z"/>
 <path fill="none" stroke="rgb(87,157,28)" stroke-width="80" stroke-linejoin="round" d="M 14707,5648 L 15507,5648"/>
 <path fill="rgb(87,157,28)" stroke="none" d="M 14980,5775 L 15234,5775 15107,5521 14980,5775 Z"/>
 <path fill="none" stroke="rgb(87,157,28)" stroke-linejoin="round" d="M 14980,5775 L 15234,5775 15107,5521 14980,5775 Z"/>
 <path fill="none" stroke="rgb(126,0,33)" stroke-width="80" stroke-linejoin="round" d="M 14707,6198 L 15507,6198"/>
 <path fill="rgb(126,0,33)" stroke="none" d="M 14980,6325 L 15234,6325 15107,6071 14980,6325 Z"/>
 <path fill="none" stroke="rgb(126,0,33)" stroke-linejoin="round" d="M 14980,6325 L 15234,6325 15107,6071 14980,6325 Z"/>
 <path fill="none" stroke="rgb(131,202,255)" stroke-width="80" stroke-linejoin="round" d="M 14707,6749 L 15507,6749"/>
 <path fill="rgb(131,202,255)" stroke="none" d="M 14980,6876 L 15234,6876 15107,6622 14980,6876 Z"/>
 <path fill="none" stroke="rgb(131,202,255)" stroke-linejoin="round" d="M 14980,6876 L 15234,6876 15107,6622 14980,6876 Z"/>
 <path fill="none" stroke="rgb(49,64,4)" stroke-width="80" stroke-linejoin="round" d="M 14707,7300 L 15507,7300"/>
 <path fill="rgb(49,64,4)" stroke="none" d="M 14980,7173 L 14980,7427 15234,7427 15234,7173 14980,7173 Z"/>
 <path fill="none" stroke="rgb(49,64,4)" stroke-linejoin="round" d="M 14980,7173 L 14980,7427 15234,7427 15234,7173 14980,7173 Z"/>
 <path fill="none" stroke="rgb(174,207,0)" stroke-width="80" stroke-linejoin="round" d="M 14707,7851 L 15507,7851"/>
 <path fill="rgb(174,207,0)" stroke="none" d="M 14980,7724 L 14980,7978 15234,7978 15234,7724 14980,7724 Z"/>
 <path fill="none" stroke="rgb(174,207,0)" stroke-linejoin="round" d="M 14980,7724 L 14980,7978 15234,7978 15234,7724 14980,7724 Z"/>
 <text class="TextShape"><tspan class="TextParagraph" font-family="Liberation Sans, sans-serif" font-size="423px" font-weight="400"><tspan class="TextPosition" x="15607" y="4140"><tspan fill="rgb(0,0,0)" stroke="none">Primes</tspan></tspan></tspan></text>
 <text class="TextShape"><tspan class="TextParagraph" font-family="Liberation Sans, sans-serif" font-size="423px" font-weight="400"><tspan class="TextPosition" x="15607" y="4691"><tspan fill="rgb(0,0,0)" stroke="none">Dijkstra</tspan></tspan></tspan></text>
 <text class="TextShape"><tspan class="TextParagraph" font-family="Liberation Sans, sans-serif" font-size="423px" font-weight="400"><tspan class="TextPosition" x="15607" y="5242"><tspan fill="rgb(0,0,0)" stroke="none">Dijkstra w.c.</tspan></tspan></tspan></text>
 <text class="TextShape"><tspan class="TextParagraph" font-family="Liberation Sans, sans-serif" font-size="423px" font-weight="400"><tspan class="TextPosition" x="15607" y="5793"><tspan fill="rgb(0,0,0)" stroke="none">Matrix Mult</tspan></tspan></tspan></text>
 <text class="TextShape"><tspan class="TextParagraph" font-family="Liberation Sans, sans-serif" font-size="423px" font-weight="400"><tspan class="TextPosition" x="15607" y="6343"><tspan fill="rgb(0,0,0)" stroke="none">Determinant</tspan></tspan></tspan></text>
 <text class="TextShape"><tspan class="TextParagraph" font-family="Liberation Sans, sans-serif" font-size="423px" font-weight="400"><tspan class="TextPosition" x="15607" y="6894"><tspan fill="rgb(0,0,0)" stroke="none">Determinant w.c.</tspan></tspan></tspan></text>
 <text class="TextShape"><tspan class="TextParagraph" font-family="Liberation Sans, sans-serif" font-size="423px" font-weight="400"><tspan class="TextPosition" x="15607" y="7445"><tspan fill="rgb(0,0,0)" stroke="none">Hanoi</tspan></tspan></tspan></text>
 <text class="TextShape"><tspan class="TextParagraph" font-family="Liberation Sans, sans-serif" font-size="423px" font-weight="400"><tspan class="TextPosition" x="15607" y="7996"><tspan fill="rgb(0,0,0)" stroke="none">Hanoi w.c.</tspan></tspan></tspan></text>
 <text class="TextShape"><tspan class="TextParagraph" font-family="Arial, sans-serif" font-size="423px" font-weight="400"><tspan class="TextPosition" x="2698" y="11231"><tspan fill="rgb(0,0,0)" stroke="none">Cache sizes (number of blocks in data/instruction cache)</tspan></tspan></tspan></text>
 <text class="TextShape" transform="translate(1120,6761) rotate(-90) translate(-1120,-6761)"><tspan class="TextParagraph" font-family="Arial, sans-serif" font-size="529px" font-weight="400"><tspan class="TextPosition" x="1120" y="6761"><tspan fill="rgb(0,0,0)" stroke="none">Ratios</tspan></tspan></tspan></text>
</svg>