<?xml version="1.0" encoding="UTF-8"?>
<!DOCTYPE svg PUBLIC "-//W3C//DTD SVG 1.1//EN" "http://www.w3.org/Graphics/SVG/1.1/DTD/svg11.dtd">
<svg width="190mm" height="119mm" viewBox="0 0 19000 11900" version="1.1" xmlns="http://www.w3.org/2000/svg" stroke-width="28.222" stroke-linejoin="round" xml:space="preserve">
 <path fill="rgb(255,255,255)" stroke="none" d="M 9537,11866 L 17,11866 17,-4 19057,-4 19057,11866 9537,11866 Z"/>
 <path fill="none" stroke="rgb(179,179,179)" stroke-linejoin="round" d="M 8320,9804 L 2475,9804 2475,1780 14165,1780 14165,9804 8320,9804 Z"/>
 <path fill="none" stroke="rgb(179,179,179)" stroke-linejoin="round" d="M 14165,9803 L 2475,9803"/>
 <path fill="none" stroke="rgb(179,179,179)" stroke-linejoin="round" d="M 14165,8656 L 2475,8656"/>
 <path fill="none" stroke="rgb(179,179,179)" stroke-linejoin="round" d="M 14165,7510 L 2475,7510"/>
 <path fill="none" stroke="rgb(179,179,179)" stroke-linejoin="round" d="M 14165,6363 L 2475,6363"/>
 <path fill="none" stroke="rgb(179,179,179)" stroke-linejoin="round" d="M 14165,5218 L 2475,5218"/>
 <path fill="none" stroke="rgb(179,179,179)" stroke-linejoin="round" d="M 14165,4071 L 2475,4071"/>
 <path fill="none" stroke="rgb(179,179,179)" stroke-linejoin="round" d="M 14165,2925 L 2475,2925"/>
 <path fill="none" stroke="rgb(179,179,179)" stroke-linejoin="round" d="M 14165,1779 L 2475,1779"/>
 <path fill="none" stroke="rgb(221,221,221)" stroke-linejoin="round" d="M 14165,9229 L 2475,9229"/>
 <path fill="none" stroke="rgb(221,221,221)" stroke-linejoin="round" d="M 14165,8083 L 2475,8083"/>
 <path fill="none" stroke="rgb(221,221,221)" stroke-linejoin="round" d="M 14165,6936 L 2475,6936"/>
 <path fill="none" stroke="rgb(221,221,221)" stroke-linejoin="round" d="M 14165,5791 L 2475,5791"/>
 <path fill="none" stroke="rgb(221,221,221)" stroke-linejoin="round" d="M 14165,4645 L 2475,4645"/>
 <path fill="none" stroke="rgb(221,221,221)" stroke-linejoin="round" d="M 14165,3498 L 2475,3498"/>
 <path fill="none" stroke="rgb(221,221,221)" stroke-linejoin="round" d="M 14165,2352 L 2475,2352"/>
 <path fill="none" stroke="rgb(179,179,179)" stroke-linejoin="round" d="M 2475,9953 L 2475,9803"/>
 <path fill="none" stroke="rgb(179,179,179)" stroke-linejoin="round" d="M 5397,9953 L 5397,9803"/>
 <path fill="none" stroke="rgb(179,179,179)" stroke-linejoin="round" d="M 8320,9953 L 8320,9803"/>
 <path fill="none" stroke="rgb(179,179,179)" stroke-linejoin="round" d="M 11242,9953 L 11242,9803"/>
 <path fill="none" stroke="rgb(179,179,179)" stroke-linejoin="round" d="M 14165,9953 L 14165,9803"/>
 <path fill="none" stroke="rgb(179,179,179)" stroke-linejoin="round" d="M 2475,9803 L 14165,9803"/>
 <path fill="none" stroke="rgb(179,179,179)" stroke-linejoin="round" d="M 2325,9803 L 2475,9803"/>
 <path fill="none" stroke="rgb(179,179,179)" stroke-linejoin="round" d="M 2325,8656 L 2475,8656"/>
 <path fill="none" stroke="rgb(179,179,179)" stroke-linejoin="round" d="M 2325,7510 L 2475,7510"/>
 <path fill="none" stroke="rgb(179,179,179)" stroke-linejoin="round" d="M 2325,6363 L 2475,6363"/>
 <path fill="none" stroke="rgb(179,179,179)" stroke-linejoin="round" d="M 2325,5218 L 2475,5218"/>
 <path fill="none" stroke="rgb(179,179,179)" stroke-linejoin="round" d="M 2325,4071 L 2475,4071"/>
 <path fill="none" stroke="rgb(179,179,179)" stroke-linejoin="round" d="M 2325,2925 L 2475,2925"/>
 <path fill="none" stroke="rgb(179,179,179)" stroke-linejoin="round" d="M 2325,1779 L 2475,1779"/>
 <path fill="none" stroke="rgb(179,179,179)" stroke-linejoin="round" d="M 2475,9803 L 2475,1779"/>
 <path fill="none" stroke="rgb(0,69,134)" stroke-width="80" stroke-linejoin="round" d="M 5397,8256 L 8320,8196 11242,8196"/>
 <path fill="rgb(0,69,134)" stroke="none" d="M 5256,8115 L 5256,8397 5538,8397 5538,8115 5256,8115 Z"/>
 <path fill="none" stroke="rgb(0,69,134)" stroke-linejoin="round" d="M 5256,8115 L 5256,8397 5538,8397 5538,8115 5256,8115 Z"/>
 <path fill="rgb(0,69,134)" stroke="none" d="M 8179,8055 L 8179,8337 8461,8337 8461,8055 8179,8055 Z"/>
 <path fill="none" stroke="rgb(0,69,134)" stroke-linejoin="round" d="M 8179,8055 L 8179,8337 8461,8337 8461,8055 8179,8055 Z"/>
 <path fill="rgb(0,69,134)" stroke="none" d="M 11101,8055 L 11101,8337 11383,8337 11383,8055 11101,8055 Z"/>
 <path fill="none" stroke="rgb(0,69,134)" stroke-linejoin="round" d="M 11101,8055 L 11101,8337 11383,8337 11383,8055 11101,8055 Z"/>
 <path fill="none" stroke="rgb(255,66,14)" stroke-width="80" stroke-linejoin="round" d="M 5397,7513 L 8320,7409 11242,4748"/>
 <path fill="rgb(255,66,14)" stroke="none" d="M 5256,7513 L 5397,7654 5538,7513 5397,7372 5256,7513 Z"/>
 <path fill="none" stroke="rgb(255,66,14)" stroke-linejoin="round" d="M 5256,7513 L 5397,7654 5538,7513 5397,7372 5256,7513 Z"/>
 <path fill="rgb(255,66,14)" stroke="none" d="M 8179,7409 L 8320,7550 8461,7409 8320,7268 8179,7409 Z"/>
 <path fill="none" stroke="rgb(255,66,14)" stroke-linejoin="round" d="M 8179,7409 L 8320,7550 8461,7409 8320,7268 8179,7409 Z"/>
 <path fill="rgb(255,66,14)" stroke="none" d="M 11101,4748 L 11242,4889 11383,4748 11242,4607 11101,4748 Z"/>
 <path fill="none" stroke="rgb(255,66,14)" stroke-linejoin="round" d="M 11101,4748 L 11242,4889 11383,4748 11242,4607 11101,4748 Z"/>
 <path fill="none" stroke="rgb(255,211,32)" stroke-width="80" stroke-linejoin="round" d="M 5397,5224 L 8320,5109 11242,2446"/>
 <path fill="rgb(255,211,32)" stroke="none" d="M 5256,5365 L 5538,5365 5397,5083 5256,5365 Z"/>
 <path fill="none" stroke="rgb(255,211,32)" stroke-linejoin="round" d="M 5256,5365 L 5538,5365 5397,5083 5256,5365 Z"/>
 <path fill="rgb(255,211,32)" stroke="none" d="M 8179,5250 L 8461,5250 8320,4968 8179,5250 Z"/>
 <path fill="none" stroke="rgb(255,211,32)" stroke-linejoin="round" d="M 8179,5250 L 8461,5250 8320,4968 8179,5250 Z"/>
 <path fill="rgb(255,211,32)" stroke="none" d="M 11101,2587 L 11383,2587 11242,2305 11101,2587 Z"/>
 <path fill="none" stroke="rgb(255,211,32)" stroke-linejoin="round" d="M 11101,2587 L 11383,2587 11242,2305 11101,2587 Z"/>
 <path fill="none" stroke="rgb(87,157,28)" stroke-width="80" stroke-linejoin="round" d="M 5397,7410 L 8320,7245 11242,3522"/>
 <path fill="rgb(87,157,28)" stroke="none" d="M 5256,7551 L 5538,7551 5397,7269 5256,7551 Z"/>
 <path fill="none" stroke="rgb(87,157,28)" stroke-linejoin="round" d="M 5256,7551 L 5538,7551 5397,7269 5256,7551 Z"/>
 <path fill="rgb(87,157,28)" stroke="none" d="M 8179,7386 L 8461,7386 8320,7104 8179,7386 Z"/>
 <path fill="none" stroke="rgb(87,157,28)" stroke-linejoin="round" d="M 8179,7386 L 8461,7386 8320,7104 8179,7386 Z"/>
 <path fill="rgb(87,157,28)" stroke="none" d="M 11101,3663 L 11383,3663 11242,3381 11101,3663 Z"/>
 <path fill="none" stroke="rgb(87,157,28)" stroke-linejoin="round" d="M 11101,3663 L 11383,3663 11242,3381 11101,3663 Z"/>
 <path fill="none" stroke="rgb(126,0,33)" stroke-width="80" stroke-linejoin="round" d="M 5397,7179 L 8320,7075 11242,7075"/>
 <path fill="rgb(126,0,33)" stroke="none" d="M 5256,7320 L 5538,7320 5397,7038 5256,7320 Z"/>
 <path fill="none" stroke="rgb(126,0,33)" stroke-linejoin="round" d="M 5256,7320 L 5538,7320 5397,7038 5256,7320 Z"/>
 <path fill="rgb(126,0,33)" stroke="none" d="M 8179,7216 L 8461,7216 8320,6934 8179,7216 Z"/>
 <path fill="none" stroke="rgb(126,0,33)" stroke-linejoin="round" d="M 8179,7216 L 8461,7216 8320,6934 8179,7216 Z"/>
 <path fill="rgb(126,0,33)" stroke="none" d="M 11101,7216 L 11383,7216 11242,6934 11101,7216 Z"/>
 <path fill="none" stroke="rgb(126,0,33)" stroke-linejoin="round" d="M 11101,7216 L 11383,7216 11242,6934 11101,7216 Z"/>
 <path fill="none" stroke="rgb(131,202,255)" stroke-width="80" stroke-linejoin="round" d="M 5397,6100 L 8320,6043 11242,6043"/>
 <path fill="rgb(131,202,255)" stroke="none" d="M 5256,6241 L 5538,6241 5397,5959 5256,6241 Z"/>
 <path fill="none" stroke="rgb(131,202,255)" stroke-linejoin="round" d="M 5256,6241 L 5538,6241 5397,5959 5256,6241 Z"/>
 <path fill="rgb(131,202,255)" stroke="none" d="M 8179,6184 L 8461,6184 8320,5903 8179,6184 Z"/>
 <path fill="none" stroke="rgb(131,202,255)" stroke-linejoin="round" d="M 8179,6184 L 8461,6184 8320,5903 8179,6184 Z"/>
 <path fill="rgb(131,202,255)" stroke="none" d="M 11101,6184 L 11383,6184 11242,5903 11101,6184 Z"/>
 <path fill="none" stroke="rgb(131,202,255)" stroke-linejoin="round" d="M 11101,6184 L 11383,6184 11242,5903 11101,6184 Z"/>
 <path fill="none" stroke="rgb(49,64,4)" stroke-width="80" stroke-linejoin="round" d="M 5397,9404 L 8320,9417 11242,9417"/>
 <path fill="rgb(49,64,4)" stroke="none" d="M 5256,9263 L 5256,9545 5538,9545 5538,9263 5256,9263 Z"/>
 <path fill="none" stroke="rgb(49,64,4)" stroke-linejoin="round" d="M 5256,9263 L 5256,9545 5538,9545 5538,9263 5256,9263 Z"/>
 <path fill="rgb(49,64,4)" stroke="none" d="M 8179,9276 L 8179,9558 8461,9558 8461,9276 8179,9276 Z"/>
 <path fill="none" stroke="rgb(49,64,4)" stroke-linejoin="round" d="M 8179,9276 L 8179,9558 8461,9558 8461,9276 8179,9276 Z"/>
 <path fill="rgb(49,64,4)" stroke="none" d="M 11101,9276 L 11101,9558 11383,9558 11383,9276 11101,9276 Z"/>
 <path fill="none" stroke="rgb(49,64,4)" stroke-linejoin="round" d="M 11101,9276 L 11101,9558 11383,9558 11383,9276 11101,9276 Z"/>
 <path fill="none" stroke="rgb(174,207,0)" stroke-width="80" stroke-linejoin="round" d="M 5397,8791 L 8320,8788 11242,8788"/>
 <path fill="rgb(174,207,0)" stroke="none" d="M 5256,8650 L 5256,8932 5538,8932 5538,8650 5256,8650 Z"/>
 <path fill="none" stroke="rgb(174,207,0)" stroke-linejoin="round" d="M 5256,8650 L 5256,8932 5538,8932 5538,8650 5256,8650 Z"/>
 <path fill="rgb(174,207,0)" stroke="none" d="M 8179,8647 L 8179,8929 8461,8929 8461,8647 8179,8647 Z"/>
 <path fill="none" stroke="rgb(174,207,0)" stroke-linejoin="round" d="M 8179,8647 L 8179,8929 8461,8929 8461,8647 8179,8647 Z"/>
 <path fill="rgb(174,207,0)" stroke="none" d="M 11101,8647 L 11101,8929 11383,8929 11383,8647 11101,8647 Z"/>
 <path fill="none" stroke="rgb(174,207,0)" stroke-linejoin="round" d="M 11101,8647 L 11101,8929 11383,8929 11383,8647 11101,8647 Z"/>
 <text class="TextShape"><tspan class="TextParagraph" font-family="Arial" font-size="423px" font-weight="400"><tspan class="TextPosition" x="4603" y="10423"><tspan fill="rgb(0,0,0)" stroke="none">no macs</tspan></tspan></tspan></text>
 <text class="TextShape"><tspan class="TextParagraph" font-family="Arial" font-size="423px" font-weight="400"><tspan class="TextPosition" x="6997" y="10423"><tspan fill="rgb(0,0,0)" stroke="none">ignoring macs</tspan></tspan></tspan></text>
 <text class="TextShape"><tspan class="TextParagraph" font-family="Arial" font-size="423px" font-weight="400"><tspan class="TextPosition" x="10303" y="10423"><tspan fill="rgb(0,0,0)" stroke="none">with macs</tspan></tspan></tspan></text>
 <text class="TextShape"><tspan class="TextParagraph" font-family="Arial" font-size="423px" font-weight="400"><tspan class="TextPosition" x="1987" y="9949"><tspan fill="rgb(0,0,0)" stroke="none">0</tspan></tspan></tspan></text>
 <text class="TextShape"><tspan class="TextParagraph" font-family="Arial" font-size="423px" font-weight="400"><tspan class="TextPosition" x="1987" y="8802"><tspan fill="rgb(0,0,0)" stroke="none">5</tspan></tspan></tspan></text>
 <text class="TextShape"><tspan class="TextParagraph" font-family="Arial" font-size="423px" font-weight="400"><tspan class="TextPosition" x="1749" y="7656"><tspan fill="rgb(0,0,0)" stroke="none">10</tspan></tspan></tspan></text>
 <text class="TextShape"><tspan class="TextParagraph" font-family="Arial" font-size="423px" font-weight="400"><tspan class="TextPosition" x="1749" y="6509"><tspan fill="rgb(0,0,0)" stroke="none">15</tspan></tspan></tspan></text>
 <text class="TextShape"><tspan class="TextParagraph" font-family="Arial" font-size="423px" font-weight="400"><tspan class="TextPosition" x="1749" y="5363"><tspan fill="rgb(0,0,0)" stroke="none">20</tspan></tspan></tspan></text>
 <text class="TextShape"><tspan class="TextParagraph" font-family="Arial" font-size="423px" font-weight="400"><tspan class="TextPosition" x="1749" y="4216"><tspan fill="rgb(0,0,0)" stroke="none">25</tspan></tspan></tspan></text>
 <text class="TextShape"><tspan class="TextParagraph" font-family="Arial" font-size="423px" font-weight="400"><tspan class="TextPosition" x="1749" y="3070"><tspan fill="rgb(0,0,0)" stroke="none">30</tspan></tspan></tspan></text>
 <text class="TextShape"><tspan class="TextParagraph" font-family="Arial" font-size="423px" font-weight="400"><tspan class="TextPosition" x="1749" y="1924"><tspan fill="rgb(0,0,0)" stroke="none">35</tspan></tspan></tspan></text>
 <text class="TextShape"><tspan class="TextParagraph" font-family="Arial" font-size="564px" font-weight="400"><tspan class="TextPosition" x="8187" y="1041"><tspan fill="rgb(0,0,0)" stroke="none">Best ratios</tspan></tspan></tspan></text>
 <path fill="none" stroke="rgb(0,69,134)" stroke-width="80" stroke-linejoin="round" d="M 14684,4002 L 15484,4002"/>
 <path fill="rgb(0,69,134)" stroke="none" d="M 14957,3875 L 14957,4129 15211,4129 15211,3875 14957,3875 Z"/>
 <path fill="none" stroke="rgb(0,69,134)" stroke-linejoin="round" d="M 14957,3875 L 14957,4129 15211,4129 15211,3875 14957,3875 Z"/>
 <path fill="none" stroke="rgb(255,66,14)" stroke-width="80" stroke-linejoin="round" d="M 14684,4553 L 15484,4553"/>
 <path fill="rgb(255,66,14)" stroke="none" d="M 14957,4553 L 15084,4680 15211,4553 15084,4426 14957,4553 Z"/>
 <path fill="none" stroke="rgb(255,66,14)" stroke-linejoin="round" d="M 14957,4553 L 15084,4680 15211,4553 15084,4426 14957,4553 Z"/>
 <path fill="none" stroke="rgb(255,211,32)" stroke-width="80" stroke-linejoin="round" d="M 14684,5104 L 15484,5104"/>
 <path fill="rgb(255,211,32)" stroke="none" d="M 14957,5231 L 15211,5231 15084,4977 14957,5231 Z"/>
 <path fill="none" stroke="rgb(255,211,32)" stroke-linejoin="round" d="M 14957,5231 L 15211,5231 15084,4977 14957,5231 Z"/>
 <path fill="none" stroke="rgb(87,157,28)" stroke-width="80" stroke-linejoin="round" d="M 14684,5655 L 15484,5655"/>
 <path fill="rgb(87,157,28)" stroke="none" d="M 14957,5782 L 15211,5782 15084,5528 14957,5782 Z"/>
 <path fill="none" stroke="rgb(87,157,28)" stroke-linejoin="round" d="M 14957,5782 L 15211,5782 15084,5528 14957,5782 Z"/>
 <path fill="none" stroke="rgb(126,0,33)" stroke-width="80" stroke-linejoin="round" d="M 14684,6205 L 15484,6205"/>
 <path fill="rgb(126,0,33)" stroke="none" d="M 14957,6332 L 15211,6332 15084,6078 14957,6332 Z"/>
 <path fill="none" stroke="rgb(126,0,33)" stroke-linejoin="round" d="M 14957,6332 L 15211,6332 15084,6078 14957,6332 Z"/>
 <path fill="none" stroke="rgb(131,202,255)" stroke-width="80" stroke-linejoin="round" d="M 14684,6756 L 15484,6756"/>
 <path fill="rgb(131,202,255)" stroke="none" d="M 14957,6883 L 15211,6883 15084,6629 14957,6883 Z"/>
 <path fill="none" stroke="rgb(131,202,255)" stroke-linejoin="round" d="M 14957,6883 L 15211,6883 15084,6629 14957,6883 Z"/>
 <path fill="none" stroke="rgb(49,64,4)" stroke-width="80" stroke-linejoin="round" d="M 14684,7307 L 15484,7307"/>
 <path fill="rgb(49,64,4)" stroke="none" d="M 14957,7180 L 14957,7434 15211,7434 15211,7180 14957,7180 Z"/>
 <path fill="none" stroke="rgb(49,64,4)" stroke-linejoin="round" d="M 14957,7180 L 14957,7434 15211,7434 15211,7180 14957,7180 Z"/>
 <path fill="none" stroke="rgb(174,207,0)" stroke-width="80" stroke-linejoin="round" d="M 14684,7858 L 15484,7858"/>
 <path fill="rgb(174,207,0)" stroke="none" d="M 14957,7731 L 14957,7985 15211,7985 15211,7731 14957,7731 Z"/>
 <path fill="none" stroke="rgb(174,207,0)" stroke-linejoin="round" d="M 14957,7731 L 14957,7985 15211,7985 15211,7731 14957,7731 Z"/>
 <text class="TextShape"><tspan class="TextParagraph" font-family="Liberation Sans" font-size="423px" font-weight="400"><tspan class="TextPosition" x="15584" y="4147"><tspan fill="rgb(0,0,0)" stroke="none">Primes</tspan></tspan></tspan></text>
 <text class="TextShape"><tspan class="TextParagraph" font-family="Liberation Sans" font-size="423px" font-weight="400"><tspan class="TextPosition" x="15584" y="4698"><tspan fill="rgb(0,0,0)" stroke="none">Dijkstra</tspan></tspan></tspan></text>
 <text class="TextShape"><tspan class="TextParagraph" font-family="Liberation Sans" font-size="423px" font-weight="400"><tspan class="TextPosition" x="15584" y="5249"><tspan fill="rgb(0,0,0)" stroke="none">Dijkstra w.c.</tspan></tspan></tspan></text>
 <text class="TextShape"><tspan class="TextParagraph" font-family="Liberation Sans" font-size="423px" font-weight="400"><tspan class="TextPosition" x="15584" y="5800"><tspan fill="rgb(0,0,0)" stroke="none">Matrix Mult</tspan></tspan></tspan></text>
 <text class="TextShape"><tspan class="TextParagraph" font-family="Liberation Sans" font-size="423px" font-weight="400"><tspan class="TextPosition" x="15584" y="6350"><tspan fill="rgb(0,0,0)" stroke="none">Determinant</tspan></tspan></tspan></text>
 <text class="TextShape"><tspan class="TextParagraph" font-family="Liberation Sans" font-size="423px" font-weight="400"><tspan class="TextPosition" x="15584" y="6901"><tspan fill="rgb(0,0,0)" stroke="none">Determinant w.c.</tspan></tspan></tspan></text>
 <text class="TextShape"><tspan class="TextParagraph" font-family="Liberation Sans" font-size="423px" font-weight="400"><tspan class="TextPosition" x="15584" y="7452"><tspan fill="rgb(0,0,0)" stroke="none">Hanoi</tspan></tspan></tspan></text>
 <text class="TextShape"><tspan class="TextParagraph" font-family="Liberation Sans" font-size="423px" font-weight="400"><tspan class="TextPosition" x="15584" y="8003"><tspan fill="rgb(0,0,0)" stroke="none">Hanoi w.c.</tspan></tspan></tspan></text>
 <text class="TextShape"><tspan class="TextParagraph" font-family="Arial" font-size="423px" font-weight="400"><tspan class="TextPosition" x="6488" y="11239"><tspan fill="rgb(0,0,0)" stroke="none">Different worlds</tspan></tspan></tspan></text>
 <text class="TextShape" transform="translate(1103,6769) rotate(-90) translate(-1103,-6769)"><tspan class="TextParagraph" font-family="Arial" font-size="529px" font-weight="400"><tspan class="TextPosition" x="1103" y="6769"><tspan fill="rgb(0,0,0)" stroke="none">Ratios</tspan></tspan></tspan></text>
</svg>