<?xml version="1.0" encoding="UTF-8"?>
<!DOCTYPE svg PUBLIC "-//W3C//DTD SVG 1.1//EN" "http://www.w3.org/Graphics/SVG/1.1/DTD/svg11.dtd">
<svg width="190mm" height="119mm" viewBox="0 0 19000 11900" version="1.1" xmlns="http://www.w3.org/2000/svg" stroke-width="28.222" stroke-linejoin="round" xml:space="preserve">
 <path fill="rgb(255,255,255)" stroke="none" d="M 9537,11859 L 17,11859 17,-11 19057,-11 19057,11859 9537,11859 Z"/>
 <path fill="none" stroke="rgb(179,179,179)" stroke-linejoin="round" d="M 8439,9797 L 2713,9797 2713,1773 14165,1773 14165,9797 8439,9797 Z"/>
 <path fill="none" stroke="rgb(179,179,179)" stroke-linejoin="round" d="M 14165,9796 L 2713,9796"/>
 <path fill="none" stroke="rgb(179,179,179)" stroke-linejoin="round" d="M 14165,8458 L 2713,8458"/>
 <path fill="none" stroke="rgb(179,179,179)" stroke-linejoin="round" d="M 14165,7121 L 2713,7121"/>
 <path fill="none" stroke="rgb(179,179,179)" stroke-linejoin="round" d="M 14165,5784 L 2713,5784"/>
 <path fill="none" stroke="rgb(179,179,179)" stroke-linejoin="round" d="M 14165,4447 L 2713,4447"/>
 <path fill="none" stroke="rgb(179,179,179)" stroke-linejoin="round" d="M 14165,3109 L 2713,3109"/>
 <path fill="none" stroke="rgb(179,179,179)" stroke-linejoin="round" d="M 14165,1772 L 2713,1772"/>
 <path fill="none" stroke="rgb(221,221,221)" stroke-linejoin="round" d="M 14165,9127 L 2713,9127"/>
 <path fill="none" stroke="rgb(221,221,221)" stroke-linejoin="round" d="M 14165,7789 L 2713,7789"/>
 <path fill="none" stroke="rgb(221,221,221)" stroke-linejoin="round" d="M 14165,6452 L 2713,6452"/>
 <path fill="none" stroke="rgb(221,221,221)" stroke-linejoin="round" d="M 14165,5115 L 2713,5115"/>
 <path fill="none" stroke="rgb(221,221,221)" stroke-linejoin="round" d="M 14165,3778 L 2713,3778"/>
 <path fill="none" stroke="rgb(221,221,221)" stroke-linejoin="round" d="M 14165,2440 L 2713,2440"/>
 <path fill="none" stroke="rgb(179,179,179)" stroke-linejoin="round" d="M 2713,9946 L 2713,9796"/>
 <path fill="none" stroke="rgb(179,179,179)" stroke-linejoin="round" d="M 3985,9946 L 3985,9796"/>
 <path fill="none" stroke="rgb(179,179,179)" stroke-linejoin="round" d="M 5258,9946 L 5258,9796"/>
 <path fill="none" stroke="rgb(179,179,179)" stroke-linejoin="round" d="M 6530,9946 L 6530,9796"/>
 <path fill="none" stroke="rgb(179,179,179)" stroke-linejoin="round" d="M 7803,9946 L 7803,9796"/>
 <path fill="none" stroke="rgb(179,179,179)" stroke-linejoin="round" d="M 9075,9946 L 9075,9796"/>
 <path fill="none" stroke="rgb(179,179,179)" stroke-linejoin="round" d="M 10347,9946 L 10347,9796"/>
 <path fill="none" stroke="rgb(179,179,179)" stroke-linejoin="round" d="M 11619,9946 L 11619,9796"/>
 <path fill="none" stroke="rgb(179,179,179)" stroke-linejoin="round" d="M 12892,9946 L 12892,9796"/>
 <path fill="none" stroke="rgb(179,179,179)" stroke-linejoin="round" d="M 14165,9946 L 14165,9796"/>
 <path fill="none" stroke="rgb(179,179,179)" stroke-linejoin="round" d="M 2713,9796 L 14165,9796"/>
 <path fill="none" stroke="rgb(179,179,179)" stroke-linejoin="round" d="M 2563,9796 L 2713,9796"/>
 <path fill="none" stroke="rgb(179,179,179)" stroke-linejoin="round" d="M 2563,8458 L 2713,8458"/>
 <path fill="none" stroke="rgb(179,179,179)" stroke-linejoin="round" d="M 2563,7121 L 2713,7121"/>
 <path fill="none" stroke="rgb(179,179,179)" stroke-linejoin="round" d="M 2563,5784 L 2713,5784"/>
 <path fill="none" stroke="rgb(179,179,179)" stroke-linejoin="round" d="M 2563,4446 L 2713,4446"/>
 <path fill="none" stroke="rgb(179,179,179)" stroke-linejoin="round" d="M 2563,3109 L 2713,3109"/>
 <path fill="none" stroke="rgb(179,179,179)" stroke-linejoin="round" d="M 2563,1772 L 2713,1772"/>
 <path fill="none" stroke="rgb(179,179,179)" stroke-linejoin="round" d="M 2713,9796 L 2713,1772"/>
 <path fill="none" stroke="rgb(0,69,134)" stroke-width="80" stroke-linejoin="round" d="M 3985,9600 L 5258,9600 6530,9600 7803,9600 9075,9600 10347,9600 11619,9600 12892,9600"/>
 <path fill="rgb(0,69,134)" stroke="none" d="M 3844,9459 L 3844,9741 4126,9741 4126,9459 3844,9459 Z"/>
 <path fill="none" stroke="rgb(0,69,134)" stroke-linejoin="round" d="M 3844,9459 L 3844,9741 4126,9741 4126,9459 3844,9459 Z"/>
 <path fill="rgb(0,69,134)" stroke="none" d="M 5117,9459 L 5117,9741 5399,9741 5399,9459 5117,9459 Z"/>
 <path fill="none" stroke="rgb(0,69,134)" stroke-linejoin="round" d="M 5117,9459 L 5117,9741 5399,9741 5399,9459 5117,9459 Z"/>
 <path fill="rgb(0,69,134)" stroke="none" d="M 6389,9459 L 6389,9741 6671,9741 6671,9459 6389,9459 Z"/>
 <path fill="none" stroke="rgb(0,69,134)" stroke-linejoin="round" d="M 6389,9459 L 6389,9741 6671,9741 6671,9459 6389,9459 Z"/>
 <path fill="rgb(0,69,134)" stroke="none" d="M 7662,9459 L 7662,9741 7944,9741 7944,9459 7662,9459 Z"/>
 <path fill="none" stroke="rgb(0,69,134)" stroke-linejoin="round" d="M 7662,9459 L 7662,9741 7944,9741 7944,9459 7662,9459 Z"/>
 <path fill="rgb(0,69,134)" stroke="none" d="M 8934,9459 L 8934,9741 9216,9741 9216,9459 8934,9459 Z"/>
 <path fill="none" stroke="rgb(0,69,134)" stroke-linejoin="round" d="M 8934,9459 L 8934,9741 9216,9741 9216,9459 8934,9459 Z"/>
 <path fill="rgb(0,69,134)" stroke="none" d="M 10206,9459 L 10206,9741 10488,9741 10488,9459 10206,9459 Z"/>
 <path fill="none" stroke="rgb(0,69,134)" stroke-linejoin="round" d="M 10206,9459 L 10206,9741 10488,9741 10488,9459 10206,9459 Z"/>
 <path fill="rgb(0,69,134)" stroke="none" d="M 11478,9459 L 11478,9741 11760,9741 11760,9459 11478,9459 Z"/>
 <path fill="none" stroke="rgb(0,69,134)" stroke-linejoin="round" d="M 11478,9459 L 11478,9741 11760,9741 11760,9459 11478,9459 Z"/>
 <path fill="rgb(0,69,134)" stroke="none" d="M 12751,9459 L 12751,9741 13033,9741 13033,9459 12751,9459 Z"/>
 <path fill="none" stroke="rgb(0,69,134)" stroke-linejoin="round" d="M 12751,9459 L 12751,9741 13033,9741 13033,9459 12751,9459 Z"/>
 <path fill="none" stroke="rgb(255,66,14)" stroke-width="80" stroke-linejoin="round" d="M 3985,3787 L 5258,4262 6530,6476 7803,7238 9075,7916 10347,8238 11619,8209 12892,8831"/>
 <path fill="rgb(255,66,14)" stroke="none" d="M 3844,3787 L 3985,3928 4126,3787 3985,3646 3844,3787 Z"/>
 <path fill="none" stroke="rgb(255,66,14)" stroke-linejoin="round" d="M 3844,3787 L 3985,3928 4126,3787 3985,3646 3844,3787 Z"/>
 <path fill="rgb(255,66,14)" stroke="none" d="M 5117,4262 L 5258,4403 5399,4262 5258,4121 5117,4262 Z"/>
 <path fill="none" stroke="rgb(255,66,14)" stroke-linejoin="round" d="M 5117,4262 L 5258,4403 5399,4262 5258,4121 5117,4262 Z"/>
 <path fill="rgb(255,66,14)" stroke="none" d="M 6389,6476 L 6530,6617 6671,6476 6530,6335 6389,6476 Z"/>
 <path fill="none" stroke="rgb(255,66,14)" stroke-linejoin="round" d="M 6389,6476 L 6530,6617 6671,6476 6530,6335 6389,6476 Z"/>
 <path fill="rgb(255,66,14)" stroke="none" d="M 7662,7238 L 7803,7379 7944,7238 7803,7097 7662,7238 Z"/>
 <path fill="none" stroke="rgb(255,66,14)" stroke-linejoin="round" d="M 7662,7238 L 7803,7379 7944,7238 7803,7097 7662,7238 Z"/>
 <path fill="rgb(255,66,14)" stroke="none" d="M 8934,7916 L 9075,8057 9216,7916 9075,7775 8934,7916 Z"/>
 <path fill="none" stroke="rgb(255,66,14)" stroke-linejoin="round" d="M 8934,7916 L 9075,8057 9216,7916 9075,7775 8934,7916 Z"/>
 <path fill="rgb(255,66,14)" stroke="none" d="M 10206,8238 L 10347,8379 10488,8238 10347,8097 10206,8238 Z"/>
 <path fill="none" stroke="rgb(255,66,14)" stroke-linejoin="round" d="M 10206,8238 L 10347,8379 10488,8238 10347,8097 10206,8238 Z"/>
 <path fill="rgb(255,66,14)" stroke="none" d="M 11478,8209 L 11619,8350 11760,8209 11619,8068 11478,8209 Z"/>
 <path fill="none" stroke="rgb(255,66,14)" stroke-linejoin="round" d="M 11478,8209 L 11619,8350 11760,8209 11619,8068 11478,8209 Z"/>
 <path fill="rgb(255,66,14)" stroke="none" d="M 12751,8831 L 12892,8972 13033,8831 12892,8690 12751,8831 Z"/>
 <path fill="none" stroke="rgb(255,66,14)" stroke-linejoin="round" d="M 12751,8831 L 12892,8972 13033,8831 12892,8690 12751,8831 Z"/>
 <path fill="none" stroke="rgb(255,211,32)" stroke-width="80" stroke-linejoin="round" d="M 3985,2761 L 5258,3182 6530,5049 7803,5920 9075,7169 10347,7531 11619,7963 12892,8156"/>
 <path fill="rgb(255,211,32)" stroke="none" d="M 3844,2902 L 4126,2902 3985,2620 3844,2902 Z"/>
 <path fill="none" stroke="rgb(255,211,32)" stroke-linejoin="round" d="M 3844,2902 L 4126,2902 3985,2620 3844,2902 Z"/>
 <path fill="rgb(255,211,32)" stroke="none" d="M 5117,3323 L 5399,3323 5258,3041 5117,3323 Z"/>
 <path fill="none" stroke="rgb(255,211,32)" stroke-linejoin="round" d="M 5117,3323 L 5399,3323 5258,3041 5117,3323 Z"/>
 <path fill="rgb(255,211,32)" stroke="none" d="M 6389,5190 L 6671,5190 6530,4908 6389,5190 Z"/>
 <path fill="none" stroke="rgb(255,211,32)" stroke-linejoin="round" d="M 6389,5190 L 6671,5190 6530,4908 6389,5190 Z"/>
 <path fill="rgb(255,211,32)" stroke="none" d="M 7662,6060 L 7944,6060 7803,5779 7662,6060 Z"/>
 <path fill="none" stroke="rgb(255,211,32)" stroke-linejoin="round" d="M 7662,6060 L 7944,6060 7803,5779 7662,6060 Z"/>
 <path fill="rgb(255,211,32)" stroke="none" d="M 8934,7310 L 9216,7310 9075,7028 8934,7310 Z"/>
 <path fill="none" stroke="rgb(255,211,32)" stroke-linejoin="round" d="M 8934,7310 L 9216,7310 9075,7028 8934,7310 Z"/>
 <path fill="rgb(255,211,32)" stroke="none" d="M 10206,7672 L 10488,7672 10347,7390 10206,7672 Z"/>
 <path fill="none" stroke="rgb(255,211,32)" stroke-linejoin="round" d="M 10206,7672 L 10488,7672 10347,7390 10206,7672 Z"/>
 <path fill="rgb(255,211,32)" stroke="none" d="M 11478,8104 L 11760,8104 11619,7822 11478,8104 Z"/>
 <path fill="none" stroke="rgb(255,211,32)" stroke-linejoin="round" d="M 11478,8104 L 11760,8104 11619,7822 11478,8104 Z"/>
 <path fill="rgb(255,211,32)" stroke="none" d="M 12751,8297 L 13033,8297 12892,8015 12751,8297 Z"/>
 <path fill="none" stroke="rgb(255,211,32)" stroke-linejoin="round" d="M 12751,8297 L 13033,8297 12892,8015 12751,8297 Z"/>
 <path fill="none" stroke="rgb(87,157,28)" stroke-width="80" stroke-linejoin="round" d="M 3985,8930 L 5258,8961 6530,8990 7803,9052 9075,9055 10347,9060 11619,9061 12892,9056"/>
 <path fill="rgb(87,157,28)" stroke="none" d="M 3844,9071 L 4126,9071 3985,8789 3844,9071 Z"/>
 <path fill="none" stroke="rgb(87,157,28)" stroke-linejoin="round" d="M 3844,9071 L 4126,9071 3985,8789 3844,9071 Z"/>
 <path fill="rgb(87,157,28)" stroke="none" d="M 5117,9102 L 5399,9102 5258,8820 5117,9102 Z"/>
 <path fill="none" stroke="rgb(87,157,28)" stroke-linejoin="round" d="M 5117,9102 L 5399,9102 5258,8820 5117,9102 Z"/>
 <path fill="rgb(87,157,28)" stroke="none" d="M 6389,9131 L 6671,9131 6530,8849 6389,9131 Z"/>
 <path fill="none" stroke="rgb(87,157,28)" stroke-linejoin="round" d="M 6389,9131 L 6671,9131 6530,8849 6389,9131 Z"/>
 <path fill="rgb(87,157,28)" stroke="none" d="M 7662,9193 L 7944,9193 7803,8911 7662,9193 Z"/>
 <path fill="none" stroke="rgb(87,157,28)" stroke-linejoin="round" d="M 7662,9193 L 7944,9193 7803,8911 7662,9193 Z"/>
 <path fill="rgb(87,157,28)" stroke="none" d="M 8934,9196 L 9216,9196 9075,8914 8934,9196 Z"/>
 <path fill="none" stroke="rgb(87,157,28)" stroke-linejoin="round" d="M 8934,9196 L 9216,9196 9075,8914 8934,9196 Z"/>
 <path fill="rgb(87,157,28)" stroke="none" d="M 10206,9201 L 10488,9201 10347,8919 10206,9201 Z"/>
 <path fill="none" stroke="rgb(87,157,28)" stroke-linejoin="round" d="M 10206,9201 L 10488,9201 10347,8919 10206,9201 Z"/>
 <path fill="rgb(87,157,28)" stroke="none" d="M 11478,9202 L 11760,9202 11619,8920 11478,9202 Z"/>
 <path fill="none" stroke="rgb(87,157,28)" stroke-linejoin="round" d="M 11478,9202 L 11760,9202 11619,8920 11478,9202 Z"/>
 <path fill="rgb(87,157,28)" stroke="none" d="M 12751,9197 L 13033,9197 12892,8915 12751,9197 Z"/>
 <path fill="none" stroke="rgb(87,157,28)" stroke-linejoin="round" d="M 12751,9197 L 13033,9197 12892,8915 12751,9197 Z"/>
 <path fill="none" stroke="rgb(126,0,33)" stroke-width="80" stroke-linejoin="round" d="M 3985,6532 L 5258,7664 6530,8524 7803,9391 9075,9403 10347,9416 11619,9329 12892,9416"/>
 <path fill="rgb(126,0,33)" stroke="none" d="M 3844,6673 L 4126,6673 3985,6391 3844,6673 Z"/>
 <path fill="none" stroke="rgb(126,0,33)" stroke-linejoin="round" d="M 3844,6673 L 4126,6673 3985,6391 3844,6673 Z"/>
 <path fill="rgb(126,0,33)" stroke="none" d="M 5117,7805 L 5399,7805 5258,7523 5117,7805 Z"/>
 <path fill="none" stroke="rgb(126,0,33)" stroke-linejoin="round" d="M 5117,7805 L 5399,7805 5258,7523 5117,7805 Z"/>
 <path fill="rgb(126,0,33)" stroke="none" d="M 6389,8665 L 6671,8665 6530,8383 6389,8665 Z"/>
 <path fill="none" stroke="rgb(126,0,33)" stroke-linejoin="round" d="M 6389,8665 L 6671,8665 6530,8383 6389,8665 Z"/>
 <path fill="rgb(126,0,33)" stroke="none" d="M 7662,9532 L 7944,9532 7803,9250 7662,9532 Z"/>
 <path fill="none" stroke="rgb(126,0,33)" stroke-linejoin="round" d="M 7662,9532 L 7944,9532 7803,9250 7662,9532 Z"/>
 <path fill="rgb(126,0,33)" stroke="none" d="M 8934,9544 L 9216,9544 9075,9262 8934,9544 Z"/>
 <path fill="none" stroke="rgb(126,0,33)" stroke-linejoin="round" d="M 8934,9544 L 9216,9544 9075,9262 8934,9544 Z"/>
 <path fill="rgb(126,0,33)" stroke="none" d="M 10206,9557 L 10488,9557 10347,9275 10206,9557 Z"/>
 <path fill="none" stroke="rgb(126,0,33)" stroke-linejoin="round" d="M 10206,9557 L 10488,9557 10347,9275 10206,9557 Z"/>
 <path fill="rgb(126,0,33)" stroke="none" d="M 11478,9470 L 11760,9470 11619,9188 11478,9470 Z"/>
 <path fill="none" stroke="rgb(126,0,33)" stroke-linejoin="round" d="M 11478,9470 L 11760,9470 11619,9188 11478,9470 Z"/>
 <path fill="rgb(126,0,33)" stroke="none" d="M 12751,9557 L 13033,9557 12892,9275 12751,9557 Z"/>
 <path fill="none" stroke="rgb(126,0,33)" stroke-linejoin="round" d="M 12751,9557 L 13033,9557 12892,9275 12751,9557 Z"/>
 <path fill="none" stroke="rgb(131,202,255)" stroke-width="80" stroke-linejoin="round" d="M 3985,5880 L 5258,7053 6530,7810 7803,8684 9075,9286 10347,8804 11619,9212 12892,9288"/>
 <path fill="rgb(131,202,255)" stroke="none" d="M 3844,6020 L 4126,6020 3985,5739 3844,6020 Z"/>
 <path fill="none" stroke="rgb(131,202,255)" stroke-linejoin="round" d="M 3844,6020 L 4126,6020 3985,5739 3844,6020 Z"/>
 <path fill="rgb(131,202,255)" stroke="none" d="M 5117,7194 L 5399,7194 5258,6912 5117,7194 Z"/>
 <path fill="none" stroke="rgb(131,202,255)" stroke-linejoin="round" d="M 5117,7194 L 5399,7194 5258,6912 5117,7194 Z"/>
 <path fill="rgb(131,202,255)" stroke="none" d="M 6389,7951 L 6671,7951 6530,7669 6389,7951 Z"/>
 <path fill="none" stroke="rgb(131,202,255)" stroke-linejoin="round" d="M 6389,7951 L 6671,7951 6530,7669 6389,7951 Z"/>
 <path fill="rgb(131,202,255)" stroke="none" d="M 7662,8825 L 7944,8825 7803,8543 7662,8825 Z"/>
 <path fill="none" stroke="rgb(131,202,255)" stroke-linejoin="round" d="M 7662,8825 L 7944,8825 7803,8543 7662,8825 Z"/>
 <path fill="rgb(131,202,255)" stroke="none" d="M 8934,9427 L 9216,9427 9075,9145 8934,9427 Z"/>
 <path fill="none" stroke="rgb(131,202,255)" stroke-linejoin="round" d="M 8934,9427 L 9216,9427 9075,9145 8934,9427 Z"/>
 <path fill="rgb(131,202,255)" stroke="none" d="M 10206,8945 L 10488,8945 10347,8663 10206,8945 Z"/>
 <path fill="none" stroke="rgb(131,202,255)" stroke-linejoin="round" d="M 10206,8945 L 10488,8945 10347,8663 10206,8945 Z"/>
 <path fill="rgb(131,202,255)" stroke="none" d="M 11478,9353 L 11760,9353 11619,9071 11478,9353 Z"/>
 <path fill="none" stroke="rgb(131,202,255)" stroke-linejoin="round" d="M 11478,9353 L 11760,9353 11619,9071 11478,9353 Z"/>
 <path fill="rgb(131,202,255)" stroke="none" d="M 12751,9429 L 13033,9429 12892,9147 12751,9429 Z"/>
 <path fill="none" stroke="rgb(131,202,255)" stroke-linejoin="round" d="M 12751,9429 L 13033,9429 12892,9147 12751,9429 Z"/>
 <path fill="none" stroke="rgb(49,64,4)" stroke-width="80" stroke-linejoin="round" d="M 3985,9354 L 5258,9637 6530,9746 7803,9730 9075,9746 10347,9746 11619,9746 12892,9746"/>
 <path fill="rgb(49,64,4)" stroke="none" d="M 3844,9213 L 3844,9495 4126,9495 4126,9213 3844,9213 Z"/>
 <path fill="none" stroke="rgb(49,64,4)" stroke-linejoin="round" d="M 3844,9213 L 3844,9495 4126,9495 4126,9213 3844,9213 Z"/>
 <path fill="rgb(49,64,4)" stroke="none" d="M 5117,9496 L 5117,9778 5399,9778 5399,9496 5117,9496 Z"/>
 <path fill="none" stroke="rgb(49,64,4)" stroke-linejoin="round" d="M 5117,9496 L 5117,9778 5399,9778 5399,9496 5117,9496 Z"/>
 <path fill="rgb(49,64,4)" stroke="none" d="M 6389,9605 L 6389,9887 6671,9887 6671,9605 6389,9605 Z"/>
 <path fill="none" stroke="rgb(49,64,4)" stroke-linejoin="round" d="M 6389,9605 L 6389,9887 6671,9887 6671,9605 6389,9605 Z"/>
 <path fill="rgb(49,64,4)" stroke="none" d="M 7662,9589 L 7662,9871 7944,9871 7944,9589 7662,9589 Z"/>
 <path fill="none" stroke="rgb(49,64,4)" stroke-linejoin="round" d="M 7662,9589 L 7662,9871 7944,9871 7944,9589 7662,9589 Z"/>
 <path fill="rgb(49,64,4)" stroke="none" d="M 8934,9605 L 8934,9887 9216,9887 9216,9605 8934,9605 Z"/>
 <path fill="none" stroke="rgb(49,64,4)" stroke-linejoin="round" d="M 8934,9605 L 8934,9887 9216,9887 9216,9605 8934,9605 Z"/>
 <path fill="rgb(49,64,4)" stroke="none" d="M 10206,9605 L 10206,9887 10488,9887 10488,9605 10206,9605 Z"/>
 <path fill="none" stroke="rgb(49,64,4)" stroke-linejoin="round" d="M 10206,9605 L 10206,9887 10488,9887 10488,9605 10206,9605 Z"/>
 <path fill="rgb(49,64,4)" stroke="none" d="M 11478,9605 L 11478,9887 11760,9887 11760,9605 11478,9605 Z"/>
 <path fill="none" stroke="rgb(49,64,4)" stroke-linejoin="round" d="M 11478,9605 L 11478,9887 11760,9887 11760,9605 11478,9605 Z"/>
 <path fill="rgb(49,64,4)" stroke="none" d="M 12751,9605 L 12751,9887 13033,9887 13033,9605 12751,9605 Z"/>
 <path fill="none" stroke="rgb(49,64,4)" stroke-linejoin="round" d="M 12751,9605 L 12751,9887 13033,9887 13033,9605 12751,9605 Z"/>
 <path fill="none" stroke="rgb(174,207,0)" stroke-width="80" stroke-linejoin="round" d="M 3985,9056 L 5258,9441 6530,9541 7803,9664 9075,9672 10347,9664 11619,9672 12892,9672"/>
 <path fill="rgb(174,207,0)" stroke="none" d="M 3844,8915 L 3844,9197 4126,9197 4126,8915 3844,8915 Z"/>
 <path fill="none" stroke="rgb(174,207,0)" stroke-linejoin="round" d="M 3844,8915 L 3844,9197 4126,9197 4126,8915 3844,8915 Z"/>
 <path fill="rgb(174,207,0)" stroke="none" d="M 5117,9300 L 5117,9582 5399,9582 5399,9300 5117,9300 Z"/>
 <path fill="none" stroke="rgb(174,207,0)" stroke-linejoin="round" d="M 5117,9300 L 5117,9582 5399,9582 5399,9300 5117,9300 Z"/>
 <path fill="rgb(174,207,0)" stroke="none" d="M 6389,9400 L 6389,9682 6671,9682 6671,9400 6389,9400 Z"/>
 <path fill="none" stroke="rgb(174,207,0)" stroke-linejoin="round" d="M 6389,9400 L 6389,9682 6671,9682 6671,9400 6389,9400 Z"/>
 <path fill="rgb(174,207,0)" stroke="none" d="M 7662,9523 L 7662,9805 7944,9805 7944,9523 7662,9523 Z"/>
 <path fill="none" stroke="rgb(174,207,0)" stroke-linejoin="round" d="M 7662,9523 L 7662,9805 7944,9805 7944,9523 7662,9523 Z"/>
 <path fill="rgb(174,207,0)" stroke="none" d="M 8934,9531 L 8934,9813 9216,9813 9216,9531 8934,9531 Z"/>
 <path fill="none" stroke="rgb(174,207,0)" stroke-linejoin="round" d="M 8934,9531 L 8934,9813 9216,9813 9216,9531 8934,9531 Z"/>
 <path fill="rgb(174,207,0)" stroke="none" d="M 10206,9523 L 10206,9805 10488,9805 10488,9523 10206,9523 Z"/>
 <path fill="none" stroke="rgb(174,207,0)" stroke-linejoin="round" d="M 10206,9523 L 10206,9805 10488,9805 10488,9523 10206,9523 Z"/>
 <path fill="rgb(174,207,0)" stroke="none" d="M 11478,9531 L 11478,9813 11760,9813 11760,9531 11478,9531 Z"/>
 <path fill="none" stroke="rgb(174,207,0)" stroke-linejoin="round" d="M 11478,9531 L 11478,9813 11760,9813 11760,9531 11478,9531 Z"/>
 <path fill="rgb(174,207,0)" stroke="none" d="M 12751,9531 L 12751,9813 13033,9813 13033,9531 12751,9531 Z"/>
 <path fill="none" stroke="rgb(174,207,0)" stroke-linejoin="round" d="M 12751,9531 L 12751,9813 13033,9813 13033,9531 12751,9531 Z"/>
 <text class="TextShape"><tspan class="TextParagraph" font-family="Arial, sans-serif" font-size="423px" font-weight="400"><tspan class="TextPosition" x="3747" y="10416"><tspan fill="rgb(0,0,0)" stroke="none">50</tspan></tspan></tspan></text>
 <text class="TextShape"><tspan class="TextParagraph" font-family="Arial, sans-serif" font-size="423px" font-weight="400"><tspan class="TextPosition" x="4901" y="10416"><tspan fill="rgb(0,0,0)" stroke="none">100</tspan></tspan></tspan></text>
 <text class="TextShape"><tspan class="TextParagraph" font-family="Arial, sans-serif" font-size="423px" font-weight="400"><tspan class="TextPosition" x="6173" y="10416"><tspan fill="rgb(0,0,0)" stroke="none">150</tspan></tspan></tspan></text>
 <text class="TextShape"><tspan class="TextParagraph" font-family="Arial, sans-serif" font-size="423px" font-weight="400"><tspan class="TextPosition" x="7446" y="10416"><tspan fill="rgb(0,0,0)" stroke="none">200</tspan></tspan></tspan></text>
 <text class="TextShape"><tspan class="TextParagraph" font-family="Arial, sans-serif" font-size="423px" font-weight="400"><tspan class="TextPosition" x="8718" y="10416"><tspan fill="rgb(0,0,0)" stroke="none">250</tspan></tspan></tspan></text>
 <text class="TextShape"><tspan class="TextParagraph" font-family="Arial, sans-serif" font-size="423px" font-weight="400"><tspan class="TextPosition" x="9991" y="10416"><tspan fill="rgb(0,0,0)" stroke="none">300</tspan></tspan></tspan></text>
 <text class="TextShape"><tspan class="TextParagraph" font-family="Arial, sans-serif" font-size="423px" font-weight="400"><tspan class="TextPosition" x="11263" y="10416"><tspan fill="rgb(0,0,0)" stroke="none">350</tspan></tspan></tspan></text>
 <text class="TextShape"><tspan class="TextParagraph" font-family="Arial, sans-serif" font-size="423px" font-weight="400"><tspan class="TextPosition" x="12536" y="10416"><tspan fill="rgb(0,0,0)" stroke="none">400</tspan></tspan></tspan></text>
 <text class="TextShape"><tspan class="TextParagraph" font-family="Arial, sans-serif" font-size="423px" font-weight="400"><tspan class="TextPosition" x="2225" y="9942"><tspan fill="rgb(0,0,0)" stroke="none">0</tspan></tspan></tspan></text>
 <text class="TextShape"><tspan class="TextParagraph" font-family="Arial, sans-serif" font-size="423px" font-weight="400"><tspan class="TextPosition" x="1987" y="8604"><tspan fill="rgb(0,0,0)" stroke="none">50</tspan></tspan></tspan></text>
 <text class="TextShape"><tspan class="TextParagraph" font-family="Arial, sans-serif" font-size="423px" font-weight="400"><tspan class="TextPosition" x="1749" y="7267"><tspan fill="rgb(0,0,0)" stroke="none">100</tspan></tspan></tspan></text>
 <text class="TextShape"><tspan class="TextParagraph" font-family="Arial, sans-serif" font-size="423px" font-weight="400"><tspan class="TextPosition" x="1749" y="5929"><tspan fill="rgb(0,0,0)" stroke="none">150</tspan></tspan></tspan></text>
 <text class="TextShape"><tspan class="TextParagraph" font-family="Arial, sans-serif" font-size="423px" font-weight="400"><tspan class="TextPosition" x="1749" y="4591"><tspan fill="rgb(0,0,0)" stroke="none">200</tspan></tspan></tspan></text>
 <text class="TextShape"><tspan class="TextParagraph" font-family="Arial, sans-serif" font-size="423px" font-weight="400"><tspan class="TextPosition" x="1749" y="3254"><tspan fill="rgb(0,0,0)" stroke="none">250</tspan></tspan></tspan></text>
 <text class="TextShape"><tspan class="TextParagraph" font-family="Arial, sans-serif" font-size="423px" font-weight="400"><tspan class="TextPosition" x="1749" y="1917"><tspan fill="rgb(0,0,0)" stroke="none">300</tspan></tspan></tspan></text>
 <text class="TextShape"><tspan class="TextParagraph" font-family="Arial, sans-serif" font-size="564px" font-weight="400"><tspan class="TextPosition" x="7394" y="1034"><tspan fill="rgb(0,0,0)" stroke="none">Blocks with n=16</tspan></tspan></tspan></text>
 <path fill="none" stroke="rgb(0,69,134)" stroke-width="80" stroke-linejoin="round" d="M 14684,3995 L 15484,3995"/>
 <path fill="rgb(0,69,134)" stroke="none" d="M 14957,3868 L 14957,4122 15211,4122 15211,3868 14957,3868 Z"/>
 <path fill="none" stroke="rgb(0,69,134)" stroke-linejoin="round" d="M 14957,3868 L 14957,4122 15211,4122 15211,3868 14957,3868 Z"/>
 <path fill="none" stroke="rgb(255,66,14)" stroke-width="80" stroke-linejoin="round" d="M 14684,4546 L 15484,4546"/>
 <path fill="rgb(255,66,14)" stroke="none" d="M 14957,4546 L 15084,4673 15211,4546 15084,4419 14957,4546 Z"/>
 <path fill="none" stroke="rgb(255,66,14)" stroke-linejoin="round" d="M 14957,4546 L 15084,4673 15211,4546 15084,4419 14957,4546 Z"/>
 <path fill="none" stroke="rgb(255,211,32)" stroke-width="80" stroke-linejoin="round" d="M 14684,5097 L 15484,5097"/>
 <path fill="rgb(255,211,32)" stroke="none" d="M 14957,5224 L 15211,5224 15084,4970 14957,5224 Z"/>
 <path fill="none" stroke="rgb(255,211,32)" stroke-linejoin="round" d="M 14957,5224 L 15211,5224 15084,4970 14957,5224 Z"/>
 <path fill="none" stroke="rgb(87,157,28)" stroke-width="80" stroke-linejoin="round" d="M 14684,5648 L 15484,5648"/>
 <path fill="rgb(87,157,28)" stroke="none" d="M 14957,5775 L 15211,5775 15084,5521 14957,5775 Z"/>
 <path fill="none" stroke="rgb(87,157,28)" stroke-linejoin="round" d="M 14957,5775 L 15211,5775 15084,5521 14957,5775 Z"/>
 <path fill="none" stroke="rgb(126,0,33)" stroke-width="80" stroke-linejoin="round" d="M 14684,6198 L 15484,6198"/>
 <path fill="rgb(126,0,33)" stroke="none" d="M 14957,6325 L 15211,6325 15084,6071 14957,6325 Z"/>
 <path fill="none" stroke="rgb(126,0,33)" stroke-linejoin="round" d="M 14957,6325 L 15211,6325 15084,6071 14957,6325 Z"/>
 <path fill="none" stroke="rgb(131,202,255)" stroke-width="80" stroke-linejoin="round" d="M 14684,6749 L 15484,6749"/>
 <path fill="rgb(131,202,255)" stroke="none" d="M 14957,6876 L 15211,6876 15084,6622 14957,6876 Z"/>
 <path fill="none" stroke="rgb(131,202,255)" stroke-linejoin="round" d="M 14957,6876 L 15211,6876 15084,6622 14957,6876 Z"/>
 <path fill="none" stroke="rgb(49,64,4)" stroke-width="80" stroke-linejoin="round" d="M 14684,7300 L 15484,7300"/>
 <path fill="rgb(49,64,4)" stroke="none" d="M 14957,7173 L 14957,7427 15211,7427 15211,7173 14957,7173 Z"/>
 <path fill="none" stroke="rgb(49,64,4)" stroke-linejoin="round" d="M 14957,7173 L 14957,7427 15211,7427 15211,7173 14957,7173 Z"/>
 <path fill="none" stroke="rgb(174,207,0)" stroke-width="80" stroke-linejoin="round" d="M 14684,7851 L 15484,7851"/>
 <path fill="rgb(174,207,0)" stroke="none" d="M 14957,7724 L 14957,7978 15211,7978 15211,7724 14957,7724 Z"/>
 <path fill="none" stroke="rgb(174,207,0)" stroke-linejoin="round" d="M 14957,7724 L 14957,7978 15211,7978 15211,7724 14957,7724 Z"/>
 <text class="TextShape"><tspan class="TextParagraph" font-family="Liberation Sans, sans-serif" font-size="423px" font-weight="400"><tspan class="TextPosition" x="15584" y="4140"><tspan fill="rgb(0,0,0)" stroke="none">Primes</tspan></tspan></tspan></text>
 <text class="TextShape"><tspan class="TextParagraph" font-family="Liberation Sans, sans-serif" font-size="423px" font-weight="400"><tspan class="TextPosition" x="15584" y="4691"><tspan fill="rgb(0,0,0)" stroke="none">Dijkstra</tspan></tspan></tspan></text>
 <text class="TextShape"><tspan class="TextParagraph" font-family="Liberation Sans, sans-serif" font-size="423px" font-weight="400"><tspan class="TextPosition" x="15584" y="5242"><tspan fill="rgb(0,0,0)" stroke="none">Dijkstra w.c.</tspan></tspan></tspan></text>
 <text class="TextShape"><tspan class="TextParagraph" font-family="Liberation Sans, sans-serif" font-size="423px" font-weight="400"><tspan class="TextPosition" x="15584" y="5793"><tspan fill="rgb(0,0,0)" stroke="none">Matrix Mult</tspan></tspan></tspan></text>
 <text class="TextShape"><tspan class="TextParagraph" font-family="Liberation Sans, sans-serif" font-size="423px" font-weight="400"><tspan class="TextPosition" x="15584" y="6343"><tspan fill="rgb(0,0,0)" stroke="none">Determinant</tspan></tspan></tspan></text>
 <text class="TextShape"><tspan class="TextParagraph" font-family="Liberation Sans, sans-serif" font-size="423px" font-weight="400"><tspan class="TextPosition" x="15584" y="6894"><tspan fill="rgb(0,0,0)" stroke="none">Determinant w.c.</tspan></tspan></tspan></text>
 <text class="TextShape"><tspan class="TextParagraph" font-family="Liberation Sans, sans-serif" font-size="423px" font-weight="400"><tspan class="TextPosition" x="15584" y="7445"><tspan fill="rgb(0,0,0)" stroke="none">Hanoi</tspan></tspan></tspan></text>
 <text class="TextShape"><tspan class="TextParagraph" font-family="Liberation Sans, sans-serif" font-size="423px" font-weight="400"><tspan class="TextPosition" x="15584" y="7996"><tspan fill="rgb(0,0,0)" stroke="none">Hanoi w.c.</tspan></tspan></tspan></text>
 <text class="TextShape"><tspan class="TextParagraph" font-family="Arial, sans-serif" font-size="423px" font-weight="400"><tspan class="TextPosition" x="2678" y="11232"><tspan fill="rgb(0,0,0)" stroke="none">Cache sizes (number of blocks in data/instruction cache)</tspan></tspan></tspan></text>
 <text class="TextShape" transform="translate(1103,6762) rotate(-90) translate(-1103,-6762)"><tspan class="TextParagraph" font-family="Arial, sans-serif" font-size="529px" font-weight="400"><tspan class="TextPosition" x="1103" y="6762"><tspan fill="rgb(0,0,0)" stroke="none">Ratios</tspan></tspan></tspan></text>
</svg>