<?xml version="1.0" encoding="UTF-8"?>
<!DOCTYPE svg PUBLIC "-//W3C//DTD SVG 1.1//EN" "http://www.w3.org/Graphics/SVG/1.1/DTD/svg11.dtd">
<svg width="190mm" height="119mm" viewBox="0 0 19000 11900" version="1.1" xmlns="http://www.w3.org/2000/svg" stroke-width="28.222" stroke-linejoin="round" xml:space="preserve">
 <path fill="rgb(255,255,255)" stroke="none" d="M 9556,11859 L 34,11859 34,-10 19078,-10 19078,11859 9556,11859 Z"/>
 <path fill="none" stroke="rgb(179,179,179)" stroke-linejoin="round" d="M 8458,9797 L 2730,9797 2730,1773 14186,1773 14186,9797 8458,9797 Z"/>
 <path fill="none" stroke="rgb(179,179,179)" stroke-linejoin="round" d="M 14186,9796 L 2730,9796"/>
 <path fill="none" stroke="rgb(179,179,179)" stroke-linejoin="round" d="M 14186,8993 L 2730,8993"/>
 <path fill="none" stroke="rgb(179,179,179)" stroke-linejoin="round" d="M 14186,8191 L 2730,8191"/>
 <path fill="none" stroke="rgb(179,179,179)" stroke-linejoin="round" d="M 14186,7388 L 2730,7388"/>
 <path fill="none" stroke="rgb(179,179,179)" stroke-linejoin="round" d="M 14186,6586 L 2730,6586"/>
 <path fill="none" stroke="rgb(179,179,179)" stroke-linejoin="round" d="M 14186,5784 L 2730,5784"/>
 <path fill="none" stroke="rgb(179,179,179)" stroke-linejoin="round" d="M 14186,4982 L 2730,4982"/>
 <path fill="none" stroke="rgb(179,179,179)" stroke-linejoin="round" d="M 14186,4179 L 2730,4179"/>
 <path fill="none" stroke="rgb(179,179,179)" stroke-linejoin="round" d="M 14186,3377 L 2730,3377"/>
 <path fill="none" stroke="rgb(179,179,179)" stroke-linejoin="round" d="M 14186,2574 L 2730,2574"/>
 <path fill="none" stroke="rgb(179,179,179)" stroke-linejoin="round" d="M 14186,1772 L 2730,1772"/>
 <path fill="none" stroke="rgb(221,221,221)" stroke-linejoin="round" d="M 14186,9394 L 2730,9394"/>
 <path fill="none" stroke="rgb(221,221,221)" stroke-linejoin="round" d="M 14186,8592 L 2730,8592"/>
 <path fill="none" stroke="rgb(221,221,221)" stroke-linejoin="round" d="M 14186,7789 L 2730,7789"/>
 <path fill="none" stroke="rgb(221,221,221)" stroke-linejoin="round" d="M 14186,6987 L 2730,6987"/>
 <path fill="none" stroke="rgb(221,221,221)" stroke-linejoin="round" d="M 14186,6184 L 2730,6184"/>
 <path fill="none" stroke="rgb(221,221,221)" stroke-linejoin="round" d="M 14186,5383 L 2730,5383"/>
 <path fill="none" stroke="rgb(221,221,221)" stroke-linejoin="round" d="M 14186,4580 L 2730,4580"/>
 <path fill="none" stroke="rgb(221,221,221)" stroke-linejoin="round" d="M 14186,3778 L 2730,3778"/>
 <path fill="none" stroke="rgb(221,221,221)" stroke-linejoin="round" d="M 14186,2975 L 2730,2975"/>
 <path fill="none" stroke="rgb(221,221,221)" stroke-linejoin="round" d="M 14186,2173 L 2730,2173"/>
 <path fill="none" stroke="rgb(179,179,179)" stroke-linejoin="round" d="M 2730,9946 L 2730,9796"/>
 <path fill="none" stroke="rgb(179,179,179)" stroke-linejoin="round" d="M 4003,9946 L 4003,9796"/>
 <path fill="none" stroke="rgb(179,179,179)" stroke-linejoin="round" d="M 5276,9946 L 5276,9796"/>
 <path fill="none" stroke="rgb(179,179,179)" stroke-linejoin="round" d="M 6549,9946 L 6549,9796"/>
 <path fill="none" stroke="rgb(179,179,179)" stroke-linejoin="round" d="M 7822,9946 L 7822,9796"/>
 <path fill="none" stroke="rgb(179,179,179)" stroke-linejoin="round" d="M 9095,9946 L 9095,9796"/>
 <path fill="none" stroke="rgb(179,179,179)" stroke-linejoin="round" d="M 10367,9946 L 10367,9796"/>
 <path fill="none" stroke="rgb(179,179,179)" stroke-linejoin="round" d="M 11639,9946 L 11639,9796"/>
 <path fill="none" stroke="rgb(179,179,179)" stroke-linejoin="round" d="M 12913,9946 L 12913,9796"/>
 <path fill="none" stroke="rgb(179,179,179)" stroke-linejoin="round" d="M 14186,9946 L 14186,9796"/>
 <path fill="none" stroke="rgb(179,179,179)" stroke-linejoin="round" d="M 2730,9796 L 14186,9796"/>
 <path fill="none" stroke="rgb(179,179,179)" stroke-linejoin="round" d="M 2580,9796 L 2730,9796"/>
 <path fill="none" stroke="rgb(179,179,179)" stroke-linejoin="round" d="M 2580,8993 L 2730,8993"/>
 <path fill="none" stroke="rgb(179,179,179)" stroke-linejoin="round" d="M 2580,8191 L 2730,8191"/>
 <path fill="none" stroke="rgb(179,179,179)" stroke-linejoin="round" d="M 2580,7388 L 2730,7388"/>
 <path fill="none" stroke="rgb(179,179,179)" stroke-linejoin="round" d="M 2580,6586 L 2730,6586"/>
 <path fill="none" stroke="rgb(179,179,179)" stroke-linejoin="round" d="M 2580,5784 L 2730,5784"/>
 <path fill="none" stroke="rgb(179,179,179)" stroke-linejoin="round" d="M 2580,4982 L 2730,4982"/>
 <path fill="none" stroke="rgb(179,179,179)" stroke-linejoin="round" d="M 2580,4179 L 2730,4179"/>
 <path fill="none" stroke="rgb(179,179,179)" stroke-linejoin="round" d="M 2580,3377 L 2730,3377"/>
 <path fill="none" stroke="rgb(179,179,179)" stroke-linejoin="round" d="M 2580,2574 L 2730,2574"/>
 <path fill="none" stroke="rgb(179,179,179)" stroke-linejoin="round" d="M 2580,1772 L 2730,1772"/>
 <path fill="none" stroke="rgb(179,179,179)" stroke-linejoin="round" d="M 2730,9796 L 2730,1772"/>
 <path fill="none" stroke="rgb(0,69,134)" stroke-width="80" stroke-linejoin="round" d="M 4003,9514 L 5276,9514 6549,9514 7822,9514 9095,9514 10367,9514 11640,9514 12913,9514"/>
 <path fill="rgb(0,69,134)" stroke="none" d="M 3862,9373 L 3862,9655 4144,9655 4144,9373 3862,9373 Z"/>
 <path fill="none" stroke="rgb(0,69,134)" stroke-linejoin="round" d="M 3862,9373 L 3862,9655 4144,9655 4144,9373 3862,9373 Z"/>
 <path fill="rgb(0,69,134)" stroke="none" d="M 5135,9373 L 5135,9655 5417,9655 5417,9373 5135,9373 Z"/>
 <path fill="none" stroke="rgb(0,69,134)" stroke-linejoin="round" d="M 5135,9373 L 5135,9655 5417,9655 5417,9373 5135,9373 Z"/>
 <path fill="rgb(0,69,134)" stroke="none" d="M 6408,9373 L 6408,9655 6690,9655 6690,9373 6408,9373 Z"/>
 <path fill="none" stroke="rgb(0,69,134)" stroke-linejoin="round" d="M 6408,9373 L 6408,9655 6690,9655 6690,9373 6408,9373 Z"/>
 <path fill="rgb(0,69,134)" stroke="none" d="M 7681,9373 L 7681,9655 7963,9655 7963,9373 7681,9373 Z"/>
 <path fill="none" stroke="rgb(0,69,134)" stroke-linejoin="round" d="M 7681,9373 L 7681,9655 7963,9655 7963,9373 7681,9373 Z"/>
 <path fill="rgb(0,69,134)" stroke="none" d="M 8954,9373 L 8954,9655 9236,9655 9236,9373 8954,9373 Z"/>
 <path fill="none" stroke="rgb(0,69,134)" stroke-linejoin="round" d="M 8954,9373 L 8954,9655 9236,9655 9236,9373 8954,9373 Z"/>
 <path fill="rgb(0,69,134)" stroke="none" d="M 10226,9373 L 10226,9655 10508,9655 10508,9373 10226,9373 Z"/>
 <path fill="none" stroke="rgb(0,69,134)" stroke-linejoin="round" d="M 10226,9373 L 10226,9655 10508,9655 10508,9373 10226,9373 Z"/>
 <path fill="rgb(0,69,134)" stroke="none" d="M 11499,9373 L 11499,9655 11781,9655 11781,9373 11499,9373 Z"/>
 <path fill="none" stroke="rgb(0,69,134)" stroke-linejoin="round" d="M 11499,9373 L 11499,9655 11781,9655 11781,9373 11499,9373 Z"/>
 <path fill="rgb(0,69,134)" stroke="none" d="M 12772,9373 L 12772,9655 13054,9655 13054,9373 12772,9373 Z"/>
 <path fill="none" stroke="rgb(0,69,134)" stroke-linejoin="round" d="M 12772,9373 L 12772,9655 13054,9655 13054,9373 12772,9373 Z"/>
 <path fill="none" stroke="rgb(255,66,14)" stroke-width="80" stroke-linejoin="round" d="M 4003,3860 L 5276,6969 6549,8128 7822,8399 9095,8682 10367,8717 11640,8850 12913,8911"/>
 <path fill="rgb(255,66,14)" stroke="none" d="M 3862,3860 L 4003,4001 4144,3860 4003,3719 3862,3860 Z"/>
 <path fill="none" stroke="rgb(255,66,14)" stroke-linejoin="round" d="M 3862,3860 L 4003,4001 4144,3860 4003,3719 3862,3860 Z"/>
 <path fill="rgb(255,66,14)" stroke="none" d="M 5135,6969 L 5276,7110 5417,6969 5276,6828 5135,6969 Z"/>
 <path fill="none" stroke="rgb(255,66,14)" stroke-linejoin="round" d="M 5135,6969 L 5276,7110 5417,6969 5276,6828 5135,6969 Z"/>
 <path fill="rgb(255,66,14)" stroke="none" d="M 6408,8128 L 6549,8269 6690,8128 6549,7987 6408,8128 Z"/>
 <path fill="none" stroke="rgb(255,66,14)" stroke-linejoin="round" d="M 6408,8128 L 6549,8269 6690,8128 6549,7987 6408,8128 Z"/>
 <path fill="rgb(255,66,14)" stroke="none" d="M 7681,8399 L 7822,8540 7963,8399 7822,8258 7681,8399 Z"/>
 <path fill="none" stroke="rgb(255,66,14)" stroke-linejoin="round" d="M 7681,8399 L 7822,8540 7963,8399 7822,8258 7681,8399 Z"/>
 <path fill="rgb(255,66,14)" stroke="none" d="M 8954,8682 L 9095,8823 9236,8682 9095,8541 8954,8682 Z"/>
 <path fill="none" stroke="rgb(255,66,14)" stroke-linejoin="round" d="M 8954,8682 L 9095,8823 9236,8682 9095,8541 8954,8682 Z"/>
 <path fill="rgb(255,66,14)" stroke="none" d="M 10226,8717 L 10367,8858 10508,8717 10367,8576 10226,8717 Z"/>
 <path fill="none" stroke="rgb(255,66,14)" stroke-linejoin="round" d="M 10226,8717 L 10367,8858 10508,8717 10367,8576 10226,8717 Z"/>
 <path fill="rgb(255,66,14)" stroke="none" d="M 11499,8850 L 11640,8991 11781,8850 11640,8709 11499,8850 Z"/>
 <path fill="none" stroke="rgb(255,66,14)" stroke-linejoin="round" d="M 11499,8850 L 11640,8991 11781,8850 11640,8709 11499,8850 Z"/>
 <path fill="rgb(255,66,14)" stroke="none" d="M 12772,8911 L 12913,9052 13054,8911 12913,8770 12772,8911 Z"/>
 <path fill="none" stroke="rgb(255,66,14)" stroke-linejoin="round" d="M 12772,8911 L 12913,9052 13054,8911 12913,8770 12772,8911 Z"/>
 <path fill="none" stroke="rgb(255,211,32)" stroke-width="80" stroke-linejoin="round" d="M 4003,2527 L 5276,5271 6549,7302 7822,7801 9095,8110 10367,8356 11640,8393 12913,8508"/>
 <path fill="rgb(255,211,32)" stroke="none" d="M 3862,2668 L 4144,2668 4003,2386 3862,2668 Z"/>
 <path fill="none" stroke="rgb(255,211,32)" stroke-linejoin="round" d="M 3862,2668 L 4144,2668 4003,2386 3862,2668 Z"/>
 <path fill="rgb(255,211,32)" stroke="none" d="M 5135,5412 L 5417,5412 5276,5130 5135,5412 Z"/>
 <path fill="none" stroke="rgb(255,211,32)" stroke-linejoin="round" d="M 5135,5412 L 5417,5412 5276,5130 5135,5412 Z"/>
 <path fill="rgb(255,211,32)" stroke="none" d="M 6408,7443 L 6690,7443 6549,7161 6408,7443 Z"/>
 <path fill="none" stroke="rgb(255,211,32)" stroke-linejoin="round" d="M 6408,7443 L 6690,7443 6549,7161 6408,7443 Z"/>
 <path fill="rgb(255,211,32)" stroke="none" d="M 7681,7942 L 7963,7942 7822,7660 7681,7942 Z"/>
 <path fill="none" stroke="rgb(255,211,32)" stroke-linejoin="round" d="M 7681,7942 L 7963,7942 7822,7660 7681,7942 Z"/>
 <path fill="rgb(255,211,32)" stroke="none" d="M 8954,8251 L 9236,8251 9095,7969 8954,8251 Z"/>
 <path fill="none" stroke="rgb(255,211,32)" stroke-linejoin="round" d="M 8954,8251 L 9236,8251 9095,7969 8954,8251 Z"/>
 <path fill="rgb(255,211,32)" stroke="none" d="M 10226,8497 L 10508,8497 10367,8215 10226,8497 Z"/>
 <path fill="none" stroke="rgb(255,211,32)" stroke-linejoin="round" d="M 10226,8497 L 10508,8497 10367,8215 10226,8497 Z"/>
 <path fill="rgb(255,211,32)" stroke="none" d="M 11499,8534 L 11781,8534 11640,8252 11499,8534 Z"/>
 <path fill="none" stroke="rgb(255,211,32)" stroke-linejoin="round" d="M 11499,8534 L 11781,8534 11640,8252 11499,8534 Z"/>
 <path fill="rgb(255,211,32)" stroke="none" d="M 12772,8649 L 13054,8649 12913,8367 12772,8649 Z"/>
 <path fill="none" stroke="rgb(255,211,32)" stroke-linejoin="round" d="M 12772,8649 L 13054,8649 12913,8367 12772,8649 Z"/>
 <path fill="none" stroke="rgb(87,157,28)" stroke-width="80" stroke-linejoin="round" d="M 4003,8531 L 5276,8650 6549,8671 7822,8685 9095,8688 10367,8692 11640,8693 12913,8696"/>
 <path fill="rgb(87,157,28)" stroke="none" d="M 3862,8672 L 4144,8672 4003,8390 3862,8672 Z"/>
 <path fill="none" stroke="rgb(87,157,28)" stroke-linejoin="round" d="M 3862,8672 L 4144,8672 4003,8390 3862,8672 Z"/>
 <path fill="rgb(87,157,28)" stroke="none" d="M 5135,8791 L 5417,8791 5276,8509 5135,8791 Z"/>
 <path fill="none" stroke="rgb(87,157,28)" stroke-linejoin="round" d="M 5135,8791 L 5417,8791 5276,8509 5135,8791 Z"/>
 <path fill="rgb(87,157,28)" stroke="none" d="M 6408,8812 L 6690,8812 6549,8530 6408,8812 Z"/>
 <path fill="none" stroke="rgb(87,157,28)" stroke-linejoin="round" d="M 6408,8812 L 6690,8812 6549,8530 6408,8812 Z"/>
 <path fill="rgb(87,157,28)" stroke="none" d="M 7681,8826 L 7963,8826 7822,8544 7681,8826 Z"/>
 <path fill="none" stroke="rgb(87,157,28)" stroke-linejoin="round" d="M 7681,8826 L 7963,8826 7822,8544 7681,8826 Z"/>
 <path fill="rgb(87,157,28)" stroke="none" d="M 8954,8829 L 9236,8829 9095,8547 8954,8829 Z"/>
 <path fill="none" stroke="rgb(87,157,28)" stroke-linejoin="round" d="M 8954,8829 L 9236,8829 9095,8547 8954,8829 Z"/>
 <path fill="rgb(87,157,28)" stroke="none" d="M 10226,8833 L 10508,8833 10367,8551 10226,8833 Z"/>
 <path fill="none" stroke="rgb(87,157,28)" stroke-linejoin="round" d="M 10226,8833 L 10508,8833 10367,8551 10226,8833 Z"/>
 <path fill="rgb(87,157,28)" stroke="none" d="M 11499,8834 L 11781,8834 11640,8552 11499,8834 Z"/>
 <path fill="none" stroke="rgb(87,157,28)" stroke-linejoin="round" d="M 11499,8834 L 11781,8834 11640,8552 11499,8834 Z"/>
 <path fill="rgb(87,157,28)" stroke="none" d="M 12772,8837 L 13054,8837 12913,8555 12772,8837 Z"/>
 <path fill="none" stroke="rgb(87,157,28)" stroke-linejoin="round" d="M 12772,8837 L 13054,8837 12913,8555 12772,8837 Z"/>
 <path fill="none" stroke="rgb(126,0,33)" stroke-width="80" stroke-linejoin="round" d="M 4003,7638 L 5276,9238 6549,9278 7822,9288 9095,9303 10367,9303 11640,9302 12913,9302"/>
 <path fill="rgb(126,0,33)" stroke="none" d="M 3862,7779 L 4144,7779 4003,7497 3862,7779 Z"/>
 <path fill="none" stroke="rgb(126,0,33)" stroke-linejoin="round" d="M 3862,7779 L 4144,7779 4003,7497 3862,7779 Z"/>
 <path fill="rgb(126,0,33)" stroke="none" d="M 5135,9379 L 5417,9379 5276,9097 5135,9379 Z"/>
 <path fill="none" stroke="rgb(126,0,33)" stroke-linejoin="round" d="M 5135,9379 L 5417,9379 5276,9097 5135,9379 Z"/>
 <path fill="rgb(126,0,33)" stroke="none" d="M 6408,9419 L 6690,9419 6549,9137 6408,9419 Z"/>
 <path fill="none" stroke="rgb(126,0,33)" stroke-linejoin="round" d="M 6408,9419 L 6690,9419 6549,9137 6408,9419 Z"/>
 <path fill="rgb(126,0,33)" stroke="none" d="M 7681,9429 L 7963,9429 7822,9147 7681,9429 Z"/>
 <path fill="none" stroke="rgb(126,0,33)" stroke-linejoin="round" d="M 7681,9429 L 7963,9429 7822,9147 7681,9429 Z"/>
 <path fill="rgb(126,0,33)" stroke="none" d="M 8954,9444 L 9236,9444 9095,9162 8954,9444 Z"/>
 <path fill="none" stroke="rgb(126,0,33)" stroke-linejoin="round" d="M 8954,9444 L 9236,9444 9095,9162 8954,9444 Z"/>
 <path fill="rgb(126,0,33)" stroke="none" d="M 10226,9444 L 10508,9444 10367,9162 10226,9444 Z"/>
 <path fill="none" stroke="rgb(126,0,33)" stroke-linejoin="round" d="M 10226,9444 L 10508,9444 10367,9162 10226,9444 Z"/>
 <path fill="rgb(126,0,33)" stroke="none" d="M 11499,9443 L 11781,9443 11640,9161 11499,9443 Z"/>
 <path fill="none" stroke="rgb(126,0,33)" stroke-linejoin="round" d="M 11499,9443 L 11781,9443 11640,9161 11499,9443 Z"/>
 <path fill="rgb(126,0,33)" stroke="none" d="M 12772,9443 L 13054,9443 12913,9161 12772,9443 Z"/>
 <path fill="none" stroke="rgb(126,0,33)" stroke-linejoin="round" d="M 12772,9443 L 13054,9443 12913,9161 12772,9443 Z"/>
 <path fill="none" stroke="rgb(131,202,255)" stroke-width="80" stroke-linejoin="round" d="M 4003,6933 L 5276,8532 6549,9120 7822,9103 9095,9121 10367,9121 11640,9121 12913,9121"/>
 <path fill="rgb(131,202,255)" stroke="none" d="M 3862,7074 L 4144,7074 4003,6792 3862,7074 Z"/>
 <path fill="none" stroke="rgb(131,202,255)" stroke-linejoin="round" d="M 3862,7074 L 4144,7074 4003,6792 3862,7074 Z"/>
 <path fill="rgb(131,202,255)" stroke="none" d="M 5135,8673 L 5417,8673 5276,8391 5135,8673 Z"/>
 <path fill="none" stroke="rgb(131,202,255)" stroke-linejoin="round" d="M 5135,8673 L 5417,8673 5276,8391 5135,8673 Z"/>
 <path fill="rgb(131,202,255)" stroke="none" d="M 6408,9261 L 6690,9261 6549,8979 6408,9261 Z"/>
 <path fill="none" stroke="rgb(131,202,255)" stroke-linejoin="round" d="M 6408,9261 L 6690,9261 6549,8979 6408,9261 Z"/>
 <path fill="rgb(131,202,255)" stroke="none" d="M 7681,9244 L 7963,9244 7822,8962 7681,9244 Z"/>
 <path fill="none" stroke="rgb(131,202,255)" stroke-linejoin="round" d="M 7681,9244 L 7963,9244 7822,8962 7681,9244 Z"/>
 <path fill="rgb(131,202,255)" stroke="none" d="M 8954,9262 L 9236,9262 9095,8980 8954,9262 Z"/>
 <path fill="none" stroke="rgb(131,202,255)" stroke-linejoin="round" d="M 8954,9262 L 9236,9262 9095,8980 8954,9262 Z"/>
 <path fill="rgb(131,202,255)" stroke="none" d="M 10226,9262 L 10508,9262 10367,8980 10226,9262 Z"/>
 <path fill="none" stroke="rgb(131,202,255)" stroke-linejoin="round" d="M 10226,9262 L 10508,9262 10367,8980 10226,9262 Z"/>
 <path fill="rgb(131,202,255)" stroke="none" d="M 11499,9262 L 11781,9262 11640,8980 11499,9262 Z"/>
 <path fill="none" stroke="rgb(131,202,255)" stroke-linejoin="round" d="M 11499,9262 L 11781,9262 11640,8980 11499,9262 Z"/>
 <path fill="rgb(131,202,255)" stroke="none" d="M 12772,9262 L 13054,9262 12913,8980 12772,9262 Z"/>
 <path fill="none" stroke="rgb(131,202,255)" stroke-linejoin="round" d="M 12772,9262 L 13054,9262 12913,8980 12772,9262 Z"/>
 <path fill="none" stroke="rgb(49,64,4)" stroke-width="80" stroke-linejoin="round" d="M 4003,9597 L 5276,9725 6549,9725 7822,9725 9095,9725 10367,9725 11640,9725 12913,9725"/>
 <path fill="rgb(49,64,4)" stroke="none" d="M 3862,9456 L 3862,9738 4144,9738 4144,9456 3862,9456 Z"/>
 <path fill="none" stroke="rgb(49,64,4)" stroke-linejoin="round" d="M 3862,9456 L 3862,9738 4144,9738 4144,9456 3862,9456 Z"/>
 <path fill="rgb(49,64,4)" stroke="none" d="M 5135,9584 L 5135,9866 5417,9866 5417,9584 5135,9584 Z"/>
 <path fill="none" stroke="rgb(49,64,4)" stroke-linejoin="round" d="M 5135,9584 L 5135,9866 5417,9866 5417,9584 5135,9584 Z"/>
 <path fill="rgb(49,64,4)" stroke="none" d="M 6408,9584 L 6408,9866 6690,9866 6690,9584 6408,9584 Z"/>
 <path fill="none" stroke="rgb(49,64,4)" stroke-linejoin="round" d="M 6408,9584 L 6408,9866 6690,9866 6690,9584 6408,9584 Z"/>
 <path fill="rgb(49,64,4)" stroke="none" d="M 7681,9584 L 7681,9866 7963,9866 7963,9584 7681,9584 Z"/>
 <path fill="none" stroke="rgb(49,64,4)" stroke-linejoin="round" d="M 7681,9584 L 7681,9866 7963,9866 7963,9584 7681,9584 Z"/>
 <path fill="rgb(49,64,4)" stroke="none" d="M 8954,9584 L 8954,9866 9236,9866 9236,9584 8954,9584 Z"/>
 <path fill="none" stroke="rgb(49,64,4)" stroke-linejoin="round" d="M 8954,9584 L 8954,9866 9236,9866 9236,9584 8954,9584 Z"/>
 <path fill="rgb(49,64,4)" stroke="none" d="M 10226,9584 L 10226,9866 10508,9866 10508,9584 10226,9584 Z"/>
 <path fill="none" stroke="rgb(49,64,4)" stroke-linejoin="round" d="M 10226,9584 L 10226,9866 10508,9866 10508,9584 10226,9584 Z"/>
 <path fill="rgb(49,64,4)" stroke="none" d="M 11499,9584 L 11499,9866 11781,9866 11781,9584 11499,9584 Z"/>
 <path fill="none" stroke="rgb(49,64,4)" stroke-linejoin="round" d="M 11499,9584 L 11499,9866 11781,9866 11781,9584 11499,9584 Z"/>
 <path fill="rgb(49,64,4)" stroke="none" d="M 12772,9584 L 12772,9866 13054,9866 13054,9584 12772,9584 Z"/>
 <path fill="none" stroke="rgb(49,64,4)" stroke-linejoin="round" d="M 12772,9584 L 12772,9866 13054,9866 13054,9584 12772,9584 Z"/>
 <path fill="none" stroke="rgb(174,207,0)" stroke-width="80" stroke-linejoin="round" d="M 4003,9353 L 5276,9552 6549,9615 7822,9615 9095,9615 10367,9615 11640,9615 12913,9615"/>
 <path fill="rgb(174,207,0)" stroke="none" d="M 3862,9212 L 3862,9494 4144,9494 4144,9212 3862,9212 Z"/>
 <path fill="none" stroke="rgb(174,207,0)" stroke-linejoin="round" d="M 3862,9212 L 3862,9494 4144,9494 4144,9212 3862,9212 Z"/>
 <path fill="rgb(174,207,0)" stroke="none" d="M 5135,9411 L 5135,9693 5417,9693 5417,9411 5135,9411 Z"/>
 <path fill="none" stroke="rgb(174,207,0)" stroke-linejoin="round" d="M 5135,9411 L 5135,9693 5417,9693 5417,9411 5135,9411 Z"/>
 <path fill="rgb(174,207,0)" stroke="none" d="M 6408,9474 L 6408,9756 6690,9756 6690,9474 6408,9474 Z"/>
 <path fill="none" stroke="rgb(174,207,0)" stroke-linejoin="round" d="M 6408,9474 L 6408,9756 6690,9756 6690,9474 6408,9474 Z"/>
 <path fill="rgb(174,207,0)" stroke="none" d="M 7681,9474 L 7681,9756 7963,9756 7963,9474 7681,9474 Z"/>
 <path fill="none" stroke="rgb(174,207,0)" stroke-linejoin="round" d="M 7681,9474 L 7681,9756 7963,9756 7963,9474 7681,9474 Z"/>
 <path fill="rgb(174,207,0)" stroke="none" d="M 8954,9474 L 8954,9756 9236,9756 9236,9474 8954,9474 Z"/>
 <path fill="none" stroke="rgb(174,207,0)" stroke-linejoin="round" d="M 8954,9474 L 8954,9756 9236,9756 9236,9474 8954,9474 Z"/>
 <path fill="rgb(174,207,0)" stroke="none" d="M 10226,9474 L 10226,9756 10508,9756 10508,9474 10226,9474 Z"/>
 <path fill="none" stroke="rgb(174,207,0)" stroke-linejoin="round" d="M 10226,9474 L 10226,9756 10508,9756 10508,9474 10226,9474 Z"/>
 <path fill="rgb(174,207,0)" stroke="none" d="M 11499,9474 L 11499,9756 11781,9756 11781,9474 11499,9474 Z"/>
 <path fill="none" stroke="rgb(174,207,0)" stroke-linejoin="round" d="M 11499,9474 L 11499,9756 11781,9756 11781,9474 11499,9474 Z"/>
 <path fill="rgb(174,207,0)" stroke="none" d="M 12772,9474 L 12772,9756 13054,9756 13054,9474 12772,9474 Z"/>
 <path fill="none" stroke="rgb(174,207,0)" stroke-linejoin="round" d="M 12772,9474 L 12772,9756 13054,9756 13054,9474 12772,9474 Z"/>
 <text class="TextShape"><tspan class="TextParagraph" font-family="Arial" font-size="423px" font-weight="400"><tspan class="TextPosition" x="3765" y="10416"><tspan fill="rgb(0,0,0)" stroke="none">50</tspan></tspan></tspan></text>
 <text class="TextShape"><tspan class="TextParagraph" font-family="Arial" font-size="423px" font-weight="400"><tspan class="TextPosition" x="4919" y="10416"><tspan fill="rgb(0,0,0)" stroke="none">100</tspan></tspan></tspan></text>
 <text class="TextShape"><tspan class="TextParagraph" font-family="Arial" font-size="423px" font-weight="400"><tspan class="TextPosition" x="6192" y="10416"><tspan fill="rgb(0,0,0)" stroke="none">150</tspan></tspan></tspan></text>
 <text class="TextShape"><tspan class="TextParagraph" font-family="Arial" font-size="423px" font-weight="400"><tspan class="TextPosition" x="7465" y="10416"><tspan fill="rgb(0,0,0)" stroke="none">200</tspan></tspan></tspan></text>
 <text class="TextShape"><tspan class="TextParagraph" font-family="Arial" font-size="423px" font-weight="400"><tspan class="TextPosition" x="8738" y="10416"><tspan fill="rgb(0,0,0)" stroke="none">250</tspan></tspan></tspan></text>
 <text class="TextShape"><tspan class="TextParagraph" font-family="Arial" font-size="423px" font-weight="400"><tspan class="TextPosition" x="10011" y="10416"><tspan fill="rgb(0,0,0)" stroke="none">300</tspan></tspan></tspan></text>
 <text class="TextShape"><tspan class="TextParagraph" font-family="Arial" font-size="423px" font-weight="400"><tspan class="TextPosition" x="11283" y="10416"><tspan fill="rgb(0,0,0)" stroke="none">350</tspan></tspan></tspan></text>
 <text class="TextShape"><tspan class="TextParagraph" font-family="Arial" font-size="423px" font-weight="400"><tspan class="TextPosition" x="12557" y="10416"><tspan fill="rgb(0,0,0)" stroke="none">400</tspan></tspan></tspan></text>
 <text class="TextShape"><tspan class="TextParagraph" font-family="Arial" font-size="423px" font-weight="400"><tspan class="TextPosition" x="2242" y="9942"><tspan fill="rgb(0,0,0)" stroke="none">0</tspan></tspan></tspan></text>
 <text class="TextShape"><tspan class="TextParagraph" font-family="Arial" font-size="423px" font-weight="400"><tspan class="TextPosition" x="2004" y="9139"><tspan fill="rgb(0,0,0)" stroke="none">20</tspan></tspan></tspan></text>
 <text class="TextShape"><tspan class="TextParagraph" font-family="Arial" font-size="423px" font-weight="400"><tspan class="TextPosition" x="2004" y="8337"><tspan fill="rgb(0,0,0)" stroke="none">40</tspan></tspan></tspan></text>
 <text class="TextShape"><tspan class="TextParagraph" font-family="Arial" font-size="423px" font-weight="400"><tspan class="TextPosition" x="2004" y="7534"><tspan fill="rgb(0,0,0)" stroke="none">60</tspan></tspan></tspan></text>
 <text class="TextShape"><tspan class="TextParagraph" font-family="Arial" font-size="423px" font-weight="400"><tspan class="TextPosition" x="2004" y="6732"><tspan fill="rgb(0,0,0)" stroke="none">80</tspan></tspan></tspan></text>
 <text class="TextShape"><tspan class="TextParagraph" font-family="Arial" font-size="423px" font-weight="400"><tspan class="TextPosition" x="1766" y="5929"><tspan fill="rgb(0,0,0)" stroke="none">100</tspan></tspan></tspan></text>
 <text class="TextShape"><tspan class="TextParagraph" font-family="Arial" font-size="423px" font-weight="400"><tspan class="TextPosition" x="1766" y="5127"><tspan fill="rgb(0,0,0)" stroke="none">120</tspan></tspan></tspan></text>
 <text class="TextShape"><tspan class="TextParagraph" font-family="Arial" font-size="423px" font-weight="400"><tspan class="TextPosition" x="1766" y="4324"><tspan fill="rgb(0,0,0)" stroke="none">140</tspan></tspan></tspan></text>
 <text class="TextShape"><tspan class="TextParagraph" font-family="Arial" font-size="423px" font-weight="400"><tspan class="TextPosition" x="1766" y="3522"><tspan fill="rgb(0,0,0)" stroke="none">160</tspan></tspan></tspan></text>
 <text class="TextShape"><tspan class="TextParagraph" font-family="Arial" font-size="423px" font-weight="400"><tspan class="TextPosition" x="1766" y="2719"><tspan fill="rgb(0,0,0)" stroke="none">180</tspan></tspan></tspan></text>
 <text class="TextShape"><tspan class="TextParagraph" font-family="Arial" font-size="423px" font-weight="400"><tspan class="TextPosition" x="1766" y="1917"><tspan fill="rgb(0,0,0)" stroke="none">200</tspan></tspan></tspan></text>
 <text class="TextShape"><tspan class="TextParagraph" font-family="Arial" font-size="564px" font-weight="400"><tspan class="TextPosition" x="7413" y="1035"><tspan fill="rgb(0,0,0)" stroke="none">Blocks with n=32</tspan></tspan></tspan></text>
 <path fill="none" stroke="rgb(0,69,134)" stroke-width="80" stroke-linejoin="round" d="M 14705,3996 L 15505,3996"/>
 <path fill="rgb(0,69,134)" stroke="none" d="M 14978,3869 L 14978,4123 15232,4123 15232,3869 14978,3869 Z"/>
 <path fill="none" stroke="rgb(0,69,134)" stroke-linejoin="round" d="M 14978,3869 L 14978,4123 15232,4123 15232,3869 14978,3869 Z"/>
 <path fill="none" stroke="rgb(255,66,14)" stroke-width="80" stroke-linejoin="round" d="M 14705,4547 L 15505,4547"/>
 <path fill="rgb(255,66,14)" stroke="none" d="M 14978,4547 L 15105,4674 15232,4547 15105,4420 14978,4547 Z"/>
 <path fill="none" stroke="rgb(255,66,14)" stroke-linejoin="round" d="M 14978,4547 L 15105,4674 15232,4547 15105,4420 14978,4547 Z"/>
 <path fill="none" stroke="rgb(255,211,32)" stroke-width="80" stroke-linejoin="round" d="M 14705,5098 L 15505,5098"/>
 <path fill="rgb(255,211,32)" stroke="none" d="M 14978,5225 L 15232,5225 15105,4971 14978,5225 Z"/>
 <path fill="none" stroke="rgb(255,211,32)" stroke-linejoin="round" d="M 14978,5225 L 15232,5225 15105,4971 14978,5225 Z"/>
 <path fill="none" stroke="rgb(87,157,28)" stroke-width="80" stroke-linejoin="round" d="M 14705,5649 L 15505,5649"/>
 <path fill="rgb(87,157,28)" stroke="none" d="M 14978,5776 L 15232,5776 15105,5522 14978,5776 Z"/>
 <path fill="none" stroke="rgb(87,157,28)" stroke-linejoin="round" d="M 14978,5776 L 15232,5776 15105,5522 14978,5776 Z"/>
 <path fill="none" stroke="rgb(126,0,33)" stroke-width="80" stroke-linejoin="round" d="M 14705,6199 L 15505,6199"/>
 <path fill="rgb(126,0,33)" stroke="none" d="M 14978,6326 L 15232,6326 15105,6072 14978,6326 Z"/>
 <path fill="none" stroke="rgb(126,0,33)" stroke-linejoin="round" d="M 14978,6326 L 15232,6326 15105,6072 14978,6326 Z"/>
 <path fill="none" stroke="rgb(131,202,255)" stroke-width="80" stroke-linejoin="round" d="M 14705,6750 L 15505,6750"/>
 <path fill="rgb(131,202,255)" stroke="none" d="M 14978,6877 L 15232,6877 15105,6623 14978,6877 Z"/>
 <path fill="none" stroke="rgb(131,202,255)" stroke-linejoin="round" d="M 14978,6877 L 15232,6877 15105,6623 14978,6877 Z"/>
 <path fill="none" stroke="rgb(49,64,4)" stroke-width="80" stroke-linejoin="round" d="M 14705,7301 L 15505,7301"/>
 <path fill="rgb(49,64,4)" stroke="none" d="M 14978,7174 L 14978,7428 15232,7428 15232,7174 14978,7174 Z"/>
 <path fill="none" stroke="rgb(49,64,4)" stroke-linejoin="round" d="M 14978,7174 L 14978,7428 15232,7428 15232,7174 14978,7174 Z"/>
 <path fill="none" stroke="rgb(174,207,0)" stroke-width="80" stroke-linejoin="round" d="M 14705,7852 L 15505,7852"/>
 <path fill="rgb(174,207,0)" stroke="none" d="M 14978,7725 L 14978,7979 15232,7979 15232,7725 14978,7725 Z"/>
 <path fill="none" stroke="rgb(174,207,0)" stroke-linejoin="round" d="M 14978,7725 L 14978,7979 15232,7979 15232,7725 14978,7725 Z"/>
 <text class="TextShape"><tspan class="TextParagraph" font-family="Liberation Sans" font-size="423px" font-weight="400"><tspan class="TextPosition" x="15605" y="4141"><tspan fill="rgb(0,0,0)" stroke="none">Primes</tspan></tspan></tspan></text>
 <text class="TextShape"><tspan class="TextParagraph" font-family="Liberation Sans" font-size="423px" font-weight="400"><tspan class="TextPosition" x="15605" y="4692"><tspan fill="rgb(0,0,0)" stroke="none">Dijkstra</tspan></tspan></tspan></text>
 <text class="TextShape"><tspan class="TextParagraph" font-family="Liberation Sans" font-size="423px" font-weight="400"><tspan class="TextPosition" x="15605" y="5243"><tspan fill="rgb(0,0,0)" stroke="none">Dijkstra w.c.</tspan></tspan></tspan></text>
 <text class="TextShape"><tspan class="TextParagraph" font-family="Liberation Sans" font-size="423px" font-weight="400"><tspan class="TextPosition" x="15605" y="5794"><tspan fill="rgb(0,0,0)" stroke="none">Matrix Mult</tspan></tspan></tspan></text>
 <text class="TextShape"><tspan class="TextParagraph" font-family="Liberation Sans" font-size="423px" font-weight="400"><tspan class="TextPosition" x="15605" y="6344"><tspan fill="rgb(0,0,0)" stroke="none">Determinant</tspan></tspan></tspan></text>
 <text class="TextShape"><tspan class="TextParagraph" font-family="Liberation Sans" font-size="423px" font-weight="400"><tspan class="TextPosition" x="15605" y="6895"><tspan fill="rgb(0,0,0)" stroke="none">Determinant w.c.</tspan></tspan></tspan></text>
 <text class="TextShape"><tspan class="TextParagraph" font-family="Liberation Sans" font-size="423px" font-weight="400"><tspan class="TextPosition" x="15605" y="7446"><tspan fill="rgb(0,0,0)" stroke="none">Hanoi</tspan></tspan></tspan></text>
 <text class="TextShape"><tspan class="TextParagraph" font-family="Liberation Sans" font-size="423px" font-weight="400"><tspan class="TextPosition" x="15605" y="7997"><tspan fill="rgb(0,0,0)" stroke="none">Hanoi w.c.</tspan></tspan></tspan></text>
 <text class="TextShape"><tspan class="TextParagraph" font-family="Arial" font-size="423px" font-weight="400"><tspan class="TextPosition" x="2697" y="11232"><tspan fill="rgb(0,0,0)" stroke="none">Cache sizes (number of blocks in data/instruction cache)</tspan></tspan></tspan></text>
 <text class="TextShape" transform="translate(1120,6762) rotate(-90) translate(-1120,-6762)"><tspan class="TextParagraph" font-family="Arial" font-size="529px" font-weight="400"><tspan class="TextPosition" x="1120" y="6762"><tspan fill="rgb(0,0,0)" stroke="none">Ratios</tspan></tspan></tspan></text>
</svg>