<?xml version="1.0" encoding="UTF-8"?>
<!DOCTYPE svg PUBLIC "-//W3C//DTD SVG 1.1//EN" "http://www.w3.org/Graphics/SVG/1.1/DTD/svg11.dtd">
<svg width="190mm" height="119mm" viewBox="0 0 19000 11900" version="1.1" xmlns="http://www.w3.org/2000/svg" stroke-width="28.222" stroke-linejoin="round" xml:space="preserve">
 <path fill="rgb(255,255,255)" stroke="none" d="M 9536,11860 L 16,11860 16,-10 19056,-10 19056,11860 9536,11860 Z"/>
 <path fill="none" stroke="rgb(179,179,179)" stroke-linejoin="round" d="M 8438,9798 L 2712,9798 2712,1774 14164,1774 14164,9798 8438,9798 Z"/>
 <path fill="none" stroke="rgb(179,179,179)" stroke-linejoin="round" d="M 14164,9797 L 2712,9797"/>
 <path fill="none" stroke="rgb(179,179,179)" stroke-linejoin="round" d="M 14164,8650 L 2712,8650"/>
 <path fill="none" stroke="rgb(179,179,179)" stroke-linejoin="round" d="M 14164,7504 L 2712,7504"/>
 <path fill="none" stroke="rgb(179,179,179)" stroke-linejoin="round" d="M 14164,6357 L 2712,6357"/>
 <path fill="none" stroke="rgb(179,179,179)" stroke-linejoin="round" d="M 14164,5212 L 2712,5212"/>
 <path fill="none" stroke="rgb(179,179,179)" stroke-linejoin="round" d="M 14164,4065 L 2712,4065"/>
 <path fill="none" stroke="rgb(179,179,179)" stroke-linejoin="round" d="M 14164,2919 L 2712,2919"/>
 <path fill="none" stroke="rgb(179,179,179)" stroke-linejoin="round" d="M 14164,1773 L 2712,1773"/>
 <path fill="none" stroke="rgb(221,221,221)" stroke-linejoin="round" d="M 14164,9223 L 2712,9223"/>
 <path fill="none" stroke="rgb(221,221,221)" stroke-linejoin="round" d="M 14164,8077 L 2712,8077"/>
 <path fill="none" stroke="rgb(221,221,221)" stroke-linejoin="round" d="M 14164,6930 L 2712,6930"/>
 <path fill="none" stroke="rgb(221,221,221)" stroke-linejoin="round" d="M 14164,5785 L 2712,5785"/>
 <path fill="none" stroke="rgb(221,221,221)" stroke-linejoin="round" d="M 14164,4639 L 2712,4639"/>
 <path fill="none" stroke="rgb(221,221,221)" stroke-linejoin="round" d="M 14164,3492 L 2712,3492"/>
 <path fill="none" stroke="rgb(221,221,221)" stroke-linejoin="round" d="M 14164,2346 L 2712,2346"/>
 <path fill="none" stroke="rgb(179,179,179)" stroke-linejoin="round" d="M 2712,9947 L 2712,9797"/>
 <path fill="none" stroke="rgb(179,179,179)" stroke-linejoin="round" d="M 3984,9947 L 3984,9797"/>
 <path fill="none" stroke="rgb(179,179,179)" stroke-linejoin="round" d="M 5257,9947 L 5257,9797"/>
 <path fill="none" stroke="rgb(179,179,179)" stroke-linejoin="round" d="M 6529,9947 L 6529,9797"/>
 <path fill="none" stroke="rgb(179,179,179)" stroke-linejoin="round" d="M 7802,9947 L 7802,9797"/>
 <path fill="none" stroke="rgb(179,179,179)" stroke-linejoin="round" d="M 9074,9947 L 9074,9797"/>
 <path fill="none" stroke="rgb(179,179,179)" stroke-linejoin="round" d="M 10346,9947 L 10346,9797"/>
 <path fill="none" stroke="rgb(179,179,179)" stroke-linejoin="round" d="M 11618,9947 L 11618,9797"/>
 <path fill="none" stroke="rgb(179,179,179)" stroke-linejoin="round" d="M 12891,9947 L 12891,9797"/>
 <path fill="none" stroke="rgb(179,179,179)" stroke-linejoin="round" d="M 14164,9947 L 14164,9797"/>
 <path fill="none" stroke="rgb(179,179,179)" stroke-linejoin="round" d="M 2712,9797 L 14164,9797"/>
 <path fill="none" stroke="rgb(179,179,179)" stroke-linejoin="round" d="M 2562,9797 L 2712,9797"/>
 <path fill="none" stroke="rgb(179,179,179)" stroke-linejoin="round" d="M 2562,8650 L 2712,8650"/>
 <path fill="none" stroke="rgb(179,179,179)" stroke-linejoin="round" d="M 2562,7504 L 2712,7504"/>
 <path fill="none" stroke="rgb(179,179,179)" stroke-linejoin="round" d="M 2562,6357 L 2712,6357"/>
 <path fill="none" stroke="rgb(179,179,179)" stroke-linejoin="round" d="M 2562,5212 L 2712,5212"/>
 <path fill="none" stroke="rgb(179,179,179)" stroke-linejoin="round" d="M 2562,4065 L 2712,4065"/>
 <path fill="none" stroke="rgb(179,179,179)" stroke-linejoin="round" d="M 2562,2919 L 2712,2919"/>
 <path fill="none" stroke="rgb(179,179,179)" stroke-linejoin="round" d="M 2562,1773 L 2712,1773"/>
 <path fill="none" stroke="rgb(179,179,179)" stroke-linejoin="round" d="M 2712,9797 L 2712,1773"/>
 <path fill="none" stroke="rgb(0,69,134)" stroke-width="80" stroke-linejoin="round" d="M 3984,9329 L 5257,9329 6529,9329 7802,9329 9074,9329 10346,9329 11618,9329 12891,9329"/>
 <path fill="rgb(0,69,134)" stroke="none" d="M 3843,9188 L 3843,9470 4125,9470 4125,9188 3843,9188 Z"/>
 <path fill="none" stroke="rgb(0,69,134)" stroke-linejoin="round" d="M 3843,9188 L 3843,9470 4125,9470 4125,9188 3843,9188 Z"/>
 <path fill="rgb(0,69,134)" stroke="none" d="M 5116,9188 L 5116,9470 5398,9470 5398,9188 5116,9188 Z"/>
 <path fill="none" stroke="rgb(0,69,134)" stroke-linejoin="round" d="M 5116,9188 L 5116,9470 5398,9470 5398,9188 5116,9188 Z"/>
 <path fill="rgb(0,69,134)" stroke="none" d="M 6388,9188 L 6388,9470 6670,9470 6670,9188 6388,9188 Z"/>
 <path fill="none" stroke="rgb(0,69,134)" stroke-linejoin="round" d="M 6388,9188 L 6388,9470 6670,9470 6670,9188 6388,9188 Z"/>
 <path fill="rgb(0,69,134)" stroke="none" d="M 7661,9188 L 7661,9470 7943,9470 7943,9188 7661,9188 Z"/>
 <path fill="none" stroke="rgb(0,69,134)" stroke-linejoin="round" d="M 7661,9188 L 7661,9470 7943,9470 7943,9188 7661,9188 Z"/>
 <path fill="rgb(0,69,134)" stroke="none" d="M 8933,9188 L 8933,9470 9215,9470 9215,9188 8933,9188 Z"/>
 <path fill="none" stroke="rgb(0,69,134)" stroke-linejoin="round" d="M 8933,9188 L 8933,9470 9215,9470 9215,9188 8933,9188 Z"/>
 <path fill="rgb(0,69,134)" stroke="none" d="M 10205,9188 L 10205,9470 10487,9470 10487,9188 10205,9188 Z"/>
 <path fill="none" stroke="rgb(0,69,134)" stroke-linejoin="round" d="M 10205,9188 L 10205,9470 10487,9470 10487,9188 10205,9188 Z"/>
 <path fill="rgb(0,69,134)" stroke="none" d="M 11477,9188 L 11477,9470 11759,9470 11759,9188 11477,9188 Z"/>
 <path fill="none" stroke="rgb(0,69,134)" stroke-linejoin="round" d="M 11477,9188 L 11477,9470 11759,9470 11759,9188 11477,9188 Z"/>
 <path fill="rgb(0,69,134)" stroke="none" d="M 12750,9188 L 12750,9470 13032,9470 13032,9188 12750,9188 Z"/>
 <path fill="none" stroke="rgb(0,69,134)" stroke-linejoin="round" d="M 12750,9188 L 12750,9470 13032,9470 13032,9188 12750,9188 Z"/>
 <path fill="none" stroke="rgb(255,66,14)" stroke-width="80" stroke-linejoin="round" d="M 3984,4372 L 5257,6837 6529,7836 7802,7952 9074,8215 10346,8385 11618,8365 12891,8438"/>
 <path fill="rgb(255,66,14)" stroke="none" d="M 3843,4372 L 3984,4513 4125,4372 3984,4231 3843,4372 Z"/>
 <path fill="none" stroke="rgb(255,66,14)" stroke-linejoin="round" d="M 3843,4372 L 3984,4513 4125,4372 3984,4231 3843,4372 Z"/>
 <path fill="rgb(255,66,14)" stroke="none" d="M 5116,6837 L 5257,6978 5398,6837 5257,6696 5116,6837 Z"/>
 <path fill="none" stroke="rgb(255,66,14)" stroke-linejoin="round" d="M 5116,6837 L 5257,6978 5398,6837 5257,6696 5116,6837 Z"/>
 <path fill="rgb(255,66,14)" stroke="none" d="M 6388,7836 L 6529,7977 6670,7836 6529,7695 6388,7836 Z"/>
 <path fill="none" stroke="rgb(255,66,14)" stroke-linejoin="round" d="M 6388,7836 L 6529,7977 6670,7836 6529,7695 6388,7836 Z"/>
 <path fill="rgb(255,66,14)" stroke="none" d="M 7661,7952 L 7802,8093 7943,7952 7802,7811 7661,7952 Z"/>
 <path fill="none" stroke="rgb(255,66,14)" stroke-linejoin="round" d="M 7661,7952 L 7802,8093 7943,7952 7802,7811 7661,7952 Z"/>
 <path fill="rgb(255,66,14)" stroke="none" d="M 8933,8215 L 9074,8356 9215,8215 9074,8074 8933,8215 Z"/>
 <path fill="none" stroke="rgb(255,66,14)" stroke-linejoin="round" d="M 8933,8215 L 9074,8356 9215,8215 9074,8074 8933,8215 Z"/>
 <path fill="rgb(255,66,14)" stroke="none" d="M 10205,8385 L 10346,8526 10487,8385 10346,8244 10205,8385 Z"/>
 <path fill="none" stroke="rgb(255,66,14)" stroke-linejoin="round" d="M 10205,8385 L 10346,8526 10487,8385 10346,8244 10205,8385 Z"/>
 <path fill="rgb(255,66,14)" stroke="none" d="M 11477,8365 L 11618,8506 11759,8365 11618,8224 11477,8365 Z"/>
 <path fill="none" stroke="rgb(255,66,14)" stroke-linejoin="round" d="M 11477,8365 L 11618,8506 11759,8365 11618,8224 11477,8365 Z"/>
 <path fill="rgb(255,66,14)" stroke="none" d="M 12750,8438 L 12891,8579 13032,8438 12891,8297 12750,8438 Z"/>
 <path fill="none" stroke="rgb(255,66,14)" stroke-linejoin="round" d="M 12750,8438 L 12891,8579 13032,8438 12891,8297 12750,8438 Z"/>
 <path fill="none" stroke="rgb(255,211,32)" stroke-width="80" stroke-linejoin="round" d="M 3984,2332 L 5257,5659 6529,6780 7802,7255 9074,7438 10346,7621 11618,7774 12891,7869"/>
 <path fill="rgb(255,211,32)" stroke="none" d="M 3843,2473 L 4125,2473 3984,2191 3843,2473 Z"/>
 <path fill="none" stroke="rgb(255,211,32)" stroke-linejoin="round" d="M 3843,2473 L 4125,2473 3984,2191 3843,2473 Z"/>
 <path fill="rgb(255,211,32)" stroke="none" d="M 5116,5800 L 5398,5800 5257,5518 5116,5800 Z"/>
 <path fill="none" stroke="rgb(255,211,32)" stroke-linejoin="round" d="M 5116,5800 L 5398,5800 5257,5518 5116,5800 Z"/>
 <path fill="rgb(255,211,32)" stroke="none" d="M 6388,6921 L 6670,6921 6529,6639 6388,6921 Z"/>
 <path fill="none" stroke="rgb(255,211,32)" stroke-linejoin="round" d="M 6388,6921 L 6670,6921 6529,6639 6388,6921 Z"/>
 <path fill="rgb(255,211,32)" stroke="none" d="M 7661,7396 L 7943,7396 7802,7114 7661,7396 Z"/>
 <path fill="none" stroke="rgb(255,211,32)" stroke-linejoin="round" d="M 7661,7396 L 7943,7396 7802,7114 7661,7396 Z"/>
 <path fill="rgb(255,211,32)" stroke="none" d="M 8933,7579 L 9215,7579 9074,7297 8933,7579 Z"/>
 <path fill="none" stroke="rgb(255,211,32)" stroke-linejoin="round" d="M 8933,7579 L 9215,7579 9074,7297 8933,7579 Z"/>
 <path fill="rgb(255,211,32)" stroke="none" d="M 10205,7762 L 10487,7762 10346,7480 10205,7762 Z"/>
 <path fill="none" stroke="rgb(255,211,32)" stroke-linejoin="round" d="M 10205,7762 L 10487,7762 10346,7480 10205,7762 Z"/>
 <path fill="rgb(255,211,32)" stroke="none" d="M 11477,7915 L 11759,7915 11618,7633 11477,7915 Z"/>
 <path fill="none" stroke="rgb(255,211,32)" stroke-linejoin="round" d="M 11477,7915 L 11759,7915 11618,7633 11477,7915 Z"/>
 <path fill="rgb(255,211,32)" stroke="none" d="M 12750,8010 L 13032,8010 12891,7728 12750,8010 Z"/>
 <path fill="none" stroke="rgb(255,211,32)" stroke-linejoin="round" d="M 12750,8010 L 13032,8010 12891,7728 12750,8010 Z"/>
 <path fill="none" stroke="rgb(87,157,28)" stroke-width="80" stroke-linejoin="round" d="M 3984,7312 L 5257,7837 6529,7868 7802,7887 9074,7889 10346,7899 11618,7897 12891,7908"/>
 <path fill="rgb(87,157,28)" stroke="none" d="M 3843,7453 L 4125,7453 3984,7171 3843,7453 Z"/>
 <path fill="none" stroke="rgb(87,157,28)" stroke-linejoin="round" d="M 3843,7453 L 4125,7453 3984,7171 3843,7453 Z"/>
 <path fill="rgb(87,157,28)" stroke="none" d="M 5116,7978 L 5398,7978 5257,7696 5116,7978 Z"/>
 <path fill="none" stroke="rgb(87,157,28)" stroke-linejoin="round" d="M 5116,7978 L 5398,7978 5257,7696 5116,7978 Z"/>
 <path fill="rgb(87,157,28)" stroke="none" d="M 6388,8009 L 6670,8009 6529,7727 6388,8009 Z"/>
 <path fill="none" stroke="rgb(87,157,28)" stroke-linejoin="round" d="M 6388,8009 L 6670,8009 6529,7727 6388,8009 Z"/>
 <path fill="rgb(87,157,28)" stroke="none" d="M 7661,8028 L 7943,8028 7802,7746 7661,8028 Z"/>
 <path fill="none" stroke="rgb(87,157,28)" stroke-linejoin="round" d="M 7661,8028 L 7943,8028 7802,7746 7661,8028 Z"/>
 <path fill="rgb(87,157,28)" stroke="none" d="M 8933,8030 L 9215,8030 9074,7748 8933,8030 Z"/>
 <path fill="none" stroke="rgb(87,157,28)" stroke-linejoin="round" d="M 8933,8030 L 9215,8030 9074,7748 8933,8030 Z"/>
 <path fill="rgb(87,157,28)" stroke="none" d="M 10205,8040 L 10487,8040 10346,7758 10205,8040 Z"/>
 <path fill="none" stroke="rgb(87,157,28)" stroke-linejoin="round" d="M 10205,8040 L 10487,8040 10346,7758 10205,8040 Z"/>
 <path fill="rgb(87,157,28)" stroke="none" d="M 11477,8038 L 11759,8038 11618,7756 11477,8038 Z"/>
 <path fill="none" stroke="rgb(87,157,28)" stroke-linejoin="round" d="M 11477,8038 L 11759,8038 11618,7756 11477,8038 Z"/>
 <path fill="rgb(87,157,28)" stroke="none" d="M 12750,8049 L 13032,8049 12891,7767 12750,8049 Z"/>
 <path fill="none" stroke="rgb(87,157,28)" stroke-linejoin="round" d="M 12750,8049 L 13032,8049 12891,7767 12750,8049 Z"/>
 <path fill="none" stroke="rgb(126,0,33)" stroke-width="80" stroke-linejoin="round" d="M 3984,8405 L 5257,9026 6529,9032 7802,9032 9074,9026 10346,9032 11618,9032 12891,9032"/>
 <path fill="rgb(126,0,33)" stroke="none" d="M 3843,8546 L 4125,8546 3984,8264 3843,8546 Z"/>
 <path fill="none" stroke="rgb(126,0,33)" stroke-linejoin="round" d="M 3843,8546 L 4125,8546 3984,8264 3843,8546 Z"/>
 <path fill="rgb(126,0,33)" stroke="none" d="M 5116,9167 L 5398,9167 5257,8885 5116,9167 Z"/>
 <path fill="none" stroke="rgb(126,0,33)" stroke-linejoin="round" d="M 5116,9167 L 5398,9167 5257,8885 5116,9167 Z"/>
 <path fill="rgb(126,0,33)" stroke="none" d="M 6388,9173 L 6670,9173 6529,8891 6388,9173 Z"/>
 <path fill="none" stroke="rgb(126,0,33)" stroke-linejoin="round" d="M 6388,9173 L 6670,9173 6529,8891 6388,9173 Z"/>
 <path fill="rgb(126,0,33)" stroke="none" d="M 7661,9173 L 7943,9173 7802,8891 7661,9173 Z"/>
 <path fill="none" stroke="rgb(126,0,33)" stroke-linejoin="round" d="M 7661,9173 L 7943,9173 7802,8891 7661,9173 Z"/>
 <path fill="rgb(126,0,33)" stroke="none" d="M 8933,9167 L 9215,9167 9074,8885 8933,9167 Z"/>
 <path fill="none" stroke="rgb(126,0,33)" stroke-linejoin="round" d="M 8933,9167 L 9215,9167 9074,8885 8933,9167 Z"/>
 <path fill="rgb(126,0,33)" stroke="none" d="M 10205,9173 L 10487,9173 10346,8891 10205,9173 Z"/>
 <path fill="none" stroke="rgb(126,0,33)" stroke-linejoin="round" d="M 10205,9173 L 10487,9173 10346,8891 10205,9173 Z"/>
 <path fill="rgb(126,0,33)" stroke="none" d="M 11477,9173 L 11759,9173 11618,8891 11477,9173 Z"/>
 <path fill="none" stroke="rgb(126,0,33)" stroke-linejoin="round" d="M 11477,9173 L 11759,9173 11618,8891 11477,9173 Z"/>
 <path fill="rgb(126,0,33)" stroke="none" d="M 12750,9173 L 13032,9173 12891,8891 12750,9173 Z"/>
 <path fill="none" stroke="rgb(126,0,33)" stroke-linejoin="round" d="M 12750,9173 L 13032,9173 12891,8891 12750,9173 Z"/>
 <path fill="none" stroke="rgb(131,202,255)" stroke-width="80" stroke-linejoin="round" d="M 3984,6974 L 5257,8498 6529,8616 7802,8766 9074,8762 10346,8766 11618,8766 12891,8766"/>
 <path fill="rgb(131,202,255)" stroke="none" d="M 3843,7115 L 4125,7115 3984,6833 3843,7115 Z"/>
 <path fill="none" stroke="rgb(131,202,255)" stroke-linejoin="round" d="M 3843,7115 L 4125,7115 3984,6833 3843,7115 Z"/>
 <path fill="rgb(131,202,255)" stroke="none" d="M 5116,8639 L 5398,8639 5257,8357 5116,8639 Z"/>
 <path fill="none" stroke="rgb(131,202,255)" stroke-linejoin="round" d="M 5116,8639 L 5398,8639 5257,8357 5116,8639 Z"/>
 <path fill="rgb(131,202,255)" stroke="none" d="M 6388,8757 L 6670,8757 6529,8475 6388,8757 Z"/>
 <path fill="none" stroke="rgb(131,202,255)" stroke-linejoin="round" d="M 6388,8757 L 6670,8757 6529,8475 6388,8757 Z"/>
 <path fill="rgb(131,202,255)" stroke="none" d="M 7661,8907 L 7943,8907 7802,8625 7661,8907 Z"/>
 <path fill="none" stroke="rgb(131,202,255)" stroke-linejoin="round" d="M 7661,8907 L 7943,8907 7802,8625 7661,8907 Z"/>
 <path fill="rgb(131,202,255)" stroke="none" d="M 8933,8903 L 9215,8903 9074,8621 8933,8903 Z"/>
 <path fill="none" stroke="rgb(131,202,255)" stroke-linejoin="round" d="M 8933,8903 L 9215,8903 9074,8621 8933,8903 Z"/>
 <path fill="rgb(131,202,255)" stroke="none" d="M 10205,8907 L 10487,8907 10346,8625 10205,8907 Z"/>
 <path fill="none" stroke="rgb(131,202,255)" stroke-linejoin="round" d="M 10205,8907 L 10487,8907 10346,8625 10205,8907 Z"/>
 <path fill="rgb(131,202,255)" stroke="none" d="M 11477,8907 L 11759,8907 11618,8625 11477,8907 Z"/>
 <path fill="none" stroke="rgb(131,202,255)" stroke-linejoin="round" d="M 11477,8907 L 11759,8907 11618,8625 11477,8907 Z"/>
 <path fill="rgb(131,202,255)" stroke="none" d="M 12750,8907 L 13032,8907 12891,8625 12750,8907 Z"/>
 <path fill="none" stroke="rgb(131,202,255)" stroke-linejoin="round" d="M 12750,8907 L 13032,8907 12891,8625 12750,8907 Z"/>
 <path fill="none" stroke="rgb(49,64,4)" stroke-width="80" stroke-linejoin="round" d="M 3984,9692 L 5257,9692 6529,9692 7802,9692 9074,9692 10346,9692 11618,9692 12891,9692"/>
 <path fill="rgb(49,64,4)" stroke="none" d="M 3843,9551 L 3843,9833 4125,9833 4125,9551 3843,9551 Z"/>
 <path fill="none" stroke="rgb(49,64,4)" stroke-linejoin="round" d="M 3843,9551 L 3843,9833 4125,9833 4125,9551 3843,9551 Z"/>
 <path fill="rgb(49,64,4)" stroke="none" d="M 5116,9551 L 5116,9833 5398,9833 5398,9551 5116,9551 Z"/>
 <path fill="none" stroke="rgb(49,64,4)" stroke-linejoin="round" d="M 5116,9551 L 5116,9833 5398,9833 5398,9551 5116,9551 Z"/>
 <path fill="rgb(49,64,4)" stroke="none" d="M 6388,9551 L 6388,9833 6670,9833 6670,9551 6388,9551 Z"/>
 <path fill="none" stroke="rgb(49,64,4)" stroke-linejoin="round" d="M 6388,9551 L 6388,9833 6670,9833 6670,9551 6388,9551 Z"/>
 <path fill="rgb(49,64,4)" stroke="none" d="M 7661,9551 L 7661,9833 7943,9833 7943,9551 7661,9551 Z"/>
 <path fill="none" stroke="rgb(49,64,4)" stroke-linejoin="round" d="M 7661,9551 L 7661,9833 7943,9833 7943,9551 7661,9551 Z"/>
 <path fill="rgb(49,64,4)" stroke="none" d="M 8933,9551 L 8933,9833 9215,9833 9215,9551 8933,9551 Z"/>
 <path fill="none" stroke="rgb(49,64,4)" stroke-linejoin="round" d="M 8933,9551 L 8933,9833 9215,9833 9215,9551 8933,9551 Z"/>
 <path fill="rgb(49,64,4)" stroke="none" d="M 10205,9551 L 10205,9833 10487,9833 10487,9551 10205,9551 Z"/>
 <path fill="none" stroke="rgb(49,64,4)" stroke-linejoin="round" d="M 10205,9551 L 10205,9833 10487,9833 10487,9551 10205,9551 Z"/>
 <path fill="rgb(49,64,4)" stroke="none" d="M 11477,9551 L 11477,9833 11759,9833 11759,9551 11477,9551 Z"/>
 <path fill="none" stroke="rgb(49,64,4)" stroke-linejoin="round" d="M 11477,9551 L 11477,9833 11759,9833 11759,9551 11477,9551 Z"/>
 <path fill="rgb(49,64,4)" stroke="none" d="M 12750,9551 L 12750,9833 13032,9833 13032,9551 12750,9551 Z"/>
 <path fill="none" stroke="rgb(49,64,4)" stroke-linejoin="round" d="M 12750,9551 L 12750,9833 13032,9833 13032,9551 12750,9551 Z"/>
 <path fill="none" stroke="rgb(174,207,0)" stroke-width="80" stroke-linejoin="round" d="M 3984,9229 L 5257,9470 6529,9470 7802,9525 9074,9525 10346,9470 11618,9525 12891,9525"/>
 <path fill="rgb(174,207,0)" stroke="none" d="M 3843,9088 L 3843,9370 4125,9370 4125,9088 3843,9088 Z"/>
 <path fill="none" stroke="rgb(174,207,0)" stroke-linejoin="round" d="M 3843,9088 L 3843,9370 4125,9370 4125,9088 3843,9088 Z"/>
 <path fill="rgb(174,207,0)" stroke="none" d="M 5116,9329 L 5116,9611 5398,9611 5398,9329 5116,9329 Z"/>
 <path fill="none" stroke="rgb(174,207,0)" stroke-linejoin="round" d="M 5116,9329 L 5116,9611 5398,9611 5398,9329 5116,9329 Z"/>
 <path fill="rgb(174,207,0)" stroke="none" d="M 6388,9329 L 6388,9611 6670,9611 6670,9329 6388,9329 Z"/>
 <path fill="none" stroke="rgb(174,207,0)" stroke-linejoin="round" d="M 6388,9329 L 6388,9611 6670,9611 6670,9329 6388,9329 Z"/>
 <path fill="rgb(174,207,0)" stroke="none" d="M 7661,9384 L 7661,9666 7943,9666 7943,9384 7661,9384 Z"/>
 <path fill="none" stroke="rgb(174,207,0)" stroke-linejoin="round" d="M 7661,9384 L 7661,9666 7943,9666 7943,9384 7661,9384 Z"/>
 <path fill="rgb(174,207,0)" stroke="none" d="M 8933,9384 L 8933,9666 9215,9666 9215,9384 8933,9384 Z"/>
 <path fill="none" stroke="rgb(174,207,0)" stroke-linejoin="round" d="M 8933,9384 L 8933,9666 9215,9666 9215,9384 8933,9384 Z"/>
 <path fill="rgb(174,207,0)" stroke="none" d="M 10205,9329 L 10205,9611 10487,9611 10487,9329 10205,9329 Z"/>
 <path fill="none" stroke="rgb(174,207,0)" stroke-linejoin="round" d="M 10205,9329 L 10205,9611 10487,9611 10487,9329 10205,9329 Z"/>
 <path fill="rgb(174,207,0)" stroke="none" d="M 11477,9384 L 11477,9666 11759,9666 11759,9384 11477,9384 Z"/>
 <path fill="none" stroke="rgb(174,207,0)" stroke-linejoin="round" d="M 11477,9384 L 11477,9666 11759,9666 11759,9384 11477,9384 Z"/>
 <path fill="rgb(174,207,0)" stroke="none" d="M 12750,9384 L 12750,9666 13032,9666 13032,9384 12750,9384 Z"/>
 <path fill="none" stroke="rgb(174,207,0)" stroke-linejoin="round" d="M 12750,9384 L 12750,9666 13032,9666 13032,9384 12750,9384 Z"/>
 <text class="TextShape"><tspan class="TextParagraph" font-family="Arial" font-size="423px" font-weight="400"><tspan class="TextPosition" x="3746" y="10417"><tspan fill="rgb(0,0,0)" stroke="none">50</tspan></tspan></tspan></text>
 <text class="TextShape"><tspan class="TextParagraph" font-family="Arial" font-size="423px" font-weight="400"><tspan class="TextPosition" x="4900" y="10417"><tspan fill="rgb(0,0,0)" stroke="none">100</tspan></tspan></tspan></text>
 <text class="TextShape"><tspan class="TextParagraph" font-family="Arial" font-size="423px" font-weight="400"><tspan class="TextPosition" x="6172" y="10417"><tspan fill="rgb(0,0,0)" stroke="none">150</tspan></tspan></tspan></text>
 <text class="TextShape"><tspan class="TextParagraph" font-family="Arial" font-size="423px" font-weight="400"><tspan class="TextPosition" x="7445" y="10417"><tspan fill="rgb(0,0,0)" stroke="none">200</tspan></tspan></tspan></text>
 <text class="TextShape"><tspan class="TextParagraph" font-family="Arial" font-size="423px" font-weight="400"><tspan class="TextPosition" x="8717" y="10417"><tspan fill="rgb(0,0,0)" stroke="none">250</tspan></tspan></tspan></text>
 <text class="TextShape"><tspan class="TextParagraph" font-family="Arial" font-size="423px" font-weight="400"><tspan class="TextPosition" x="9990" y="10417"><tspan fill="rgb(0,0,0)" stroke="none">300</tspan></tspan></tspan></text>
 <text class="TextShape"><tspan class="TextParagraph" font-family="Arial" font-size="423px" font-weight="400"><tspan class="TextPosition" x="11262" y="10417"><tspan fill="rgb(0,0,0)" stroke="none">350</tspan></tspan></tspan></text>
 <text class="TextShape"><tspan class="TextParagraph" font-family="Arial" font-size="423px" font-weight="400"><tspan class="TextPosition" x="12535" y="10417"><tspan fill="rgb(0,0,0)" stroke="none">400</tspan></tspan></tspan></text>
 <text class="TextShape"><tspan class="TextParagraph" font-family="Arial" font-size="423px" font-weight="400"><tspan class="TextPosition" x="2224" y="9943"><tspan fill="rgb(0,0,0)" stroke="none">0</tspan></tspan></tspan></text>
 <text class="TextShape"><tspan class="TextParagraph" font-family="Arial" font-size="423px" font-weight="400"><tspan class="TextPosition" x="1986" y="8796"><tspan fill="rgb(0,0,0)" stroke="none">20</tspan></tspan></tspan></text>
 <text class="TextShape"><tspan class="TextParagraph" font-family="Arial" font-size="423px" font-weight="400"><tspan class="TextPosition" x="1986" y="7650"><tspan fill="rgb(0,0,0)" stroke="none">40</tspan></tspan></tspan></text>
 <text class="TextShape"><tspan class="TextParagraph" font-family="Arial" font-size="423px" font-weight="400"><tspan class="TextPosition" x="1986" y="6503"><tspan fill="rgb(0,0,0)" stroke="none">60</tspan></tspan></tspan></text>
 <text class="TextShape"><tspan class="TextParagraph" font-family="Arial" font-size="423px" font-weight="400"><tspan class="TextPosition" x="1986" y="5357"><tspan fill="rgb(0,0,0)" stroke="none">80</tspan></tspan></tspan></text>
 <text class="TextShape"><tspan class="TextParagraph" font-family="Arial" font-size="423px" font-weight="400"><tspan class="TextPosition" x="1748" y="4210"><tspan fill="rgb(0,0,0)" stroke="none">100</tspan></tspan></tspan></text>
 <text class="TextShape"><tspan class="TextParagraph" font-family="Arial" font-size="423px" font-weight="400"><tspan class="TextPosition" x="1748" y="3064"><tspan fill="rgb(0,0,0)" stroke="none">120</tspan></tspan></tspan></text>
 <text class="TextShape"><tspan class="TextParagraph" font-family="Arial" font-size="423px" font-weight="400"><tspan class="TextPosition" x="1748" y="1918"><tspan fill="rgb(0,0,0)" stroke="none">140</tspan></tspan></tspan></text>
 <text class="TextShape"><tspan class="TextParagraph" font-family="Arial" font-size="564px" font-weight="400"><tspan class="TextPosition" x="7393" y="1035"><tspan fill="rgb(0,0,0)" stroke="none">Blocks with n=48</tspan></tspan></tspan></text>
 <path fill="none" stroke="rgb(0,69,134)" stroke-width="80" stroke-linejoin="round" d="M 14683,3996 L 15483,3996"/>
 <path fill="rgb(0,69,134)" stroke="none" d="M 14956,3869 L 14956,4123 15210,4123 15210,3869 14956,3869 Z"/>
 <path fill="none" stroke="rgb(0,69,134)" stroke-linejoin="round" d="M 14956,3869 L 14956,4123 15210,4123 15210,3869 14956,3869 Z"/>
 <path fill="none" stroke="rgb(255,66,14)" stroke-width="80" stroke-linejoin="round" d="M 14683,4547 L 15483,4547"/>
 <path fill="rgb(255,66,14)" stroke="none" d="M 14956,4547 L 15083,4674 15210,4547 15083,4420 14956,4547 Z"/>
 <path fill="none" stroke="rgb(255,66,14)" stroke-linejoin="round" d="M 14956,4547 L 15083,4674 15210,4547 15083,4420 14956,4547 Z"/>
 <path fill="none" stroke="rgb(255,211,32)" stroke-width="80" stroke-linejoin="round" d="M 14683,5098 L 15483,5098"/>
 <path fill="rgb(255,211,32)" stroke="none" d="M 14956,5225 L 15210,5225 15083,4971 14956,5225 Z"/>
 <path fill="none" stroke="rgb(255,211,32)" stroke-linejoin="round" d="M 14956,5225 L 15210,5225 15083,4971 14956,5225 Z"/>
 <path fill="none" stroke="rgb(87,157,28)" stroke-width="80" stroke-linejoin="round" d="M 14683,5649 L 15483,5649"/>
 <path fill="rgb(87,157,28)" stroke="none" d="M 14956,5776 L 15210,5776 15083,5522 14956,5776 Z"/>
 <path fill="none" stroke="rgb(87,157,28)" stroke-linejoin="round" d="M 14956,5776 L 15210,5776 15083,5522 14956,5776 Z"/>
 <path fill="none" stroke="rgb(126,0,33)" stroke-width="80" stroke-linejoin="round" d="M 14683,6199 L 15483,6199"/>
 <path fill="rgb(126,0,33)" stroke="none" d="M 14956,6326 L 15210,6326 15083,6072 14956,6326 Z"/>
 <path fill="none" stroke="rgb(126,0,33)" stroke-linejoin="round" d="M 14956,6326 L 15210,6326 15083,6072 14956,6326 Z"/>
 <path fill="none" stroke="rgb(131,202,255)" stroke-width="80" stroke-linejoin="round" d="M 14683,6750 L 15483,6750"/>
 <path fill="rgb(131,202,255)" stroke="none" d="M 14956,6877 L 15210,6877 15083,6623 14956,6877 Z"/>
 <path fill="none" stroke="rgb(131,202,255)" stroke-linejoin="round" d="M 14956,6877 L 15210,6877 15083,6623 14956,6877 Z"/>
 <path fill="none" stroke="rgb(49,64,4)" stroke-width="80" stroke-linejoin="round" d="M 14683,7301 L 15483,7301"/>
 <path fill="rgb(49,64,4)" stroke="none" d="M 14956,7174 L 14956,7428 15210,7428 15210,7174 14956,7174 Z"/>
 <path fill="none" stroke="rgb(49,64,4)" stroke-linejoin="round" d="M 14956,7174 L 14956,7428 15210,7428 15210,7174 14956,7174 Z"/>
 <path fill="none" stroke="rgb(174,207,0)" stroke-width="80" stroke-linejoin="round" d="M 14683,7852 L 15483,7852"/>
 <path fill="rgb(174,207,0)" stroke="none" d="M 14956,7725 L 14956,7979 15210,7979 15210,7725 14956,7725 Z"/>
 <path fill="none" stroke="rgb(174,207,0)" stroke-linejoin="round" d="M 14956,7725 L 14956,7979 15210,7979 15210,7725 14956,7725 Z"/>
 <text class="TextShape"><tspan class="TextParagraph" font-family="Liberation Sans" font-size="423px" font-weight="400"><tspan class="TextPosition" x="15583" y="4141"><tspan fill="rgb(0,0,0)" stroke="none">Primes</tspan></tspan></tspan></text>
 <text class="TextShape"><tspan class="TextParagraph" font-family="Liberation Sans" font-size="423px" font-weight="400"><tspan class="TextPosition" x="15583" y="4692"><tspan fill="rgb(0,0,0)" stroke="none">Dijkstra</tspan></tspan></tspan></text>
 <text class="TextShape"><tspan class="TextParagraph" font-family="Liberation Sans" font-size="423px" font-weight="400"><tspan class="TextPosition" x="15583" y="5243"><tspan fill="rgb(0,0,0)" stroke="none">Dijkstra w.c.</tspan></tspan></tspan></text>
 <text class="TextShape"><tspan class="TextParagraph" font-family="Liberation Sans" font-size="423px" font-weight="400"><tspan class="TextPosition" x="15583" y="5794"><tspan fill="rgb(0,0,0)" stroke="none">Matrix Mult</tspan></tspan></tspan></text>
 <text class="TextShape"><tspan class="TextParagraph" font-family="Liberation Sans" font-size="423px" font-weight="400"><tspan class="TextPosition" x="15583" y="6344"><tspan fill="rgb(0,0,0)" stroke="none">Determinant</tspan></tspan></tspan></text>
 <text class="TextShape"><tspan class="TextParagraph" font-family="Liberation Sans" font-size="423px" font-weight="400"><tspan class="TextPosition" x="15583" y="6895"><tspan fill="rgb(0,0,0)" stroke="none">Determinant w.c.</tspan></tspan></tspan></text>
 <text class="TextShape"><tspan class="TextParagraph" font-family="Liberation Sans" font-size="423px" font-weight="400"><tspan class="TextPosition" x="15583" y="7446"><tspan fill="rgb(0,0,0)" stroke="none">Hanoi</tspan></tspan></tspan></text>
 <text class="TextShape"><tspan class="TextParagraph" font-family="Liberation Sans" font-size="423px" font-weight="400"><tspan class="TextPosition" x="15583" y="7997"><tspan fill="rgb(0,0,0)" stroke="none">Hanoi w.c.</tspan></tspan></tspan></text>
 <text class="TextShape"><tspan class="TextParagraph" font-family="Arial" font-size="423px" font-weight="400"><tspan class="TextPosition" x="2677" y="11233"><tspan fill="rgb(0,0,0)" stroke="none">Cache sizes (number of blocks in data/instruction cache)</tspan></tspan></tspan></text>
 <text class="TextShape" transform="translate(1102,6763) rotate(-90) translate(-1102,-6763)"><tspan class="TextParagraph" font-family="Arial" font-size="529px" font-weight="400"><tspan class="TextPosition" x="1102" y="6763"><tspan fill="rgb(0,0,0)" stroke="none">Ratios</tspan></tspan></tspan></text>
</svg>