<?xml version="1.0" encoding="UTF-8"?>
<!DOCTYPE svg PUBLIC "-//W3C//DTD SVG 1.1//EN" "http://www.w3.org/Graphics/SVG/1.1/DTD/svg11.dtd">
<svg width="191mm" height="119mm" viewBox="0 0 19100 11900" version="1.1" xmlns="http://www.w3.org/2000/svg" stroke-width="28.222" stroke-linejoin="round" xml:space="preserve">
 <path fill="rgb(255,255,255)" stroke="none" d="M 9505,11860 L -21,11860 -21,-10 19031,-10 19031,11860 9505,11860 Z"/>
 <path fill="none" stroke="rgb(179,179,179)" stroke-linejoin="round" d="M 8407,9798 L 2676,9798 2676,1773 14138,1773 14138,9798 8407,9798 Z"/>
 <path fill="none" stroke="rgb(179,179,179)" stroke-linejoin="round" d="M 14138,9797 L 2676,9797"/>
 <path fill="none" stroke="rgb(179,179,179)" stroke-linejoin="round" d="M 14138,8459 L 2676,8459"/>
 <path fill="none" stroke="rgb(179,179,179)" stroke-linejoin="round" d="M 14138,7121 L 2676,7121"/>
 <path fill="none" stroke="rgb(179,179,179)" stroke-linejoin="round" d="M 14138,5785 L 2676,5785"/>
 <path fill="none" stroke="rgb(179,179,179)" stroke-linejoin="round" d="M 14138,4447 L 2676,4447"/>
 <path fill="none" stroke="rgb(179,179,179)" stroke-linejoin="round" d="M 14138,3109 L 2676,3109"/>
 <path fill="none" stroke="rgb(179,179,179)" stroke-linejoin="round" d="M 14138,1772 L 2676,1772"/>
 <path fill="none" stroke="rgb(221,221,221)" stroke-linejoin="round" d="M 14138,9128 L 2676,9128"/>
 <path fill="none" stroke="rgb(221,221,221)" stroke-linejoin="round" d="M 14138,7790 L 2676,7790"/>
 <path fill="none" stroke="rgb(221,221,221)" stroke-linejoin="round" d="M 14138,6452 L 2676,6452"/>
 <path fill="none" stroke="rgb(221,221,221)" stroke-linejoin="round" d="M 14138,5116 L 2676,5116"/>
 <path fill="none" stroke="rgb(221,221,221)" stroke-linejoin="round" d="M 14138,3778 L 2676,3778"/>
 <path fill="none" stroke="rgb(221,221,221)" stroke-linejoin="round" d="M 14138,2440 L 2676,2440"/>
 <path fill="none" stroke="rgb(179,179,179)" stroke-linejoin="round" d="M 2676,9947 L 2676,9797"/>
 <path fill="none" stroke="rgb(179,179,179)" stroke-linejoin="round" d="M 3949,9947 L 3949,9797"/>
 <path fill="none" stroke="rgb(179,179,179)" stroke-linejoin="round" d="M 5223,9947 L 5223,9797"/>
 <path fill="none" stroke="rgb(179,179,179)" stroke-linejoin="round" d="M 6497,9947 L 6497,9797"/>
 <path fill="none" stroke="rgb(179,179,179)" stroke-linejoin="round" d="M 7770,9947 L 7770,9797"/>
 <path fill="none" stroke="rgb(179,179,179)" stroke-linejoin="round" d="M 9044,9947 L 9044,9797"/>
 <path fill="none" stroke="rgb(179,179,179)" stroke-linejoin="round" d="M 10317,9947 L 10317,9797"/>
 <path fill="none" stroke="rgb(179,179,179)" stroke-linejoin="round" d="M 11590,9947 L 11590,9797"/>
 <path fill="none" stroke="rgb(179,179,179)" stroke-linejoin="round" d="M 12864,9947 L 12864,9797"/>
 <path fill="none" stroke="rgb(179,179,179)" stroke-linejoin="round" d="M 14138,9947 L 14138,9797"/>
 <path fill="none" stroke="rgb(179,179,179)" stroke-linejoin="round" d="M 2676,9797 L 14138,9797"/>
 <path fill="none" stroke="rgb(179,179,179)" stroke-linejoin="round" d="M 2526,9797 L 2676,9797"/>
 <path fill="none" stroke="rgb(179,179,179)" stroke-linejoin="round" d="M 2526,8459 L 2676,8459"/>
 <path fill="none" stroke="rgb(179,179,179)" stroke-linejoin="round" d="M 2526,7121 L 2676,7121"/>
 <path fill="none" stroke="rgb(179,179,179)" stroke-linejoin="round" d="M 2526,5785 L 2676,5785"/>
 <path fill="none" stroke="rgb(179,179,179)" stroke-linejoin="round" d="M 2526,4447 L 2676,4447"/>
 <path fill="none" stroke="rgb(179,179,179)" stroke-linejoin="round" d="M 2526,3109 L 2676,3109"/>
 <path fill="none" stroke="rgb(179,179,179)" stroke-linejoin="round" d="M 2526,1772 L 2676,1772"/>
 <path fill="none" stroke="rgb(179,179,179)" stroke-linejoin="round" d="M 2676,9797 L 2676,1772"/>
 <path fill="none" stroke="rgb(0,69,134)" stroke-width="80" stroke-linejoin="round" d="M 3949,9316 L 5223,9316 6497,9316 7770,9316 9044,9316 10317,9316 11590,9316 12864,9316"/>
 <path fill="rgb(0,69,134)" stroke="none" d="M 3808,9175 L 3808,9457 4090,9457 4090,9175 3808,9175 Z"/>
 <path fill="none" stroke="rgb(0,69,134)" stroke-linejoin="round" d="M 3808,9175 L 3808,9457 4090,9457 4090,9175 3808,9175 Z"/>
 <path fill="rgb(0,69,134)" stroke="none" d="M 5082,9175 L 5082,9457 5364,9457 5364,9175 5082,9175 Z"/>
 <path fill="none" stroke="rgb(0,69,134)" stroke-linejoin="round" d="M 5082,9175 L 5082,9457 5364,9457 5364,9175 5082,9175 Z"/>
 <path fill="rgb(0,69,134)" stroke="none" d="M 6356,9175 L 6356,9457 6638,9457 6638,9175 6356,9175 Z"/>
 <path fill="none" stroke="rgb(0,69,134)" stroke-linejoin="round" d="M 6356,9175 L 6356,9457 6638,9457 6638,9175 6356,9175 Z"/>
 <path fill="rgb(0,69,134)" stroke="none" d="M 7629,9175 L 7629,9457 7911,9457 7911,9175 7629,9175 Z"/>
 <path fill="none" stroke="rgb(0,69,134)" stroke-linejoin="round" d="M 7629,9175 L 7629,9457 7911,9457 7911,9175 7629,9175 Z"/>
 <path fill="rgb(0,69,134)" stroke="none" d="M 8903,9175 L 8903,9457 9185,9457 9185,9175 8903,9175 Z"/>
 <path fill="none" stroke="rgb(0,69,134)" stroke-linejoin="round" d="M 8903,9175 L 8903,9457 9185,9457 9185,9175 8903,9175 Z"/>
 <path fill="rgb(0,69,134)" stroke="none" d="M 10176,9175 L 10176,9457 10458,9457 10458,9175 10176,9175 Z"/>
 <path fill="none" stroke="rgb(0,69,134)" stroke-linejoin="round" d="M 10176,9175 L 10176,9457 10458,9457 10458,9175 10176,9175 Z"/>
 <path fill="rgb(0,69,134)" stroke="none" d="M 11449,9175 L 11449,9457 11731,9457 11731,9175 11449,9175 Z"/>
 <path fill="none" stroke="rgb(0,69,134)" stroke-linejoin="round" d="M 11449,9175 L 11449,9457 11731,9457 11731,9175 11449,9175 Z"/>
 <path fill="rgb(0,69,134)" stroke="none" d="M 12723,9175 L 12723,9457 13005,9457 13005,9175 12723,9175 Z"/>
 <path fill="none" stroke="rgb(0,69,134)" stroke-linejoin="round" d="M 12723,9175 L 12723,9457 13005,9457 13005,9175 12723,9175 Z"/>
 <path fill="none" stroke="rgb(255,66,14)" stroke-width="80" stroke-linejoin="round" d="M 3949,4685 L 5223,6787 6497,7452 7770,7772 9044,7684 10317,8153 11590,7973 12864,8276"/>
 <path fill="rgb(255,66,14)" stroke="none" d="M 3808,4685 L 3949,4826 4090,4685 3949,4544 3808,4685 Z"/>
 <path fill="none" stroke="rgb(255,66,14)" stroke-linejoin="round" d="M 3808,4685 L 3949,4826 4090,4685 3949,4544 3808,4685 Z"/>
 <path fill="rgb(255,66,14)" stroke="none" d="M 5082,6787 L 5223,6928 5364,6787 5223,6646 5082,6787 Z"/>
 <path fill="none" stroke="rgb(255,66,14)" stroke-linejoin="round" d="M 5082,6787 L 5223,6928 5364,6787 5223,6646 5082,6787 Z"/>
 <path fill="rgb(255,66,14)" stroke="none" d="M 6356,7452 L 6497,7593 6638,7452 6497,7311 6356,7452 Z"/>
 <path fill="none" stroke="rgb(255,66,14)" stroke-linejoin="round" d="M 6356,7452 L 6497,7593 6638,7452 6497,7311 6356,7452 Z"/>
 <path fill="rgb(255,66,14)" stroke="none" d="M 7629,7772 L 7770,7913 7911,7772 7770,7631 7629,7772 Z"/>
 <path fill="none" stroke="rgb(255,66,14)" stroke-linejoin="round" d="M 7629,7772 L 7770,7913 7911,7772 7770,7631 7629,7772 Z"/>
 <path fill="rgb(255,66,14)" stroke="none" d="M 8903,7684 L 9044,7825 9185,7684 9044,7543 8903,7684 Z"/>
 <path fill="none" stroke="rgb(255,66,14)" stroke-linejoin="round" d="M 8903,7684 L 9044,7825 9185,7684 9044,7543 8903,7684 Z"/>
 <path fill="rgb(255,66,14)" stroke="none" d="M 10176,8153 L 10317,8294 10458,8153 10317,8012 10176,8153 Z"/>
 <path fill="none" stroke="rgb(255,66,14)" stroke-linejoin="round" d="M 10176,8153 L 10317,8294 10458,8153 10317,8012 10176,8153 Z"/>
 <path fill="rgb(255,66,14)" stroke="none" d="M 11449,7973 L 11590,8114 11731,7973 11590,7832 11449,7973 Z"/>
 <path fill="none" stroke="rgb(255,66,14)" stroke-linejoin="round" d="M 11449,7973 L 11590,8114 11731,7973 11590,7832 11449,7973 Z"/>
 <path fill="rgb(255,66,14)" stroke="none" d="M 12723,8276 L 12864,8417 13005,8276 12864,8135 12723,8276 Z"/>
 <path fill="none" stroke="rgb(255,66,14)" stroke-linejoin="round" d="M 12723,8276 L 12864,8417 13005,8276 12864,8135 12723,8276 Z"/>
 <path fill="none" stroke="rgb(255,211,32)" stroke-width="80" stroke-linejoin="round" d="M 3949,2319 L 5223,5567 6497,6316 7770,6974 9044,6971 10317,7183 11590,7036 12864,7599"/>
 <path fill="rgb(255,211,32)" stroke="none" d="M 3808,2460 L 4090,2460 3949,2178 3808,2460 Z"/>
 <path fill="none" stroke="rgb(255,211,32)" stroke-linejoin="round" d="M 3808,2460 L 4090,2460 3949,2178 3808,2460 Z"/>
 <path fill="rgb(255,211,32)" stroke="none" d="M 5082,5708 L 5364,5708 5223,5426 5082,5708 Z"/>
 <path fill="none" stroke="rgb(255,211,32)" stroke-linejoin="round" d="M 5082,5708 L 5364,5708 5223,5426 5082,5708 Z"/>
 <path fill="rgb(255,211,32)" stroke="none" d="M 6356,6457 L 6638,6457 6497,6175 6356,6457 Z"/>
 <path fill="none" stroke="rgb(255,211,32)" stroke-linejoin="round" d="M 6356,6457 L 6638,6457 6497,6175 6356,6457 Z"/>
 <path fill="rgb(255,211,32)" stroke="none" d="M 7629,7115 L 7911,7115 7770,6833 7629,7115 Z"/>
 <path fill="none" stroke="rgb(255,211,32)" stroke-linejoin="round" d="M 7629,7115 L 7911,7115 7770,6833 7629,7115 Z"/>
 <path fill="rgb(255,211,32)" stroke="none" d="M 8903,7112 L 9185,7112 9044,6830 8903,7112 Z"/>
 <path fill="none" stroke="rgb(255,211,32)" stroke-linejoin="round" d="M 8903,7112 L 9185,7112 9044,6830 8903,7112 Z"/>
 <path fill="rgb(255,211,32)" stroke="none" d="M 10176,7324 L 10458,7324 10317,7042 10176,7324 Z"/>
 <path fill="none" stroke="rgb(255,211,32)" stroke-linejoin="round" d="M 10176,7324 L 10458,7324 10317,7042 10176,7324 Z"/>
 <path fill="rgb(255,211,32)" stroke="none" d="M 11449,7177 L 11731,7177 11590,6895 11449,7177 Z"/>
 <path fill="none" stroke="rgb(255,211,32)" stroke-linejoin="round" d="M 11449,7177 L 11731,7177 11590,6895 11449,7177 Z"/>
 <path fill="rgb(255,211,32)" stroke="none" d="M 12723,7740 L 13005,7740 12864,7458 12723,7740 Z"/>
 <path fill="none" stroke="rgb(255,211,32)" stroke-linejoin="round" d="M 12723,7740 L 13005,7740 12864,7458 12723,7740 Z"/>
 <path fill="none" stroke="rgb(87,157,28)" stroke-width="80" stroke-linejoin="round" d="M 3949,7233 L 5223,7380 6497,7416 7770,7436 9044,7446 10317,7455 11590,7457 12864,7463"/>
 <path fill="rgb(87,157,28)" stroke="none" d="M 3808,7374 L 4090,7374 3949,7092 3808,7374 Z"/>
 <path fill="none" stroke="rgb(87,157,28)" stroke-linejoin="round" d="M 3808,7374 L 4090,7374 3949,7092 3808,7374 Z"/>
 <path fill="rgb(87,157,28)" stroke="none" d="M 5082,7521 L 5364,7521 5223,7239 5082,7521 Z"/>
 <path fill="none" stroke="rgb(87,157,28)" stroke-linejoin="round" d="M 5082,7521 L 5364,7521 5223,7239 5082,7521 Z"/>
 <path fill="rgb(87,157,28)" stroke="none" d="M 6356,7557 L 6638,7557 6497,7275 6356,7557 Z"/>
 <path fill="none" stroke="rgb(87,157,28)" stroke-linejoin="round" d="M 6356,7557 L 6638,7557 6497,7275 6356,7557 Z"/>
 <path fill="rgb(87,157,28)" stroke="none" d="M 7629,7577 L 7911,7577 7770,7295 7629,7577 Z"/>
 <path fill="none" stroke="rgb(87,157,28)" stroke-linejoin="round" d="M 7629,7577 L 7911,7577 7770,7295 7629,7577 Z"/>
 <path fill="rgb(87,157,28)" stroke="none" d="M 8903,7587 L 9185,7587 9044,7305 8903,7587 Z"/>
 <path fill="none" stroke="rgb(87,157,28)" stroke-linejoin="round" d="M 8903,7587 L 9185,7587 9044,7305 8903,7587 Z"/>
 <path fill="rgb(87,157,28)" stroke="none" d="M 10176,7596 L 10458,7596 10317,7314 10176,7596 Z"/>
 <path fill="none" stroke="rgb(87,157,28)" stroke-linejoin="round" d="M 10176,7596 L 10458,7596 10317,7314 10176,7596 Z"/>
 <path fill="rgb(87,157,28)" stroke="none" d="M 11449,7598 L 11731,7598 11590,7316 11449,7598 Z"/>
 <path fill="none" stroke="rgb(87,157,28)" stroke-linejoin="round" d="M 11449,7598 L 11731,7598 11590,7316 11449,7598 Z"/>
 <path fill="rgb(87,157,28)" stroke="none" d="M 12723,7604 L 13005,7604 12864,7322 12723,7604 Z"/>
 <path fill="none" stroke="rgb(87,157,28)" stroke-linejoin="round" d="M 12723,7604 L 13005,7604 12864,7322 12723,7604 Z"/>
 <path fill="none" stroke="rgb(126,0,33)" stroke-width="80" stroke-linejoin="round" d="M 3949,8473 L 5223,8473 6497,9000 7770,8974 9044,9001 10317,9000 11590,9001 12864,9001"/>
 <path fill="rgb(126,0,33)" stroke="none" d="M 3808,8614 L 4090,8614 3949,8332 3808,8614 Z"/>
 <path fill="none" stroke="rgb(126,0,33)" stroke-linejoin="round" d="M 3808,8614 L 4090,8614 3949,8332 3808,8614 Z"/>
 <path fill="rgb(126,0,33)" stroke="none" d="M 5082,8614 L 5364,8614 5223,8332 5082,8614 Z"/>
 <path fill="none" stroke="rgb(126,0,33)" stroke-linejoin="round" d="M 5082,8614 L 5364,8614 5223,8332 5082,8614 Z"/>
 <path fill="rgb(126,0,33)" stroke="none" d="M 6356,9141 L 6638,9141 6497,8859 6356,9141 Z"/>
 <path fill="none" stroke="rgb(126,0,33)" stroke-linejoin="round" d="M 6356,9141 L 6638,9141 6497,8859 6356,9141 Z"/>
 <path fill="rgb(126,0,33)" stroke="none" d="M 7629,9115 L 7911,9115 7770,8833 7629,9115 Z"/>
 <path fill="none" stroke="rgb(126,0,33)" stroke-linejoin="round" d="M 7629,9115 L 7911,9115 7770,8833 7629,9115 Z"/>
 <path fill="rgb(126,0,33)" stroke="none" d="M 8903,9142 L 9185,9142 9044,8860 8903,9142 Z"/>
 <path fill="none" stroke="rgb(126,0,33)" stroke-linejoin="round" d="M 8903,9142 L 9185,9142 9044,8860 8903,9142 Z"/>
 <path fill="rgb(126,0,33)" stroke="none" d="M 10176,9141 L 10458,9141 10317,8859 10176,9141 Z"/>
 <path fill="none" stroke="rgb(126,0,33)" stroke-linejoin="round" d="M 10176,9141 L 10458,9141 10317,8859 10176,9141 Z"/>
 <path fill="rgb(126,0,33)" stroke="none" d="M 11449,9142 L 11731,9142 11590,8860 11449,9142 Z"/>
 <path fill="none" stroke="rgb(126,0,33)" stroke-linejoin="round" d="M 11449,9142 L 11731,9142 11590,8860 11449,9142 Z"/>
 <path fill="rgb(126,0,33)" stroke="none" d="M 12723,9142 L 13005,9142 12864,8860 12723,9142 Z"/>
 <path fill="none" stroke="rgb(126,0,33)" stroke-linejoin="round" d="M 12723,9142 L 13005,9142 12864,8860 12723,9142 Z"/>
 <path fill="none" stroke="rgb(131,202,255)" stroke-width="80" stroke-linejoin="round" d="M 3949,7655 L 5223,8191 6497,8700 7770,8687 9044,8700 10317,8700 11590,8700 12864,8700"/>
 <path fill="rgb(131,202,255)" stroke="none" d="M 3808,7796 L 4090,7796 3949,7514 3808,7796 Z"/>
 <path fill="none" stroke="rgb(131,202,255)" stroke-linejoin="round" d="M 3808,7796 L 4090,7796 3949,7514 3808,7796 Z"/>
 <path fill="rgb(131,202,255)" stroke="none" d="M 5082,8332 L 5364,8332 5223,8050 5082,8332 Z"/>
 <path fill="none" stroke="rgb(131,202,255)" stroke-linejoin="round" d="M 5082,8332 L 5364,8332 5223,8050 5082,8332 Z"/>
 <path fill="rgb(131,202,255)" stroke="none" d="M 6356,8841 L 6638,8841 6497,8559 6356,8841 Z"/>
 <path fill="none" stroke="rgb(131,202,255)" stroke-linejoin="round" d="M 6356,8841 L 6638,8841 6497,8559 6356,8841 Z"/>
 <path fill="rgb(131,202,255)" stroke="none" d="M 7629,8828 L 7911,8828 7770,8546 7629,8828 Z"/>
 <path fill="none" stroke="rgb(131,202,255)" stroke-linejoin="round" d="M 7629,8828 L 7911,8828 7770,8546 7629,8828 Z"/>
 <path fill="rgb(131,202,255)" stroke="none" d="M 8903,8841 L 9185,8841 9044,8559 8903,8841 Z"/>
 <path fill="none" stroke="rgb(131,202,255)" stroke-linejoin="round" d="M 8903,8841 L 9185,8841 9044,8559 8903,8841 Z"/>
 <path fill="rgb(131,202,255)" stroke="none" d="M 10176,8841 L 10458,8841 10317,8559 10176,8841 Z"/>
 <path fill="none" stroke="rgb(131,202,255)" stroke-linejoin="round" d="M 10176,8841 L 10458,8841 10317,8559 10176,8841 Z"/>
 <path fill="rgb(131,202,255)" stroke="none" d="M 11449,8841 L 11731,8841 11590,8559 11449,8841 Z"/>
 <path fill="none" stroke="rgb(131,202,255)" stroke-linejoin="round" d="M 11449,8841 L 11731,8841 11590,8559 11449,8841 Z"/>
 <path fill="rgb(131,202,255)" stroke="none" d="M 12723,8841 L 13005,8841 12864,8559 12723,8841 Z"/>
 <path fill="none" stroke="rgb(131,202,255)" stroke-linejoin="round" d="M 12723,8841 L 13005,8841 12864,8559 12723,8841 Z"/>
 <path fill="none" stroke="rgb(49,64,4)" stroke-width="80" stroke-linejoin="round" d="M 3949,9684 L 5223,9684 6497,9684 7770,9684 9044,9684 10317,9684 11590,9684 12864,9684"/>
 <path fill="rgb(49,64,4)" stroke="none" d="M 3808,9543 L 3808,9825 4090,9825 4090,9543 3808,9543 Z"/>
 <path fill="none" stroke="rgb(49,64,4)" stroke-linejoin="round" d="M 3808,9543 L 3808,9825 4090,9825 4090,9543 3808,9543 Z"/>
 <path fill="rgb(49,64,4)" stroke="none" d="M 5082,9543 L 5082,9825 5364,9825 5364,9543 5082,9543 Z"/>
 <path fill="none" stroke="rgb(49,64,4)" stroke-linejoin="round" d="M 5082,9543 L 5082,9825 5364,9825 5364,9543 5082,9543 Z"/>
 <path fill="rgb(49,64,4)" stroke="none" d="M 6356,9543 L 6356,9825 6638,9825 6638,9543 6356,9543 Z"/>
 <path fill="none" stroke="rgb(49,64,4)" stroke-linejoin="round" d="M 6356,9543 L 6356,9825 6638,9825 6638,9543 6356,9543 Z"/>
 <path fill="rgb(49,64,4)" stroke="none" d="M 7629,9543 L 7629,9825 7911,9825 7911,9543 7629,9543 Z"/>
 <path fill="none" stroke="rgb(49,64,4)" stroke-linejoin="round" d="M 7629,9543 L 7629,9825 7911,9825 7911,9543 7629,9543 Z"/>
 <path fill="rgb(49,64,4)" stroke="none" d="M 8903,9543 L 8903,9825 9185,9825 9185,9543 8903,9543 Z"/>
 <path fill="none" stroke="rgb(49,64,4)" stroke-linejoin="round" d="M 8903,9543 L 8903,9825 9185,9825 9185,9543 8903,9543 Z"/>
 <path fill="rgb(49,64,4)" stroke="none" d="M 10176,9543 L 10176,9825 10458,9825 10458,9543 10176,9543 Z"/>
 <path fill="none" stroke="rgb(49,64,4)" stroke-linejoin="round" d="M 10176,9543 L 10176,9825 10458,9825 10458,9543 10176,9543 Z"/>
 <path fill="rgb(49,64,4)" stroke="none" d="M 11449,9543 L 11449,9825 11731,9825 11731,9543 11449,9543 Z"/>
 <path fill="none" stroke="rgb(49,64,4)" stroke-linejoin="round" d="M 11449,9543 L 11449,9825 11731,9825 11731,9543 11449,9543 Z"/>
 <path fill="rgb(49,64,4)" stroke="none" d="M 12723,9543 L 12723,9825 13005,9825 13005,9543 12723,9543 Z"/>
 <path fill="none" stroke="rgb(49,64,4)" stroke-linejoin="round" d="M 12723,9543 L 12723,9825 13005,9825 13005,9543 12723,9543 Z"/>
 <path fill="none" stroke="rgb(174,207,0)" stroke-width="80" stroke-linejoin="round" d="M 3949,9499 L 5223,9500 6497,9501 7770,9501 9044,9501 10317,9501 11590,9501 12864,9501"/>
 <path fill="rgb(174,207,0)" stroke="none" d="M 3808,9358 L 3808,9640 4090,9640 4090,9358 3808,9358 Z"/>
 <path fill="none" stroke="rgb(174,207,0)" stroke-linejoin="round" d="M 3808,9358 L 3808,9640 4090,9640 4090,9358 3808,9358 Z"/>
 <path fill="rgb(174,207,0)" stroke="none" d="M 5082,9359 L 5082,9641 5364,9641 5364,9359 5082,9359 Z"/>
 <path fill="none" stroke="rgb(174,207,0)" stroke-linejoin="round" d="M 5082,9359 L 5082,9641 5364,9641 5364,9359 5082,9359 Z"/>
 <path fill="rgb(174,207,0)" stroke="none" d="M 6356,9360 L 6356,9642 6638,9642 6638,9360 6356,9360 Z"/>
 <path fill="none" stroke="rgb(174,207,0)" stroke-linejoin="round" d="M 6356,9360 L 6356,9642 6638,9642 6638,9360 6356,9360 Z"/>
 <path fill="rgb(174,207,0)" stroke="none" d="M 7629,9360 L 7629,9642 7911,9642 7911,9360 7629,9360 Z"/>
 <path fill="none" stroke="rgb(174,207,0)" stroke-linejoin="round" d="M 7629,9360 L 7629,9642 7911,9642 7911,9360 7629,9360 Z"/>
 <path fill="rgb(174,207,0)" stroke="none" d="M 8903,9360 L 8903,9642 9185,9642 9185,9360 8903,9360 Z"/>
 <path fill="none" stroke="rgb(174,207,0)" stroke-linejoin="round" d="M 8903,9360 L 8903,9642 9185,9642 9185,9360 8903,9360 Z"/>
 <path fill="rgb(174,207,0)" stroke="none" d="M 10176,9360 L 10176,9642 10458,9642 10458,9360 10176,9360 Z"/>
 <path fill="none" stroke="rgb(174,207,0)" stroke-linejoin="round" d="M 10176,9360 L 10176,9642 10458,9642 10458,9360 10176,9360 Z"/>
 <path fill="rgb(174,207,0)" stroke="none" d="M 11449,9360 L 11449,9642 11731,9642 11731,9360 11449,9360 Z"/>
 <path fill="none" stroke="rgb(174,207,0)" stroke-linejoin="round" d="M 11449,9360 L 11449,9642 11731,9642 11731,9360 11449,9360 Z"/>
 <path fill="rgb(174,207,0)" stroke="none" d="M 12723,9360 L 12723,9642 13005,9642 13005,9360 12723,9360 Z"/>
 <path fill="none" stroke="rgb(174,207,0)" stroke-linejoin="round" d="M 12723,9360 L 12723,9642 13005,9642 13005,9360 12723,9360 Z"/>
 <text class="TextShape"><tspan class="TextParagraph" font-family="Arial" font-size="423px" font-weight="400"><tspan class="TextPosition" x="3711" y="10417"><tspan fill="rgb(0,0,0)" stroke="none">50</tspan></tspan></tspan></text>
 <text class="TextShape"><tspan class="TextParagraph" font-family="Arial" font-size="423px" font-weight="400"><tspan class="TextPosition" x="4866" y="10417"><tspan fill="rgb(0,0,0)" stroke="none">100</tspan></tspan></tspan></text>
 <text class="TextShape"><tspan class="TextParagraph" font-family="Arial" font-size="423px" font-weight="400"><tspan class="TextPosition" x="6140" y="10417"><tspan fill="rgb(0,0,0)" stroke="none">150</tspan></tspan></tspan></text>
 <text class="TextShape"><tspan class="TextParagraph" font-family="Arial" font-size="423px" font-weight="400"><tspan class="TextPosition" x="7413" y="10417"><tspan fill="rgb(0,0,0)" stroke="none">200</tspan></tspan></tspan></text>
 <text class="TextShape"><tspan class="TextParagraph" font-family="Arial" font-size="423px" font-weight="400"><tspan class="TextPosition" x="8687" y="10417"><tspan fill="rgb(0,0,0)" stroke="none">250</tspan></tspan></tspan></text>
 <text class="TextShape"><tspan class="TextParagraph" font-family="Arial" font-size="423px" font-weight="400"><tspan class="TextPosition" x="9961" y="10417"><tspan fill="rgb(0,0,0)" stroke="none">300</tspan></tspan></tspan></text>
 <text class="TextShape"><tspan class="TextParagraph" font-family="Arial" font-size="423px" font-weight="400"><tspan class="TextPosition" x="11234" y="10417"><tspan fill="rgb(0,0,0)" stroke="none">350</tspan></tspan></tspan></text>
 <text class="TextShape"><tspan class="TextParagraph" font-family="Arial" font-size="423px" font-weight="400"><tspan class="TextPosition" x="12508" y="10417"><tspan fill="rgb(0,0,0)" stroke="none">400</tspan></tspan></tspan></text>
 <text class="TextShape"><tspan class="TextParagraph" font-family="Arial" font-size="423px" font-weight="400"><tspan class="TextPosition" x="2188" y="9943"><tspan fill="rgb(0,0,0)" stroke="none">0</tspan></tspan></tspan></text>
 <text class="TextShape"><tspan class="TextParagraph" font-family="Arial" font-size="423px" font-weight="400"><tspan class="TextPosition" x="1950" y="8605"><tspan fill="rgb(0,0,0)" stroke="none">20</tspan></tspan></tspan></text>
 <text class="TextShape"><tspan class="TextParagraph" font-family="Arial" font-size="423px" font-weight="400"><tspan class="TextPosition" x="1950" y="7267"><tspan fill="rgb(0,0,0)" stroke="none">40</tspan></tspan></tspan></text>
 <text class="TextShape"><tspan class="TextParagraph" font-family="Arial" font-size="423px" font-weight="400"><tspan class="TextPosition" x="1950" y="5930"><tspan fill="rgb(0,0,0)" stroke="none">60</tspan></tspan></tspan></text>
 <text class="TextShape"><tspan class="TextParagraph" font-family="Arial" font-size="423px" font-weight="400"><tspan class="TextPosition" x="1950" y="4592"><tspan fill="rgb(0,0,0)" stroke="none">80</tspan></tspan></tspan></text>
 <text class="TextShape"><tspan class="TextParagraph" font-family="Arial" font-size="423px" font-weight="400"><tspan class="TextPosition" x="1712" y="3254"><tspan fill="rgb(0,0,0)" stroke="none">100</tspan></tspan></tspan></text>
 <text class="TextShape"><tspan class="TextParagraph" font-family="Arial" font-size="423px" font-weight="400"><tspan class="TextPosition" x="1712" y="1917"><tspan fill="rgb(0,0,0)" stroke="none">120</tspan></tspan></tspan></text>
 <text class="TextShape"><tspan class="TextParagraph" font-family="Arial" font-size="564px" font-weight="400"><tspan class="TextPosition" x="7362" y="1035"><tspan fill="rgb(0,0,0)" stroke="none">Blocks with n=64</tspan></tspan></tspan></text>
 <path fill="none" stroke="rgb(0,69,134)" stroke-width="80" stroke-linejoin="round" d="M 14658,3996 L 15458,3996"/>
 <path fill="rgb(0,69,134)" stroke="none" d="M 14931,3869 L 14931,4123 15185,4123 15185,3869 14931,3869 Z"/>
 <path fill="none" stroke="rgb(0,69,134)" stroke-linejoin="round" d="M 14931,3869 L 14931,4123 15185,4123 15185,3869 14931,3869 Z"/>
 <path fill="none" stroke="rgb(255,66,14)" stroke-width="80" stroke-linejoin="round" d="M 14658,4547 L 15458,4547"/>
 <path fill="rgb(255,66,14)" stroke="none" d="M 14931,4547 L 15058,4674 15185,4547 15058,4420 14931,4547 Z"/>
 <path fill="none" stroke="rgb(255,66,14)" stroke-linejoin="round" d="M 14931,4547 L 15058,4674 15185,4547 15058,4420 14931,4547 Z"/>
 <path fill="none" stroke="rgb(255,211,32)" stroke-width="80" stroke-linejoin="round" d="M 14658,5098 L 15458,5098"/>
 <path fill="rgb(255,211,32)" stroke="none" d="M 14931,5225 L 15185,5225 15058,4971 14931,5225 Z"/>
 <path fill="none" stroke="rgb(255,211,32)" stroke-linejoin="round" d="M 14931,5225 L 15185,5225 15058,4971 14931,5225 Z"/>
 <path fill="none" stroke="rgb(87,157,28)" stroke-width="80" stroke-linejoin="round" d="M 14658,5649 L 15458,5649"/>
 <path fill="rgb(87,157,28)" stroke="none" d="M 14931,5776 L 15185,5776 15058,5522 14931,5776 Z"/>
 <path fill="none" stroke="rgb(87,157,28)" stroke-linejoin="round" d="M 14931,5776 L 15185,5776 15058,5522 14931,5776 Z"/>
 <path fill="none" stroke="rgb(126,0,33)" stroke-width="80" stroke-linejoin="round" d="M 14658,6199 L 15458,6199"/>
 <path fill="rgb(126,0,33)" stroke="none" d="M 14931,6326 L 15185,6326 15058,6072 14931,6326 Z"/>
 <path fill="none" stroke="rgb(126,0,33)" stroke-linejoin="round" d="M 14931,6326 L 15185,6326 15058,6072 14931,6326 Z"/>
 <path fill="none" stroke="rgb(131,202,255)" stroke-width="80" stroke-linejoin="round" d="M 14658,6750 L 15458,6750"/>
 <path fill="rgb(131,202,255)" stroke="none" d="M 14931,6877 L 15185,6877 15058,6623 14931,6877 Z"/>
 <path fill="none" stroke="rgb(131,202,255)" stroke-linejoin="round" d="M 14931,6877 L 15185,6877 15058,6623 14931,6877 Z"/>
 <path fill="none" stroke="rgb(49,64,4)" stroke-width="80" stroke-linejoin="round" d="M 14658,7301 L 15458,7301"/>
 <path fill="rgb(49,64,4)" stroke="none" d="M 14931,7174 L 14931,7428 15185,7428 15185,7174 14931,7174 Z"/>
 <path fill="none" stroke="rgb(49,64,4)" stroke-linejoin="round" d="M 14931,7174 L 14931,7428 15185,7428 15185,7174 14931,7174 Z"/>
 <path fill="none" stroke="rgb(174,207,0)" stroke-width="80" stroke-linejoin="round" d="M 14658,7852 L 15458,7852"/>
 <path fill="rgb(174,207,0)" stroke="none" d="M 14931,7725 L 14931,7979 15185,7979 15185,7725 14931,7725 Z"/>
 <path fill="none" stroke="rgb(174,207,0)" stroke-linejoin="round" d="M 14931,7725 L 14931,7979 15185,7979 15185,7725 14931,7725 Z"/>
 <text class="TextShape"><tspan class="TextParagraph" font-family="Liberation Sans" font-size="423px" font-weight="400"><tspan class="TextPosition" x="15558" y="4141"><tspan fill="rgb(0,0,0)" stroke="none">Primes</tspan></tspan></tspan></text>
 <text class="TextShape"><tspan class="TextParagraph" font-family="Liberation Sans" font-size="423px" font-weight="400"><tspan class="TextPosition" x="15558" y="4692"><tspan fill="rgb(0,0,0)" stroke="none">Dijkstra</tspan></tspan></tspan></text>
 <text class="TextShape"><tspan class="TextParagraph" font-family="Liberation Sans" font-size="423px" font-weight="400"><tspan class="TextPosition" x="15558" y="5243"><tspan fill="rgb(0,0,0)" stroke="none">Dijkstra w.c.</tspan></tspan></tspan></text>
 <text class="TextShape"><tspan class="TextParagraph" font-family="Liberation Sans" font-size="423px" font-weight="400"><tspan class="TextPosition" x="15558" y="5794"><tspan fill="rgb(0,0,0)" stroke="none">Matrix Mult</tspan></tspan></tspan></text>
 <text class="TextShape"><tspan class="TextParagraph" font-family="Liberation Sans" font-size="423px" font-weight="400"><tspan class="TextPosition" x="15558" y="6344"><tspan fill="rgb(0,0,0)" stroke="none">Determinant</tspan></tspan></tspan></text>
 <text class="TextShape"><tspan class="TextParagraph" font-family="Liberation Sans" font-size="423px" font-weight="400"><tspan class="TextPosition" x="15558" y="6895"><tspan fill="rgb(0,0,0)" stroke="none">Determinant w.c.</tspan></tspan></tspan></text>
 <text class="TextShape"><tspan class="TextParagraph" font-family="Liberation Sans" font-size="423px" font-weight="400"><tspan class="TextPosition" x="15558" y="7446"><tspan fill="rgb(0,0,0)" stroke="none">Hanoi</tspan></tspan></tspan></text>
 <text class="TextShape"><tspan class="TextParagraph" font-family="Liberation Sans" font-size="423px" font-weight="400"><tspan class="TextPosition" x="15558" y="7997"><tspan fill="rgb(0,0,0)" stroke="none">Hanoi w.c.</tspan></tspan></tspan></text>
 <text class="TextShape"><tspan class="TextParagraph" font-family="Arial" font-size="423px" font-weight="400"><tspan class="TextPosition" x="2646" y="11233"><tspan fill="rgb(0,0,0)" stroke="none">Cache sizes (number of blocks in data/instruction cache)</tspan></tspan></tspan></text>
 <text class="TextShape" transform="translate(1065,6763) rotate(-90) translate(-1065,-6763)"><tspan class="TextParagraph" font-family="Arial" font-size="529px" font-weight="400"><tspan class="TextPosition" x="1065" y="6763"><tspan fill="rgb(0,0,0)" stroke="none">Ratios</tspan></tspan></tspan></text>
</svg>